<?xml version="1.0" encoding="UTF-8" standalone="no"?>
<!-- Created with Inkscape (http://www.inkscape.org/) -->

<svg
   xmlns:dc="http://purl.org/dc/elements/1.1/"
   xmlns:cc="http://creativecommons.org/ns#"
   xmlns:rdf="http://www.w3.org/1999/02/22-rdf-syntax-ns#"
   xmlns:svg="http://www.w3.org/2000/svg"
   xmlns="http://www.w3.org/2000/svg"
   xmlns:sodipodi="http://sodipodi.sourceforge.net/DTD/sodipodi-0.dtd"
   xmlns:inkscape="http://www.inkscape.org/namespaces/inkscape"
   width="430.9061"
   height="132.68695"
   id="svg3021"
   version="1.1"
   inkscape:version="0.48.2 r9819"
   sodipodi:docname="Cute.svg">
  <defs
     id="defs3023" />
  <sodipodi:namedview
     id="base"
     pagecolor="#ffffff"
     bordercolor="#666666"
     borderopacity="1.0"
     inkscape:pageopacity="0"
     inkscape:pageshadow="2"
     inkscape:zoom="1.4"
     inkscape:cx="-0.97552143"
     inkscape:cy="57.772043"
     inkscape:document-units="px"
     inkscape:current-layer="layer1"
     showgrid="false"
     inkscape:window-width="1920"
     inkscape:window-height="1018"
     inkscape:window-x="-8"
     inkscape:window-y="-8"
     inkscape:window-maximized="1"
     fit-margin-top="10"
     fit-margin-left="10"
     fit-margin-right="10"
     fit-margin-bottom="10" />
  <metadata
     id="metadata3026">
    <rdf:RDF>
      <cc:Work
         rdf:about="">
        <dc:format>image/svg+xml</dc:format>
        <dc:type
           rdf:resource="http://purl.org/dc/dcmitype/StillImage" />
        <dc:title />
      </cc:Work>
    </rdf:RDF>
  </metadata>
  <g
     inkscape:label="Layer 1"
     inkscape:groupmode="layer"
     id="layer1"
     transform="translate(-153.11838,-428.87585)">
    <path
       style="fill:#f28ea8;fill-opacity:1"
       d="m 380.25264,530.9475 c -0.064,-4.3016 0.6184,-9.2483 0.9797,-13.0954 0,0 -10.6689,12.9709 -17.3526,19.3014 -5.312,5.0312 -16.6293,12.1709 -23.9768,12.5637 -10.0204,0.5357 -18.7603,-7.6735 -19.0047,-19.2009 -0.059,-2.7739 0.1781,-5.3791 1.2505,-9.7368 0.7492,-4.3312 3.026,-11.3895 4.5962,-17.028 1.9273,-6.9206 3.9597,-13.06476 6.7575,-21.68307 l 24.697,0.16337 c -3.1685,11.3343 -6.9429,24.0569 -9.3265,34.0509 -1.9218,7.0723 -1.4145,10.5873 2.7507,12.4452 4.6116,1.211 7.5195,-0.2475 13.977,-7.0722 15.4391,-16.3171 26.5924,-39.54217 27.5945,-39.50872 l 22.8891,0.12927 -6.0741,24.76455 c -5.4994,21.7028 -6.2209,26.6789 -3.3899,29.6609 2.8905,3.0449 6.451,3.0911 13.7004,-0.9713 l 7.7751,-4.357 c 0,0 -0.1338,-5.7132 0.3544,-9.6672 0.5316,-4.3058 2.5748,-11.8567 5.8906,-25.9853 0.125,-0.5323 1.1651,-4.29208 -3.6745,-4.55241 l -5.7218,-0.30779 1.9211,-10.71007 11.8393,-0.0358 4.8704,-19.20403 26.8159,-0.01 -3.3903,15.12204 c -0.6012,3.71417 0.4702,3.8202 3.8269,3.85006 l 24.7489,0.0159 -1.9868,10.55968 -8.9685,0.36871 c -6.2994,-0.34766 -13.9246,2.76211 -17.2692,5.47661 -1.6118,1.3082 -7.7506,5.5249 -9.5337,13.1861 -1.3945,5.2297 -1.7972,11.8719 -2.3556,16.0262 -1.6748,12.4597 2.6468,18.2514 18.6478,8.5405 l 10.7648,-6.5331 c -0.7417,-1.794 -0.9053,-4.2573 -0.8859,-7.7729 0.07,-12.7695 8.4166,-20.7192 16.147,-26.5399 13.0227,-9.80573 27.122,-11.09072 36.3155,-11.49235 8.2439,-0.36014 13.8676,0.94018 18.6113,2.39379 9.0514,2.77359 16.8717,8.67926 18.396,18.05466 1.0684,5.2867 0.5337,9.5404 -0.8647,15.3485 l -54.3589,0.029 1.51,-6.5887 8.8849,0 c 14.8519,0 21.4738,-6.7539 20.8164,-13.0522 -1.1838,-11.34249 -18.8231,-12.92775 -30.8518,1.8223 -2.9309,4.6383 -7.0013,8.7236 -7.2446,20.3992 -0.014,11.1609 6.4944,19.2821 17.422,20.3586 11.3475,0.048 22.6406,-4.0332 31.833,-12.9275 l 7.9232,9.4307 c -7.5877,4.4546 -6.5412,4.0295 -7.9065,4.7083 -16.173,7.2668 -26.1829,8.5383 -34.3631,8.872 -7.8956,0.322 -25.8597,-2.447 -32.0851,-7.5453 -5.5223,-4.5227 -7.1518,-7.5653 -7.1752,-7.6448 0,0 -7.9072,4.6735 -13.84,8.1287 -9.4691,5.5148 -18.6061,7.876 -25.5271,7.9538 -6.378,0.072 -10.5264,-1.1072 -13.727,-5.4691 -2.1305,-2.9035 -3.6116,-7.2556 -3.6116,-7.2556 0,0 -8.4427,5.4774 -13.3504,7.7982 -2.813,1.5425 -10.6259,4.9414 -19.1236,5.0399 -5.53,-0.7931 -9.563,-1.1967 -12.2945,-3.9591 -4.3884,-4.4379 -5.307,-12.3719 -5.2721,-16.6562 z m -171.664,15.5935 c -12.6304,-5.1499 -22.1597,-12.0402 -26.2456,-22.6024 -5.1129,-14.7914 -2.2168,-25.9675 0.3932,-33.24389 1.5193,-4.23573 3.7496,-10.22437 3.686,-10.34167 0,0 -3.1978,0.49244 -6.3746,0.21614 -4.0174,-0.34938 -7.9477,-0.45985 -10.7019,-2.6677 -7.204,-5.77501 -7.0115,-11.594 -5.0831,-17.90135 1.9805,-6.47797 13.791,-15.19654 15.0889,-15.10333 1.6503,0.11852 10.1453,0.0577 10.1453,0.0577 0,0 -5.3561,6.2553 -7.6866,10.12788 -4.9701,8.25916 -4.6933,12.92435 -1.3105,17.8424 0.8992,1.30744 6.138,3.2618 10.6189,-1.39303 2.9369,-3.05107 4.8042,-10.10461 3.2113,-15.44135 -0.4826,-4.0632 -6.5682,-3.87131 -6.5682,-3.87131 l 0.1284,-2.53399 14.4985,-2.78564 c 1.0551,-0.20272 4.8393,1.6479 6.5183,6.93012 1.0648,3.34989 0.3603,5.73363 0.3603,5.73363 0,0 11.0354,-6.1514 15.0554,-7.07681 6.8845,-2.30611 17.7108,-5.75088 35.2406,-5.5006 7.1295,0.0947 12.0924,0.27902 17.2827,0.684 l 2.512,-8.53338 14.1223,-0.26057 -12.198,52.2138 -12.9875,-0.30219 c -0.9875,-0.023 1.5176,-10.07938 -0.045,-16.1905 -0.308,-4.58117 -2.5041,-19.06275 -22.8354,-13.54208 -6.9153,2.51891 -12.4984,7.29001 -20.7128,16.84492 -8.432,10.15323 -12.3904,20.7009 -12.5493,31.4159 0.011,9.2558 1.8515,15.5233 7.7243,21.165 4.3538,4.1826 10.1468,5.7365 12.9072,5.9139 3.7375,0.2402 8.5707,-0.2185 14.8628,-2.9096 4.1812,-1.7882 10.3481,-5.7992 13.7639,-8.6787 l 7.2412,-5.686 13.591,8.729 c -7.1978,7.6716 -12.3371,11.369 -19.4661,14.5431 -9.4899,5.1009 -22.5456,6.9302 -33.1759,7.0456 -10.3016,-0.055 -12.5363,-0.7095 -21.012,-2.897 z m 79.5484,-54.42204 32.6846,-0.0526 -5.059,18.24624 -32.3954,0.07 z m 37.6052,-23.17623 1.7209,-5.86321 10.1205,-0.53112 0.7065,-2.20531 -8.9419,0.54747 1.5869,-5.99143 8.7358,-0.67132 1.3826,-4.69153 6.3113,-0.47813 -0.9416,4.48265 9.498,-0.57496 -1.978,6.10719 -8.996,0.63014 -0.6659,2.22003 10.4189,-0.6474 -1.8893,5.87507 -9.9523,0.94201 -2.0184,7.76202 -6.5322,-0.0474 1.7924,-7.22549 z m 84.1279,6.85591 9.5901,-25.97056 6.5626,0.20197 -2.2674,6.94154 c 7.3415,2.92083 7.4268,3.40682 11.0875,6.27864 l -4.7805,5.36155 c -0.8076,-0.68655 -3.7797,-3.93478 -8.6541,-5.88905 l -4.9034,13.26704 z m -54.8293,-6.79984 11.9534,-0.12246 2.888,-7.17589 -9.867,0.0821 2.016,-5.71875 16.504,-0.0639 -5.263,12.8941 4.1241,0.0217 -2.1142,5.97608 -22.3646,0.15507 z m 26.4784,-3.73005 2.0199,-5.93422 26.0251,-0.0557 -2.293,6.22306 z"
       id="path3038-1"
       inkscape:connector-curvature="0"
       sodipodi:nodetypes="ccssscsccccssccsscsssccccccccccscsscssssccccssccccccsscssscccscccscsssscsssccssscccccccscccssscscccccccccccccccccccccccccccccccccccccccccccccscccccccccc" />
  </g>
</svg>
