<?xml version="1.0" encoding="UTF-8" standalone="no"?>
<!-- Generator: Adobe Illustrator 24.0.1, SVG Export Plug-In . SVG Version: 6.00 Build 0)  -->

<svg
   version="1.1"
   id="Layer_1"
   x="0px"
   y="0px"
   viewBox="0 0 1320.6 434.4"
   style="enable-background:new 0 0 1320.6 434.4;"
   xml:space="preserve"
   sodipodi:docname="short-white.svg"
   inkscape:version="1.3.2 (091e20e, 2023-11-25, custom)"
   xmlns:inkscape="http://www.inkscape.org/namespaces/inkscape"
   xmlns:sodipodi="http://sodipodi.sourceforge.net/DTD/sodipodi-0.dtd"
   xmlns="http://www.w3.org/2000/svg"
   xmlns:svg="http://www.w3.org/2000/svg"><defs
   id="defs2" /><sodipodi:namedview
   id="namedview2"
   pagecolor="#ffffff"
   bordercolor="#000000"
   borderopacity="0.25"
   inkscape:showpageshadow="2"
   inkscape:pageopacity="0.0"
   inkscape:pagecheckerboard="0"
   inkscape:deskcolor="#d1d1d1"
   inkscape:zoom="0.92230806"
   inkscape:cx="660.29999"
   inkscape:cy="217.3894"
   inkscape:window-width="1920"
   inkscape:window-height="1094"
   inkscape:window-x="-11"
   inkscape:window-y="-11"
   inkscape:window-maximized="1"
   inkscape:current-layer="Layer_1" />
<style
   type="text/css"
   id="style1">
	.st0{fill:#FFFFFF;}
</style>
<title
   id="title1">Artboard 20</title>
<g
   id="g2"
   style="fill:#1a1a1a">
	<path
   class="st0"
   d="M255,67.8c58.8,0,91.8,24,116.4,53.4l55.2-46.8C399,35.4,348.6,0,260.4,0C191.3-0.2,124.9,27.2,76.2,76.2   C28.2,123.6,0,187.8,0,253.8c0,120,94.2,180.6,192.6,180.6c61.2,0,108.6-15.6,151.2-40.8l57-201H222l-17.4,64.2H312L286.2,345   c-21.6,12-51,21.6-88.8,21.6c-68.4,0-120-41.4-120-115.2c0-49.8,21-98.4,54.6-132C163.8,87.6,206.4,67.8,255,67.8z"
   id="path1"
   style="fill:#1a1a1a" />
	<polygon
   class="st0"
   points="868.2,7.2 688.2,205.8 615,7.2 540,7.2 427.2,427.2 501,427.2 581.4,127.2 658.8,324 661.2,324    846,126 765,427.2 840,427.2 952.8,7.2  "
   id="polygon1"
   style="fill:#1a1a1a" />
	<path
   class="st0"
   d="M1161,66.6c43.8,0,76.2,16.8,108,48l51.6-50.4c-34.2-37.8-84.6-63-154.2-63c-51.6,0-96.6,16.8-126.6,46.8   c-22.2,22.2-34.8,51.6-34.8,85.2c0,58.2,43.8,87,108,112.8c60,23.4,77.4,38.4,77.4,63.6c0,34.8-34.2,58.2-81,58.2   c-54,0-92.4-20.4-126.6-59.4L927,354.6c38.4,51,99,78.6,178.2,78.6c50.4,0,96.6-16.8,127.2-47.4c22.2-22.2,36.6-51.6,36.6-87   c0-58.8-40.2-87.6-104.4-112.8c-60.6-24-81.6-37.2-81.6-64.2C1083,93.6,1111.8,66.6,1161,66.6z"
   id="path2"
   style="fill:#1a1a1a" />
</g>
</svg>
