<?xml version="1.0" encoding="UTF-8" standalone="no"?>
<!-- Created with Inkscape (http://www.inkscape.org/) -->

<svg
   version="1.1"
   id="svg824"
   width="596"
   height="167"
   viewBox="0 0 596 167"
   sodipodi:docname="Helloproject.svg"
   inkscape:version="1.1.1 (3bf5ae0d25, 2021-09-20)"
   xmlns:inkscape="http://www.inkscape.org/namespaces/inkscape"
   xmlns:sodipodi="http://sodipodi.sourceforge.net/DTD/sodipodi-0.dtd"
   xmlns="http://www.w3.org/2000/svg"
   xmlns:svg="http://www.w3.org/2000/svg">
  <defs
     id="defs828" />
  <sodipodi:namedview
     id="namedview826"
     pagecolor="#ffffff"
     bordercolor="#666666"
     borderopacity="1.0"
     inkscape:pageshadow="2"
     inkscape:pageopacity="0.0"
     inkscape:pagecheckerboard="0"
     showgrid="false"
     inkscape:zoom="1.4874161"
     inkscape:cx="351.95262"
     inkscape:cy="166.39594"
     inkscape:window-width="2560"
     inkscape:window-height="1009"
     inkscape:window-x="-8"
     inkscape:window-y="-8"
     inkscape:window-maximized="1"
     inkscape:current-layer="layer1" />
  <g
     inkscape:groupmode="layer"
     id="layer1"
     inkscape:label="Blue">
    <rect
       style="fill:#0080cb;fill-opacity:1;stroke-width:0.999998"
       id="rect56099"
       width="596.58313"
       height="166.99997"
       x="-0.62509316"
       y="0.01070785" />
  </g>
  <g
     inkscape:groupmode="layer"
     id="layer2"
     inkscape:label="Text" />
  <g
     inkscape:groupmode="layer"
     inkscape:label="Image"
     id="g830">
    <g
       aria-label="H E L LO !  PR O J E CT"
       transform="scale(1.0051027,0.99492325)"
       id="text2324"
       style="font-size:46.6006px;line-height:1.25;letter-spacing:0px;stroke-width:0.999999">
      <path
         d="m 50.336757,63.914531 q 5.802321,0.182034 6.507701,0.182034 0.750888,0 6.530455,-0.182034 l 0.182034,0.15928 v 1.13771 L 63.374913,65.3708 q -1.57004,0.04551 -2.434699,0.136525 -0.841906,0.09102 -1.228727,0.341313 -0.386821,0.250296 -0.523347,1.183219 -0.113771,0.910168 -0.113771,2.54847 l -0.04551,5.233466 v 3.185588 q 4.98317,0.136525 9.442993,0.136525 6.098125,0 9.283713,-0.136525 v -3.185588 l -0.04551,-4.437069 Q 77.687305,67.782745 77.573534,67.031857 77.459763,66.280968 77.254975,66.030672 77.050187,65.780376 76.435824,65.621096 75.82146,65.461817 73.386761,65.3708 l -0.159279,-0.159279 v -1.13771 l 0.159279,-0.15928 q 5.825075,0.182034 6.530455,0.182034 0.773643,0 6.530456,-0.182034 l 0.182033,0.15928 v 1.13771 L 86.447672,65.3708 q -1.592794,0.04551 -2.457454,0.136525 -0.841905,0.09102 -1.228727,0.341313 -0.386821,0.250296 -0.500592,1.183219 -0.113771,0.910168 -0.136525,2.54847 l -0.04551,5.233466 v 10.535194 l 0.04551,4.437069 q 0.02275,2.571225 0.136525,3.322114 0.113771,0.750888 0.318559,1.001184 0.227542,0.250297 0.819151,0.43233 0.614363,0.15928 3.049063,0.250296 l 0.182033,0.136526 v 1.13771 l -0.182033,0.182033 q -5.825075,-0.182033 -6.530456,-0.182033 -0.728134,0 -6.530455,0.182033 l -0.159279,-0.182033 v -1.13771 l 0.159279,-0.136526 q 2.138895,-0.09102 2.844275,-0.227542 0.70538,-0.136525 0.932922,-0.341313 0.227542,-0.227542 0.386822,-0.932922 0.159279,-0.70538 0.159279,-3.140079 l 0.04551,-4.801137 V 80.16103 q -6.735243,-0.136525 -9.442992,-0.136525 -2.776013,0 -9.283714,0.136525 v 5.187957 l 0.02275,4.437069 q 0.02275,2.571225 0.136525,3.322114 0.113771,0.750888 0.318559,1.001184 0.227542,0.250297 0.841906,0.43233 0.614363,0.15928 3.026308,0.250296 l 0.182034,0.136526 v 1.13771 l -0.182034,0.182033 q -5.802321,-0.182033 -6.530455,-0.182033 -0.70538,0 -6.507701,0.182033 l -0.182034,-0.182033 v -1.13771 l 0.182034,-0.136526 q 2.11614,-0.09102 2.82152,-0.227542 0.705381,-0.136525 0.932923,-0.341313 0.250296,-0.227542 0.386821,-0.932922 0.159279,-0.70538 0.182034,-3.140079 l 0.02275,-4.801137 V 74.813793 L 54.6373,70.376724 q -0.02275,-2.593979 -0.136525,-3.344867 -0.09102,-0.750889 -0.318559,-1.001185 -0.204787,-0.250296 -0.819151,-0.409576 -0.614363,-0.159279 -3.026308,-0.250296 l -0.182034,-0.159279 v -1.13771 z"
         style="font-family:'Palatino Linotype';-inkscape-font-specification:'Palatino Linotype, Normal';fill:#ffffff"
         id="path57956" />
      <path
         d="m 101.07862,64.073811 0.18203,-0.15928 q 7.8047,0.136525 9.9891,0.136525 7.46338,0 13.28845,-0.136525 l 0.11377,0.15928 q -0.56885,2.184403 -0.8419,6.849014 l -0.13653,0.182033 h -1.11495 l -0.20479,-0.182033 q 0.0227,-0.204788 0.0227,-0.364067 0,-1.934107 -0.2958,-3.686181 -1.43352,-0.637117 -3.98199,-0.819151 -2.52571,-0.204788 -3.79995,-0.204788 -1.79758,0 -4.59635,0.250296 l -0.091,3.640672 -0.0683,4.164019 -0.0683,4.619102 q 2.45745,0.136526 4.52809,0.136526 2.09338,0 3.50414,-0.136526 1.41076,-0.136525 1.63831,-0.27305 0.25029,-0.159279 0.36406,-0.568855 0.13653,-0.43233 0.22754,-1.501777 l 0.091,-1.410761 0.18204,-0.182033 h 1.04669 l 0.18203,0.182033 q -0.0455,2.480208 -0.11377,4.98317 l 0.11377,5.119695 -0.18203,0.182034 h -1.04669 l -0.18204,-0.182034 -0.15928,-1.365252 q -0.20479,-1.592794 -0.2958,-1.888598 -0.091,-0.318559 -0.43233,-0.546101 -0.31856,-0.227542 -1.68381,-0.364067 -1.36525,-0.136526 -3.75445,-0.136526 -1.31974,0 -4.02749,0.113771 -0.11377,1.911353 -0.11377,6.371176 0,4.778382 0.11377,7.031048 h 4.18677 q 5.52927,0 6.91728,-0.136525 1.38801,-0.136525 2.63949,-0.659872 0.20479,-0.523346 0.65987,-2.411945 0.47784,-1.911353 0.5461,-2.389191 l 0.22754,-0.159279 h 1.0922 l 0.18204,0.159279 q -0.20479,0.978431 -0.40958,3.41313 -0.18203,2.434699 -0.18203,4.164019 l -0.15928,0.182033 q -4.34605,-0.136525 -11.3771,-0.136525 l -6.18914,-0.04551 q -2.16165,0 -4.50534,0.182033 l -0.18203,-0.182033 v -0.750889 l 0.18203,-0.227542 q 1.3425,-0.682626 1.52454,-0.841905 0.20478,-0.182034 0.31855,-3.981985 0.13653,-3.822706 0.13653,-5.825076 v -8.350791 l -0.0228,-5.165203 q 0,-1.683811 -0.0455,-2.730504 -0.0455,-1.069448 -0.15928,-1.524532 -0.11377,-0.455084 -0.27305,-0.637117 -0.13653,-0.182034 -0.47784,-0.295805 -0.31856,-0.136525 -1.11496,-0.227542 l -1.72932,-0.136525 -0.18203,-0.159279 z m 12.99265,-1.843091 z m -0.091,35.200748 z"
         style="font-family:'Palatino Linotype';-inkscape-font-specification:'Palatino Linotype, Normal';fill:#ffffff"
         id="path57958" />
      <path
         d="m 140.37512,64.073811 0.18203,-0.15928 q 5.64305,0.182034 6.5077,0.182034 0.77365,0 6.53046,-0.182034 l 0.18203,0.15928 v 1.13771 l -0.18203,0.159279 q -1.57004,0.04551 -2.4347,0.136525 -0.8419,0.09102 -1.22873,0.341313 -0.38682,0.250296 -0.52334,1.183219 -0.11377,0.910168 -0.11377,2.54847 l -0.0455,5.233466 v 10.057356 q 0,3.777197 0.0455,5.278975 l 0.11377,3.936476 h 4.64185 q 5.55203,0 6.91728,-0.136525 1.38801,-0.136525 2.66224,-0.659872 0.2503,-0.568855 0.70538,-2.616733 0.47784,-2.047878 0.50059,-2.366437 L 165.04067,88.125 h 1.11496 l 0.15928,0.182033 q -0.18204,0.910168 -0.38682,3.526901 -0.18204,2.616733 -0.18204,4.232282 l -0.18203,0.182033 q -4.3233,-0.136525 -11.35435,-0.136525 l -6.64422,-0.04551 q -2.27542,0 -4.64186,0.182033 l -0.18203,-0.182033 v -0.750889 l 0.18203,-0.227542 q 1.41076,-0.728134 1.54729,-0.887414 0.13652,-0.159279 0.27305,-2.935292 0.15928,-2.776012 0.15928,-6.689734 v -9.761552 l -0.0455,-4.437069 q -0.0228,-2.593979 -0.13653,-3.344867 -0.091,-0.750889 -0.31856,-1.001185 -0.20478,-0.250296 -0.81915,-0.409576 -0.61436,-0.159279 -3.02631,-0.250296 l -0.18203,-0.159279 z"
         style="font-family:'Palatino Linotype';-inkscape-font-specification:'Palatino Linotype, Normal';fill:#ffffff"
         id="path57960" />
      <path
         d="m 180.49078,64.073811 0.18204,-0.15928 q 5.64304,0.182034 6.5077,0.182034 0.77364,0 6.53045,-0.182034 l 0.18204,0.15928 v 1.13771 l -0.18204,0.159279 q -1.57004,0.04551 -2.4347,0.136525 -0.8419,0.09102 -1.22872,0.341313 -0.38683,0.250296 -0.52335,1.183219 -0.11377,0.910168 -0.11377,2.54847 l -0.0455,5.233466 v 10.057356 q 0,3.777197 0.0455,5.278975 l 0.11377,3.936476 h 4.64186 q 5.55202,0 6.91727,-0.136525 1.38801,-0.136525 2.66224,-0.659872 0.2503,-0.568855 0.70538,-2.616733 0.47784,-2.047878 0.5006,-2.366437 L 205.15633,88.125 h 1.11496 l 0.15928,0.182033 q -0.18203,0.910168 -0.38682,3.526901 -0.18204,2.616733 -0.18204,4.232282 l -0.18203,0.182033 q -4.3233,-0.136525 -11.35434,-0.136525 l -6.64423,-0.04551 q -2.27542,0 -4.64186,0.182033 l -0.18203,-0.182033 v -0.750889 l 0.18203,-0.227542 q 1.41076,-0.728134 1.54729,-0.887414 0.13652,-0.159279 0.27305,-2.935292 0.15928,-2.776012 0.15928,-6.689734 v -9.761552 l -0.0455,-4.437069 q -0.0228,-2.593979 -0.13653,-3.344867 -0.091,-0.750889 -0.31856,-1.001185 -0.20478,-0.250296 -0.81915,-0.409576 -0.61436,-0.159279 -3.0263,-0.250296 l -0.18204,-0.159279 z"
         style="font-family:'Palatino Linotype';-inkscape-font-specification:'Palatino Linotype, Normal';fill:#ffffff"
         id="path57962" />
      <path
         d="m 209.20658,80.388572 q 0,-3.41313 0.97843,-6.371176 0.97843,-2.958046 3.32211,-5.461008 2.36644,-2.525716 5.68855,-3.890968 3.32211,-1.388006 7.50889,-1.388006 7.75918,0 12.35553,4.232281 4.59635,4.209527 4.59635,11.513625 0,5.142449 -2.25267,9.238205 -2.25267,4.095756 -6.46219,6.371176 -4.18678,2.27542 -9.42024,2.27542 -3.70894,0 -6.82626,-1.228727 -3.11733,-1.251481 -5.32448,-3.708934 -2.18441,-2.457454 -3.18559,-5.68855 -0.97843,-3.231097 -0.97843,-5.893338 z m 4.73287,-1.501777 q 0,2.776012 0.88742,5.984354 0.91016,3.185588 2.68499,5.483762 1.79758,2.27542 4.11851,3.390376 2.34368,1.114956 5.32448,1.114956 3.5269,0 6.28016,-1.615548 2.75326,-1.615548 4.18678,-5.005924 1.43351,-3.41313 1.43351,-7.645411 0,-4.596349 -1.6383,-8.305283 -1.6383,-3.708935 -4.66461,-5.392746 -3.02631,-1.68381 -6.71249,-1.68381 -5.52927,0 -8.71486,3.458638 -3.18559,3.458638 -3.18559,10.216636 z M 226.09019,62.23072 Z m 0.11377,35.200748 z"
         style="font-family:'Palatino Linotype';-inkscape-font-specification:'Palatino Linotype, Normal';fill:#ffffff"
         id="path57964" />
      <path
         d="m 265.02263,63.573218 v 2.411945 q 0,0.136526 -0.5006,5.324483 -0.75088,7.645411 -1.27423,14.79023 l -1.25148,1.13771 -0.43233,-0.227542 q -0.18204,-4.573594 -1.06945,-13.49324 l -0.45508,-5.14245 q -0.091,-1.41076 -0.091,-2.9808 1.84309,-0.864659 3.54965,-1.820336 z m -2.685,27.464319 q 1.0922,0 1.8886,0.773643 0.81915,0.773643 0.81915,1.956861 0,1.114956 -0.7964,1.911353 -0.79639,0.796397 -1.91135,0.796397 -1.13771,0 -1.93411,-0.796397 -0.79639,-0.796397 -0.79639,-1.911353 0,-1.13771 0.79639,-1.934107 0.7964,-0.796397 1.93411,-0.796397 z"
         style="font-family:'Palatino Linotype';-inkscape-font-specification:'Palatino Linotype, Normal';fill:#ffffff"
         id="path57966" />
      <path
         d="m 293.98873,63.914531 q 5.73406,0.182034 7.3041,0.182034 2.1389,0 4.80114,-0.113771 2.82152,-0.09102 3.48139,-0.09102 3.18559,0 5.25622,0.659872 2.09339,0.659872 3.45864,2.411945 1.36525,1.752073 1.36525,4.232281 0,2.047878 -0.95567,3.959231 -0.95568,1.911353 -2.66225,3.25385 -1.70656,1.342498 -3.45863,1.934107 -1.75208,0.568855 -3.64068,0.568855 -1.41076,0 -3.14008,-0.318558 l -0.38682,-1.388007 0.20479,-0.227542 q 1.70657,0.386822 2.77601,0.386822 2.9808,0 4.77838,-1.956861 1.82034,-1.979616 1.82034,-5.051433 0,-3.094571 -1.8886,-4.937661 -1.86584,-1.84309 -5.66579,-1.84309 -2.07064,0 -4.55084,0.773643 -0.20479,1.752073 -0.20479,8.464562 v 10.535194 l 0.0228,4.437069 q 0.0228,2.571225 0.13653,3.322114 0.11377,0.750888 0.31856,1.001184 0.22754,0.250297 0.8419,0.43233 0.61437,0.15928 3.02631,0.250296 l 0.18203,0.136526 v 1.13771 l -0.18203,0.182033 q -5.80232,-0.182033 -6.53045,-0.182033 -0.77365,0 -6.50771,0.182033 l -0.18203,-0.182033 v -1.13771 l 0.18203,-0.136526 q 2.11614,-0.09102 2.82152,-0.227542 0.70539,-0.136525 0.93293,-0.341313 0.25029,-0.227542 0.38682,-0.932922 0.15928,-0.70538 0.18203,-3.140079 l 0.0228,-4.801137 V 74.813793 l -0.0455,-4.437069 q -0.0228,-2.593979 -0.13653,-3.344867 -0.091,-0.750889 -0.31856,-1.001185 -0.20478,-0.250296 -0.81915,-0.409576 -0.61436,-0.159279 -3.02631,-0.250296 l -0.18203,-0.159279 v -1.13771 z"
         style="font-family:'Palatino Linotype';-inkscape-font-specification:'Palatino Linotype, Normal';fill:#ffffff"
         id="path57968" />
      <path
         d="m 321.74885,64.073811 0.18204,-0.15928 q 4.16402,0.182034 6.48495,0.182034 2.57122,0 6.94003,-0.15928 1.61554,-0.04551 2.34368,-0.04551 5.75681,0 7.80469,2.093386 2.04788,2.093387 2.04788,4.960416 0,1.911353 -1.00119,3.754443 -1.00118,1.84309 -2.95804,3.162834 -1.95686,1.296989 -5.39275,1.956861 0.63712,0.887414 2.29818,3.071817 l 3.23109,4.277789 q 1.57004,2.116141 3.36762,4.482578 1.79759,2.343682 2.32093,2.662241 0.52335,0.295805 0.88742,0.364067 0.38682,0.06826 1.20597,0.06826 l 0.18203,0.182034 v 1.069447 l -0.20479,0.204788 q -1.0922,-0.136525 -2.59397,-0.136525 -1.61555,0 -3.52691,0.136525 -1.57004,-1.911353 -4.93766,-6.621472 -3.91372,-5.461008 -8.00948,-10.125619 l 0.22755,-0.705381 q 1.18322,0.06826 1.84309,0.06826 3.93647,0 6.16638,-1.888599 2.22992,-1.888598 2.22992,-5.233465 0,-3.003555 -2.00237,-4.528086 -2.00237,-1.547286 -5.4155,-1.547286 -2.38919,0 -4.50533,0.659872 -0.34132,0.500592 -0.34132,8.532825 v 10.535194 l 0.0228,4.437069 q 0.0227,2.571225 0.13652,3.322114 0.11377,0.750888 0.31856,1.001184 0.22754,0.250297 0.84191,0.43233 0.61436,0.15928 3.02631,0.250296 l 0.18203,0.136526 v 1.13771 l -0.18203,0.182033 q -0.11378,0 -4.00474,-0.136525 -1.61555,-0.04551 -2.52572,-0.04551 -0.70538,0 -6.5077,0.182033 l -0.18204,-0.182033 v -1.13771 l 0.18204,-0.136526 q 2.11614,-0.09102 2.82152,-0.227542 0.70538,-0.136525 0.93292,-0.341313 0.2503,-0.227542 0.38682,-0.932922 0.15928,-0.70538 0.18204,-3.140079 l 0.0228,-4.801137 V 74.813793 l -0.0455,-4.437069 q -0.0227,-2.593979 -0.13652,-3.344867 -0.091,-0.750889 -0.31856,-1.001185 -0.20479,-0.250296 -0.81915,-0.409576 -0.61437,-0.159279 -3.02631,-0.250296 l -0.18204,-0.159279 z"
         style="font-family:'Palatino Linotype';-inkscape-font-specification:'Palatino Linotype, Normal';fill:#ffffff"
         id="path57970" />
      <path
         d="m 364.66327,80.388572 q 0,-3.41313 0.97843,-6.371176 0.97843,-2.958046 3.32212,-5.461008 2.36643,-2.525716 5.68855,-3.890968 3.32211,-1.388006 7.50888,-1.388006 7.75918,0 12.35553,4.232281 4.59635,4.209527 4.59635,11.513625 0,5.142449 -2.25266,9.238205 -2.25267,4.095756 -6.4622,6.371176 -4.18677,2.27542 -9.42024,2.27542 -3.70893,0 -6.82626,-1.228727 -3.11732,-1.251481 -5.32448,-3.708934 -2.1844,-2.457454 -3.18559,-5.68855 -0.97843,-3.231097 -0.97843,-5.893338 z m 4.73288,-1.501777 q 0,2.776012 0.88741,5.984354 0.91017,3.185588 2.685,5.483762 1.79758,2.27542 4.11851,3.390376 2.34368,1.114956 5.32448,1.114956 3.5269,0 6.28016,-1.615548 2.75326,-1.615548 4.18677,-5.005924 1.43352,-3.41313 1.43352,-7.645411 0,-4.596349 -1.63831,-8.305283 -1.6383,-3.708935 -4.66461,-5.392746 -3.02631,-1.68381 -6.71249,-1.68381 -5.52927,0 -8.71486,3.458638 -3.18558,3.458638 -3.18558,10.216636 z M 381.54689,62.23072 Z m 0.11377,35.200748 z"
         style="font-family:'Palatino Linotype';-inkscape-font-specification:'Palatino Linotype, Normal';fill:#ffffff"
         id="path57972" />
      <path
         d="m 426.30441,64.073811 v 1.13771 l -0.15928,0.159279 q -1.59279,0.04551 -2.45745,0.136525 -0.84191,0.09102 -1.22873,0.341313 -0.38682,0.250296 -0.52334,1.183219 -0.11378,0.910168 -0.11378,2.54847 l -0.0455,5.233466 v 16.337515 q 0,3.595164 -0.63712,5.870584 -0.63712,2.298174 -2.22991,4.232278 -1.5928,1.95686 -3.29936,2.88979 -1.68381,0.95567 -3.34487,0.95567 -0.47784,0 -0.95568,-0.11377 0.0455,-0.91017 0.0683,-1.82033 0,-0.56886 -0.0683,-1.68381 l 0.43233,-0.29581 q 1.16047,0.86466 2.4347,0.86466 1.11496,0 1.82034,-0.43233 0.72813,-0.40958 1.02394,-1.13771 0.2958,-0.70538 0.36407,-2.616733 0.0683,-1.911352 0.0683,-3.276604 v -19.7734 l -0.0455,-4.437069 q -0.0227,-2.593979 -0.13652,-3.344867 -0.11378,-0.750889 -0.34132,-1.001185 -0.20479,-0.250296 -0.81915,-0.409576 -0.59161,-0.159279 -3.02631,-0.250296 l -0.15928,-0.159279 v -1.13771 l 0.15928,-0.15928 q 5.75681,0.182034 6.53046,0.182034 0.79639,0 6.53045,-0.182034 z"
         style="font-family:'Palatino Linotype';-inkscape-font-specification:'Palatino Linotype, Normal';fill:#ffffff"
         id="path57974" />
      <path
         d="m 440.68504,64.073811 0.18203,-0.15928 q 7.80469,0.136525 9.9891,0.136525 7.46337,0 13.28845,-0.136525 l 0.11377,0.15928 q -0.56885,2.184403 -0.8419,6.849014 l -0.13653,0.182033 H 462.165 l -0.20478,-0.182033 q 0.0228,-0.204788 0.0228,-0.364067 0,-1.934107 -0.2958,-3.686181 -1.43352,-0.637117 -3.98199,-0.819151 -2.52572,-0.204788 -3.79995,-0.204788 -1.79758,0 -4.59635,0.250296 l -0.091,3.640672 -0.0683,4.164019 -0.0683,4.619102 q 2.45745,0.136526 4.52809,0.136526 2.09338,0 3.50414,-0.136526 1.41076,-0.136525 1.6383,-0.27305 0.2503,-0.159279 0.36407,-0.568855 0.13653,-0.43233 0.22754,-1.501777 l 0.091,-1.410761 0.18203,-0.182033 h 1.0467 l 0.18203,0.182033 q -0.0455,2.480208 -0.11377,4.98317 l 0.11377,5.119695 -0.18203,0.182034 h -1.0467 l -0.18203,-0.182034 -0.15928,-1.365252 q -0.20479,-1.592794 -0.2958,-1.888598 -0.091,-0.318559 -0.43233,-0.546101 -0.31856,-0.227542 -1.68381,-0.364067 -1.36526,-0.136526 -3.75445,-0.136526 -1.31974,0 -4.02749,0.113771 -0.11377,1.911353 -0.11377,6.371176 0,4.778382 0.11377,7.031048 h 4.18677 q 5.52927,0 6.91728,-0.136525 1.38801,-0.136525 2.63949,-0.659872 0.20478,-0.523346 0.65987,-2.411945 0.47784,-1.911353 0.5461,-2.389191 l 0.22754,-0.159279 h 1.0922 l 0.18204,0.159279 q -0.20479,0.978431 -0.40958,3.41313 -0.18203,2.434699 -0.18203,4.164019 l -0.15928,0.182033 q -4.34605,-0.136525 -11.3771,-0.136525 l -6.18915,-0.04551 q -2.16164,0 -4.50533,0.182033 l -0.18203,-0.182033 v -0.750889 l 0.18203,-0.227542 q 1.3425,-0.682626 1.52453,-0.841905 0.20479,-0.182034 0.31856,-3.981985 0.13653,-3.822706 0.13653,-5.825076 v -8.350791 l -0.0228,-5.165203 q 0,-1.683811 -0.0455,-2.730504 -0.0455,-1.069448 -0.15928,-1.524532 -0.11377,-0.455084 -0.27305,-0.637117 -0.13653,-0.182034 -0.47784,-0.295805 -0.31856,-0.136525 -1.11496,-0.227542 l -1.72932,-0.136525 -0.18203,-0.159279 z m 12.99265,-1.843091 z m -0.091,35.200748 z"
         style="font-family:'Palatino Linotype';-inkscape-font-specification:'Palatino Linotype, Normal';fill:#ffffff"
         id="path57976" />
      <path
         d="m 510.88175,92.220756 -0.86466,2.11614 q -5.05143,2.571225 -10.78549,2.571225 -8.21426,0 -13.35671,-4.664611 -5.1197,-4.664611 -5.1197,-12.196251 0,-5.187958 2.54847,-9.056172 2.57123,-3.890968 6.758,-5.802321 4.20953,-1.934107 9.44299,-1.934107 3.02631,0 5.98436,0.637118 2.95804,0.637118 4.93766,1.524531 l 0.15928,0.227542 q -0.52335,1.274236 -0.97843,6.302914 l -0.15928,0.182033 h -1.06945 l -0.18203,-0.182033 -0.22754,-3.868214 q -1.66106,-1.319744 -4.0275,-2.047878 -2.34368,-0.750889 -4.89215,-0.750889 -3.84546,0 -6.89452,1.661057 -3.04907,1.638302 -4.73288,4.778382 -1.68381,3.117325 -1.68381,7.645411 0,4.55084 1.97962,7.986724 1.97961,3.435884 5.39274,5.278974 3.43589,1.843091 8.00948,1.843091 2.02513,0 3.89097,-0.386822 1.86584,-0.386821 3.09457,-0.955676 1.25148,-0.568855 2.38919,-1.388006 z"
         style="font-family:'Palatino Linotype';-inkscape-font-specification:'Palatino Linotype, Normal';fill:#ffffff"
         id="path57978" />
      <path
         d="m 539.64306,63.914531 0.20478,0.204788 q -0.20478,2.047878 -0.20478,7.144819 l -0.18204,0.182033 h -1.06944 l -0.18204,-0.204787 -0.25029,-2.093387 q -0.18204,-1.683811 -0.29581,-2.047878 -0.091,-0.386821 -0.31856,-0.546101 -0.22754,-0.182033 -1.47902,-0.295804 -1.25148,-0.113771 -2.79877,-0.113771 h -4.30054 q -0.18203,5.142449 -0.18203,5.938846 v 13.265698 l 0.0455,4.437069 q 0.0228,2.571225 0.11378,3.344868 0.11377,0.750888 0.31855,1.001185 0.22755,0.227542 0.84191,0.409575 0.61436,0.15928 3.04906,0.250296 l 0.15928,0.136526 v 1.13771 l -0.15928,0.182033 q -5.82507,-0.182033 -6.5077,-0.182033 -0.72813,0 -6.48495,0.182033 l -0.18203,-0.182033 v -1.13771 l 0.18203,-0.136526 q 2.1389,-0.09102 2.82152,-0.227542 0.70538,-0.136525 0.93293,-0.341313 0.25029,-0.227542 0.40957,-0.932922 0.15928,-0.70538 0.15928,-3.140079 l 0.0455,-4.801137 V 72.083289 q 0,-0.364067 -0.18203,-5.938846 h -3.39038 q -2.09339,0 -3.61792,0.09102 -1.52453,0.09102 -1.77482,0.477838 -0.22755,0.364067 -0.43233,2.434699 l -0.22755,2.093387 -0.20478,0.204787 h -1.0467 l -0.18203,-0.182033 q -0.0455,-5.483762 -0.20479,-7.144819 l 0.20479,-0.204788 q 3.95923,0.182034 13.17468,0.182034 9.39749,0 13.19744,-0.182034 z"
         style="font-family:'Palatino Linotype';-inkscape-font-specification:'Palatino Linotype, Normal';fill:#ffffff"
         id="path57980" />
    </g>
    <g
       aria-label="SINCE 1998"
       transform="scale(1.0476058,0.95455753)"
       id="text52629"
       style="font-size:27.6356px;line-height:1.25;stroke-width:0.999997">
      <path
         d="m 224.50988,126.96281 v 6.32866 h -0.49928 q -0.24289,-1.82168 -0.8771,-2.9012 -0.62072,-1.07952 -1.7812,-1.71373 -1.16048,-0.63422 -2.40193,-0.63422 -1.40337,0 -2.32095,0.86362 -0.91759,0.85011 -0.91759,1.94312 0,0.83663 0.58024,1.52482 0.83662,1.01205 3.98071,2.69879 2.56385,1.37638 3.49493,2.11855 0.94458,0.72867 1.44385,1.72722 0.51277,0.99855 0.51277,2.09156 0,2.07807 -1.61927,3.58939 -1.60578,1.49783 -4.14264,1.49783 -0.79614,0 -1.49783,-0.12144 -0.41831,-0.0675 -1.74072,-0.48579 -1.30891,-0.4318 -1.65975,-0.4318 -0.33735,0 -0.53976,0.20241 -0.18891,0.20241 -0.28337,0.83662 h -0.49928 v -6.27468 h 0.49928 q 0.35084,1.97011 0.94457,2.95517 0.59374,0.97157 1.80819,1.61927 1.22795,0.64771 2.6853,0.64771 1.68674,0 2.6583,-0.8906 0.98506,-0.8906 0.98506,-2.10505 0,-0.6747 -0.37783,-1.36289 -0.36433,-0.68819 -1.14698,-1.28193 -0.52627,-0.40481 -2.87421,-1.71373 -2.34795,-1.3224 -3.3465,-2.10505 -0.98506,-0.78265 -1.49783,-1.72723 -0.51277,-0.94457 -0.51277,-2.07806 0,-1.97012 1.51132,-3.38698 1.51132,-1.43036 3.84578,-1.43036 1.45734,0 3.09011,0.71518 0.75566,0.33735 1.06602,0.33735 0.35084,0 0.56675,-0.20241 0.22939,-0.21591 0.36433,-0.85012 z"
         style="font-family:serif;-inkscape-font-specification:'serif, Normal';fill:#ffffff"
         id="path58001" />
      <path
         d="m 235.73684,145.17963 v 0.49928 h -7.83998 v -0.49928 h 0.64771 q 1.13349,0 1.64626,-0.6612 0.32386,-0.43181 0.32386,-2.07807 v -11.82069 q 0,-1.38988 -0.17543,-1.83518 -0.13494,-0.33735 -0.55325,-0.58024 -0.59373,-0.32385 -1.24144,-0.32385 h -0.64771 v -0.49928 h 7.83998 v 0.49928 h -0.6612 q -1.12,0 -1.63277,0.6612 -0.33735,0.43181 -0.33735,2.07807 v 11.82069 q 0,1.38988 0.17542,1.83518 0.13494,0.33735 0.56675,0.58024 0.58024,0.32385 1.22795,0.32385 z"
         style="font-family:serif;-inkscape-font-specification:'serif, Normal';fill:#ffffff"
         id="path58003" />
      <path
         d="m 236.0472,127.38112 h 4.96577 l 11.18648,13.72334 V 130.5522 q 0,-1.68675 -0.37783,-2.10506 -0.49927,-0.56674 -1.57879,-0.56674 h -0.63421 v -0.49928 h 6.36914 v 0.49928 h -0.64771 q -1.16048,0 -1.64626,0.70168 -0.29687,0.43181 -0.29687,1.97012 v 15.42358 h -0.48578 l -12.06359,-14.73539 v 11.26744 q 0,1.68675 0.36434,2.10506 0.51277,0.56674 1.57879,0.56674 h 0.64771 v 0.49928 h -6.36914 v -0.49928 h 0.63421 q 1.17398,0 1.65976,-0.70168 0.29687,-0.43181 0.29687,-1.97012 v -12.72479 q -0.79615,-0.93108 -1.21446,-1.22795 -0.40482,-0.29686 -1.20096,-0.55325 -0.39132,-0.12144 -1.18747,-0.12144 z"
         style="font-family:serif;-inkscape-font-specification:'serif, Normal';fill:#ffffff"
         id="path58005" />
      <path
         d="m 273.00712,126.96281 0.41831,6.22071 h -0.41831 q -0.83663,-2.79325 -2.38843,-4.0212 -1.5518,-1.22795 -3.72433,-1.22795 -1.82168,0 -3.29252,0.93108 -1.47084,0.91759 -2.32096,2.94168 -0.83663,2.0241 -0.83663,5.03325 0,2.48288 0.79615,4.30456 0.79614,1.82169 2.38843,2.79325 1.60578,0.97156 3.65685,0.97156 1.78121,0 3.14409,-0.75566 1.36289,-0.76915 2.99566,-3.03613 l 0.41831,0.26987 q -1.37638,2.44241 -3.21156,3.5759 -1.83517,1.13349 -4.35854,1.13349 -4.54746,0 -7.04384,-3.37348 -1.86216,-2.50988 -1.86216,-5.91035 0,-2.73927 1.22794,-5.03324 1.22795,-2.29397 3.37349,-3.54891 2.15903,-1.26843 4.70939,-1.26843 1.98361,0 3.91324,0.97156 0.56675,0.29687 0.80964,0.29687 0.36433,0 0.63421,-0.25639 0.35085,-0.36433 0.49928,-1.01204 z"
         style="font-family:serif;-inkscape-font-specification:'serif, Normal';fill:#ffffff"
         id="path58007" />
      <path
         d="m 280.57722,128.37967 v 7.23276 h 4.0212 q 1.56529,0 2.09156,-0.47229 0.70168,-0.62072 0.78265,-2.18602 h 0.49927 v 6.36914 h -0.49927 q -0.18892,-1.3359 -0.37783,-1.71373 -0.2429,-0.47229 -0.79615,-0.74217 -0.55325,-0.26988 -1.70023,-0.26988 h -4.0212 v 6.0318 q 0,1.21445 0.10795,1.48433 0.10795,0.25639 0.37783,0.41831 0.26988,0.14844 1.02554,0.14844 h 3.10361 q 1.5518,0 2.25349,-0.21591 0.70168,-0.2159 1.34939,-0.85011 0.83663,-0.83663 1.71373,-2.52337 h 0.53976 l -1.57879,4.58794 h -14.10117 v -0.49928 h 0.64771 q 0.64771,0 1.22795,-0.31036 0.4318,-0.2159 0.58023,-0.64771 0.16193,-0.4318 0.16193,-1.7677 v -11.88817 q 0,-1.74072 -0.35084,-2.14554 -0.48578,-0.53975 -1.61927,-0.53975 h -0.64771 v -0.49928 h 14.10117 l 0.20241,4.0077 h -0.52627 q -0.28337,-1.44385 -0.63421,-1.98361 -0.33735,-0.53976 -1.01205,-0.82313 -0.53975,-0.20241 -1.90264,-0.20241 z"
         style="font-family:serif;-inkscape-font-specification:'serif, Normal';fill:#ffffff"
         id="path58009" />
      <path
         d="m 301.83018,129.17581 4.45301,-2.17252 h 0.4453 v 15.45057 q 0,1.53831 0.12144,1.91614 0.13494,0.37783 0.53976,0.58024 0.40482,0.20241 1.64626,0.22939 v 0.49928 h -6.88191 v -0.49928 q 1.29542,-0.027 1.67325,-0.2159 0.37783,-0.20241 0.52626,-0.52626 0.14843,-0.33735 0.14843,-1.98361 v -9.87757 q 0,-1.99711 -0.13493,-2.56385 -0.0945,-0.43181 -0.35085,-0.63422 -0.24289,-0.20241 -0.59373,-0.20241 -0.49928,0 -1.38988,0.41832 z"
         style="font-family:serif;-inkscape-font-specification:'serif, Normal';fill:#ffffff"
         id="path58011" />
      <path
         d="m 313.86678,146.05674 v -0.49928 q 1.75421,-0.027 3.26553,-0.80963 1.51132,-0.79615 2.91469,-2.76626 1.41687,-1.97012 1.97012,-4.33156 -2.11855,1.36289 -3.83228,1.36289 -1.92963,0 -3.30602,-1.48433 -1.37638,-1.49783 -1.37638,-3.96722 0,-2.40193 1.37638,-4.27758 1.65976,-2.28048 4.33156,-2.28048 2.25349,0 3.85927,1.86216 1.97011,2.30747 1.97011,5.69445 0,3.04963 -1.49782,5.69444 -1.49783,2.63132 -4.16963,4.37204 -2.17253,1.43036 -4.73638,1.43036 z m 8.36624,-9.40528 q 0.24289,-1.75421 0.24289,-2.80674 0,-1.30891 -0.4453,-2.82023 -0.4453,-1.52482 -1.26843,-2.33446 -0.80963,-0.80963 -1.84867,-0.80963 -1.20096,0 -2.10505,1.07951 -0.9041,1.07952 -0.9041,3.21156 0,2.84722 1.20096,4.453 0.87711,1.16048 2.15904,1.16048 0.62072,0 1.47084,-0.29687 0.85011,-0.29686 1.49782,-0.83662 z"
         style="font-family:serif;-inkscape-font-specification:'serif, Normal';fill:#ffffff"
         id="path58013" />
      <path
         d="m 327.68458,146.05674 v -0.49928 q 1.75421,-0.027 3.26553,-0.80963 1.51133,-0.79615 2.9147,-2.76626 1.41686,-1.97012 1.97011,-4.33156 -2.11855,1.36289 -3.83228,1.36289 -1.92963,0 -3.30601,-1.48433 -1.37639,-1.49783 -1.37639,-3.96722 0,-2.40193 1.37639,-4.27758 1.65975,-2.28048 4.33155,-2.28048 2.25349,0 3.85927,1.86216 1.97012,2.30747 1.97012,5.69445 0,3.04963 -1.49783,5.69444 -1.49783,2.63132 -4.16963,4.37204 -2.17253,1.43036 -4.73638,1.43036 z m 8.36625,-9.40528 q 0.24289,-1.75421 0.24289,-2.80674 0,-1.30891 -0.4453,-2.82023 -0.4453,-1.52482 -1.26843,-2.33446 -0.80964,-0.80963 -1.84867,-0.80963 -1.20097,0 -2.10506,1.07951 -0.90409,1.07952 -0.90409,3.21156 0,2.84722 1.20096,4.453 0.8771,1.16048 2.15903,1.16048 0.62072,0 1.47084,-0.29687 0.85012,-0.29686 1.49783,-0.83662 z"
         style="font-family:serif;-inkscape-font-specification:'serif, Normal';fill:#ffffff"
         id="path58015" />
      <path
         d="m 345.34815,136.46254 q -2.17253,-1.7812 -2.80674,-2.86071 -0.62072,-1.07952 -0.62072,-2.24 0,-1.7812 1.37638,-3.06312 1.37638,-1.29542 3.65686,-1.29542 2.21301,0 3.5624,1.20096 1.34939,1.20096 1.34939,2.73927 0,1.02554 -0.72867,2.09156 -0.72867,1.06602 -3.03614,2.50988 2.37494,1.83517 3.14409,2.8877 1.02554,1.37638 1.02554,2.9012 0,1.92963 -1.47084,3.30602 -1.47084,1.36288 -3.85927,1.36288 -2.60433,0 -4.06167,-1.63276 -1.16048,-1.30892 -1.16048,-2.86072 0,-1.21445 0.80963,-2.40192 0.82314,-1.20096 2.82024,-2.64482 z m 2.11855,-1.44385 q 1.61927,-1.45734 2.05108,-2.29397 0.4318,-0.85012 0.4318,-1.91614 0,-1.41686 -0.79614,-2.213 -0.79614,-0.80964 -2.17252,-0.80964 -1.37639,0 -2.24,0.79614 -0.86361,0.79614 -0.86361,1.86217 0,0.70168 0.35084,1.40337 0.36434,0.70168 1.02554,1.3359 z m -1.48434,1.95662 q -1.11999,0.94458 -1.65975,2.06458 -0.53976,1.1065 -0.53976,2.40192 0,1.74072 0.94458,2.79325 0.95807,1.03903 2.42891,1.03903 1.45734,0 2.33445,-0.82313 0.87711,-0.82313 0.87711,-1.9971 0,-0.97157 -0.51277,-1.74072 -0.95807,-1.43036 -3.87277,-3.73783 z"
         style="font-family:serif;-inkscape-font-specification:'serif, Normal';fill:#ffffff"
         id="path58017" />
    </g>
  </g>
</svg>
