<?xml version="1.0" encoding="UTF-8" standalone="no"?>
<svg
   version="1.1"
   id="Layer_2"
   x="0px"
   y="0px"
   width="999.99994"
   height="519.32825"
   viewBox="0 0 999.99994 519.32824"
   xml:space="preserve"
   sodipodi:docname="Insert logo.svg"
   inkscape:version="1.1.1 (3bf5ae0d25, 2021-09-20)"
   xmlns:inkscape="http://www.inkscape.org/namespaces/inkscape"
   xmlns:sodipodi="http://sodipodi.sourceforge.net/DTD/sodipodi-0.dtd"
   xmlns="http://www.w3.org/2000/svg"
   xmlns:svg="http://www.w3.org/2000/svg"
   xmlns:rdf="http://www.w3.org/1999/02/22-rdf-syntax-ns#"
   xmlns:cc="http://creativecommons.org/ns#"
   xmlns:dc="http://purl.org/dc/elements/1.1/"><metadata
   id="metadata91"><rdf:RDF><cc:Work
       rdf:about=""><dc:format>image/svg+xml</dc:format><dc:type
         rdf:resource="http://purl.org/dc/dcmitype/StillImage" /></cc:Work></rdf:RDF></metadata><defs
   id="defs89"><linearGradient
     id="SVGID_1_"
     gradientUnits="userSpaceOnUse"
     x1="12.6028"
     y1="11.1342"
     x2="37.808601"
     y2="11.1342"><stop
       offset="0.1953"
       style="stop-color:#c6c8c8;stop-opacity:0.99215686"
       id="stop26" /><stop
       offset="1"
       style="stop-color:#4f5050;stop-opacity:1"
       id="stop28" /></linearGradient><linearGradient
     id="SVGID_2_"
     gradientUnits="userSpaceOnUse"
     x1="75.616898"
     y1="44.537498"
     x2="75.616898"
     y2="22.268499"><stop
       offset="0.1"
       style="stop-color:#b0b1b1;stop-opacity:1"
       id="stop33" /><stop
       offset="0.1956"
       style="stop-color:#a6a7a8;stop-opacity:1"
       id="stop35" /><stop
       offset="0.3515"
       style="stop-color:#919293;stop-opacity:1"
       id="stop37" /><stop
       offset="0.5484"
       style="stop-color:#7f8080;stop-opacity:1"
       id="stop39" /><stop
       offset="0.7762"
       style="stop-color:#5a5b5b;stop-opacity:1"
       id="stop41" /><stop
       offset="1"
       style="stop-color:#494a4a;stop-opacity:1"
       id="stop43" /></linearGradient><linearGradient
     id="SVGID_3_"
     gradientUnits="userSpaceOnUse"
     x1="63.014198"
     y1="11.1342"
     x2="88.219597"
     y2="11.1342"><stop
       offset="0.1"
       style="stop-color:#c7c9c9;stop-opacity:0.93333334"
       id="stop48" /><stop
       offset="0.1956"
       style="stop-color:#bababb;stop-opacity:1"
       id="stop50" /><stop
       offset="0.3515"
       style="stop-color:#a2a2a3;stop-opacity:1"
       id="stop52" /><stop
       offset="0.5484"
       style="stop-color:#848385;stop-opacity:1"
       id="stop54" /><stop
       offset="0.7762"
       style="stop-color:#747375;stop-opacity:1"
       id="stop56" /><stop
       offset="1"
       style="stop-color:#626164;stop-opacity:1"
       id="stop58" /></linearGradient><linearGradient
     id="SVGID_4_"
     gradientUnits="userSpaceOnUse"
     x1="56.7127"
     y1="44.537498"
     x2="56.7127"
     y2="22.268499"><stop
       offset="0"
       style="stop-color:#c2c3c4;stop-opacity:1"
       id="stop63" /><stop
       offset="0.5"
       style="stop-color:#abadae;stop-opacity:1"
       id="stop65" /><stop
       offset="0.5999"
       style="stop-color:#989a9b;stop-opacity:1"
       id="stop67" /><stop
       offset="0.7878"
       style="stop-color:#787b7d;stop-opacity:1"
       id="stop69" /><stop
       offset="1"
       style="stop-color:#6e7173;stop-opacity:1"
       id="stop71" /></linearGradient><linearGradient
     id="SVGID_5_"
     gradientUnits="userSpaceOnUse"
     x1="107.124"
     y1="44.537498"
     x2="107.124"
     y2="22.268499"><stop
       offset="0.2011"
       style="stop-color:#b5b7b9;stop-opacity:1"
       id="stop76" /><stop
       offset="0.3893"
       style="stop-color:#b4b6b8;stop-opacity:1"
       id="stop78" /><stop
       offset="0.7379"
       style="stop-color:#7f8284;stop-opacity:1"
       id="stop80" /><stop
       offset="1"
       style="stop-color:#6e7072;stop-opacity:1"
       id="stop82" /></linearGradient><linearGradient
     id="SVGID_6_"
     gradientUnits="userSpaceOnUse"
     x1="18.9042"
     y1="44.537498"
     x2="18.9042"
     y2="22.268499"><stop
       offset="0"
       style="stop-color:#a6a8aa;stop-opacity:1"
       id="stop87" /><stop
       offset="0.1439"
       style="stop-color:#8f9192;stop-opacity:1"
       id="stop89" /><stop
       offset="0.4453"
       style="stop-color:#7c7e7f;stop-opacity:1"
       id="stop91" /><stop
       offset="0.6988"
       style="stop-color:#515353;stop-opacity:1"
       id="stop93" /><stop
       offset="0.8912"
       style="stop-color:#464748;stop-opacity:1"
       id="stop95" /><stop
       offset="1"
       style="stop-color:#4a4a4a;stop-opacity:1"
       id="stop97" /></linearGradient><linearGradient
     id="SVGID_7_"
     gradientUnits="userSpaceOnUse"
     x1="75.616699"
     y1="11.1342"
     x2="113.4254"
     y2="11.1342"><stop
       offset="0.2011"
       style="stop-color:#eaeae9;stop-opacity:1"
       id="stop102" /><stop
       offset="0.3893"
       style="stop-color:#c5c6c6;stop-opacity:1"
       id="stop104" /><stop
       offset="0.7379"
       style="stop-color:#97999a;stop-opacity:1"
       id="stop106" /><stop
       offset="1"
       style="stop-color:#7b7d7e;stop-opacity:1"
       id="stop108" /></linearGradient><linearGradient
     id="SVGID_8_"
     gradientUnits="userSpaceOnUse"
     x1="25.2057"
     y1="11.1342"
     x2="63.014198"
     y2="11.1342"><stop
       offset="0"
       style="stop-color:#e5e5e5;stop-opacity:1"
       id="stop113" /><stop
       offset="0.5"
       style="stop-color:#c8c8c8;stop-opacity:1"
       id="stop115" /><stop
       offset="0.5999"
       style="stop-color:#b3b5b5;stop-opacity:1"
       id="stop117" /><stop
       offset="0.7878"
       style="stop-color:#8b8d8e;stop-opacity:1"
       id="stop119" /><stop
       offset="1"
       style="stop-color:#818385;stop-opacity:0.99215686"
       id="stop121" /></linearGradient></defs><sodipodi:namedview
   pagecolor="#ffffff"
   bordercolor="#666666"
   borderopacity="1"
   objecttolerance="10"
   gridtolerance="10"
   guidetolerance="10"
   inkscape:pageopacity="0"
   inkscape:pageshadow="2"
   inkscape:window-width="1366"
   inkscape:window-height="705"
   id="namedview87"
   showgrid="false"
   inkscape:zoom="0.54999464"
   inkscape:cx="537.27796"
   inkscape:cy="240.91144"
   inkscape:window-x="-8"
   inkscape:window-y="-8"
   inkscape:window-maximized="1"
   inkscape:current-layer="Layer_2"
   inkscape:document-rotation="0"
   inkscape:pagecheckerboard="0" />
<style
   type="text/css"
   id="style2">
	.st0{fill:#FFFFFF;}
	.st1{fill:#0767B0;}
	.st2{fill:#00A44F;}
	.st3{fill:#EA2127;}
	.st4{fill:#221F1F;}
</style>


<g
   id="g4879"
   transform="scale(1.159996)"><path
     style="fill:#c61f25;fill-opacity:1;stroke:none;stroke-width:0;stroke-miterlimit:2;stroke-dasharray:none"
     d="M 0,30.958865 45.387731,0 l 36.38091,7.719352 -26.6824,319.328088 -27.54311,29.26457 z"
     id="path72" /><path
     style="fill:#c61f25;fill-opacity:1;stroke:none;stroke-width:0;stroke-miterlimit:2;stroke-dasharray:none"
     d="m 83.186481,408.53575 a 39.162875,39.16257 0 0 1 -39.16288,39.16256 39.162875,39.16257 0 0 1 -39.162877,-39.16256 39.162875,39.16257 0 0 1 39.162877,-39.16258 39.162875,39.16257 0 0 1 39.16288,39.16258 z"
     id="path989" /><path
     d="m 105.83811,350.31164 h 36.421 V 229.87402 c 0,-6.20813 0.82775,-12.41625 2.48325,-16.96888 6.20813,-20.27987 24.8325,-37.24875 48.83725,-37.24875 34.35163,0 46.354,26.90188 46.354,59.18413 v 115.47112 h 36.421 V 230.70177 c 0,-68.70325 -43.043,-85.25825 -70.77262,-85.25825 -33.11,0 -56.287,18.62437 -66.22,37.66262 h -0.82775 l -2.06938,-33.11 h -32.28225 c 1.24163,16.555 1.6555,33.52388 1.6555,54.21763 z"
     id="path3001"
     style="font-size:413.875px;line-height:1.25;font-family:'Myriad Pro';-inkscape-font-specification:'Myriad Pro';letter-spacing:0px;fill:#c61f25;fill-opacity:1;stroke-width:10.3469" /><path
     d="m 293.46633,340.79252 c 14.07175,8.2775 34.35163,13.65787 56.287,13.65787 47.59563,0 74.91138,-24.8325 74.91138,-60.01187 0,-29.799 -17.79663,-47.18175 -52.56213,-60.42575 -26.07412,-9.933 -38.0765,-17.38275 -38.0765,-33.93775 0,-14.8995 12.00238,-27.31575 33.52388,-27.31575 18.62437,0 33.11,6.622 40.97362,11.5885 l 9.10525,-26.488 c -11.17462,-6.622 -28.97125,-12.41625 -49.25112,-12.41625 -43.043,0 -69.11713,26.488 -69.11713,58.77025 0,24.00475 16.96888,43.87075 52.976,56.70087 26.90188,9.933 37.24875,19.45213 37.24875,36.83488 0,16.555 -12.41625,29.799 -38.90425,29.799 -18.2105,0 -37.24875,-7.44975 -48.0095,-14.48563 z"
     id="path3003"
     style="font-size:413.875px;line-height:1.25;font-family:'Myriad Pro';-inkscape-font-specification:'Myriad Pro';letter-spacing:0px;fill:#c61f25;fill-opacity:1;stroke-width:10.3469" /><path
     d="m 610.42991,256.77589 c 0.41388,-3.72487 1.24163,-9.51912 1.24163,-16.96887 0,-36.83488 -17.38275,-94.3635 -82.775,-94.3635 -58.35638,0 -93.94963,47.59562 -93.94963,108.02137 0,60.42575 36.83488,100.9855 98.50225,100.9855 31.86838,0 53.80375,-6.622 66.63388,-12.41625 l -6.20813,-26.07412 c -13.65787,5.79425 -29.38512,10.34687 -55.45925,10.34687 -36.421,0 -67.8755,-20.27987 -68.70325,-69.531 z M 470.12629,230.70177 c 2.89712,-25.24638 19.03825,-59.18413 55.87312,-59.18413 40.97363,0 50.90663,36.00713 50.49275,59.18413 z"
     id="path3005"
     style="font-size:413.875px;line-height:1.25;font-family:'Myriad Pro';-inkscape-font-specification:'Myriad Pro';letter-spacing:0px;fill:#c61f25;fill-opacity:1;stroke-width:10.3469" /><path
     d="M 630.78367,350.31164 H 666.7908 V 243.53189 c 0,-6.20812 0.82775,-12.00237 1.6555,-16.96887 4.9665,-27.31575 23.177,-46.76788 48.83725,-46.76788 4.9665,0 8.69137,0.41388 12.41625,1.24163 v -34.35163 c -3.311,-0.82775 -6.20813,-1.24162 -10.34688,-1.24162 -24.41862,0 -46.354,16.96887 -55.45925,43.87075 h -1.6555 l -1.24162,-39.31813 h -31.86838 c 1.24163,18.62438 1.6555,38.90425 1.6555,62.49513 z"
     id="path3007"
     style="font-size:413.875px;line-height:1.25;font-family:'Myriad Pro';-inkscape-font-specification:'Myriad Pro';letter-spacing:0px;fill:#c61f25;fill-opacity:1;stroke-width:10.3469" /><path
     d="m 774.33046,101.98664 v 48.0095 h -31.04063 v 27.72963 h 31.04063 v 109.263 c 0,23.59087 3.72487,41.3875 14.07175,52.14825 8.69137,9.933 22.34925,15.31337 39.31812,15.31337 14.07175,0 25.24638,-2.06937 32.28228,-4.9665 l -1.6555,-27.31575 c -4.5527,1.24163 -11.5885,2.48325 -21.10765,2.48325 -20.27988,0 -27.31575,-14.07175 -27.31575,-38.90425 V 177.72577 h 52.1482 v -27.72963 h -52.1482 V 92.467521 Z"
     id="path3009"
     style="font-size:413.875px;line-height:1.25;font-family:'Myriad Pro';-inkscape-font-specification:'Myriad Pro';letter-spacing:0px;fill:#c61f25;fill-opacity:1;stroke-width:10.3469" /></g></svg>
