<?xml version="1.0" encoding="UTF-8" standalone="no"?><!DOCTYPE svg PUBLIC "-//W3C//DTD SVG 1.1//EN" "http://www.w3.org/Graphics/SVG/1.1/DTD/svg11.dtd"><svg width="100%" height="100%" viewBox="0 0 41146 6617" version="1.1" xmlns="http://www.w3.org/2000/svg" xmlns:xlink="http://www.w3.org/1999/xlink" xml:space="preserve" xmlns:serif="http://www.serif.com/" style="fill-rule:evenodd;clip-rule:evenodd;stroke-linejoin:round;stroke-miterlimit:2;"><g id="path1086"><path d="M2150.07,-9.496l0,0.192l0.092,-0c17.8,16.65 38.529,36.367 58.491,57.8l0.117,-0c6.658,7.275 13.263,14.546 19.596,22.012c12.708,15.121 24.479,30.621 34.125,46.317l-0,0.192c4.346,7.079 8.175,14.162 11.542,21.433c0.654,1.342 1.304,2.683 1.916,4.021c3.254,7.467 5.988,14.737 7.942,22.012c11.083,41.913 14.333,84.98 9.858,127.275c-0.175,1.725 -0.558,3.255 -0.75,4.784c-2.025,17.037 -5.358,33.687 -9.854,50.145c-0.692,2.488 -1.15,5.171 -1.896,7.659l0,0.192c-0.783,2.487 -1.912,4.975 -2.754,7.654c-5.725,17.8 -12.596,35.216 -21.188,52.058c-2.279,0.575 -4.516,1.342 -6.795,2.108c-22.604,6.888 -45.054,13.971 -67.392,21.242c-1.912,0.575 -3.808,1.342 -5.721,1.917c-21.225,7.079 -42.375,14.354 -63.371,21.816c-5.72,1.913 -11.445,4.021 -17.166,6.125c-15.292,5.55 -30.509,11.1 -45.667,16.842c-8.708,3.254 -17.4,6.508 -26.071,9.954c-20.016,7.654 -39.962,15.696 -59.75,23.733c-14.737,6.125 -29.283,12.442 -43.871,18.563c-5.262,2.3 -10.562,4.404 -15.787,6.7c-1416.57,616.1 -2200,2188.4 -1792.27,3716.49c48.058,175.316 111.104,346.233 188.504,510.637c25.875,-775.721 334.25,-1497.66 842.629,-2046c0.021,0.192 0.059,0.384 0.096,0.571c179.738,-193.879 384.475,-366.133 610.45,-511.596c9.188,-5.933 18.317,-11.866 27.563,-17.608c15.425,-9.567 30.891,-19.138 46.508,-28.708c14.221,-8.613 28.558,-16.842 42.929,-25.263c18.7,-10.908 37.496,-21.821 56.484,-32.346c21.704,-12.058 43.52,-23.925 65.587,-35.408c10.892,-5.742 21.954,-11.292 32.942,-16.842c20.612,-10.529 41.3,-20.862 62.2,-31.008c10.125,-4.975 20.233,-9.758 30.412,-14.546c30.471,-14.354 61.134,-28.325 92.196,-41.721c-23.233,13.779 -46.104,27.942 -68.883,42.104c-7.846,4.975 -15.617,9.955 -23.404,14.93c-18.492,11.866 -36.846,23.733 -55.009,35.983c-4.133,2.679 -8.362,5.358 -12.5,8.229c-23.846,16.075 -47.366,32.538 -70.679,49.188c-1.896,1.341 -3.733,2.87 -5.608,4.212c-22.913,16.458 -45.554,33.108 -67.925,50.146c-1.075,0.762 -2.125,1.721 -3.179,2.487c-1003.08,765.192 -1465.64,2067.44 -1142.18,3311.5c278.096,326.517 617.629,590.45 996.054,779.355c-55.216,-107.371 -103.733,-217.421 -146.225,-329.771c-50.108,-121.725 -92.979,-246.325 -128.212,-373.217c-150.896,-563.083 -146.534,-1131.14 -13.667,-1659c0.059,0.191 0.133,0.383 0.208,0.575c161.98,-644.042 515.484,-1228.18 1013.22,-1670.3c7.717,-6.888 15.429,-13.588 23.2,-20.479c9.242,-8.038 18.546,-15.884 27.867,-23.921c15.596,-13.209 31.196,-26.413 47.062,-39.429c0.325,-0.384 0.613,-0.575 0.938,-0.959c15.963,-13.012 32.117,-25.837 48.329,-38.658c9.779,-7.658 19.596,-15.313 29.454,-22.967c10.2,-7.85 20.538,-15.504 30.834,-23.354c10.929,-8.229 21.82,-16.267 32.862,-24.496c12.804,-9.379 25.704,-18.566 38.663,-27.754c9.512,-6.696 19.025,-13.587 28.612,-20.096c8.996,-6.316 18.067,-12.441 27.142,-18.562c12.916,-8.804 25.912,-17.609 38.983,-26.221c14.721,-9.763 29.496,-19.333 44.404,-28.904c6.317,-4.017 12.709,-7.846 19.063,-11.867c15.141,-9.567 30.358,-18.946 45.666,-28.133c6.796,-4.021 13.534,-8.229 20.346,-12.25c17.359,-10.334 34.892,-20.479 52.463,-30.429c8.229,-4.788 16.516,-9.188 24.783,-13.975c41.15,-22.775 82.8,-44.975 125.154,-66.413c5.3,-2.679 10.679,-5.167 16,-7.846c65.421,-32.346 132.217,-62.779 200.371,-91.104c8.708,-3.637 17.438,-7.083 26.183,-10.717c44.059,-17.8 88.671,-34.833 133.821,-50.72c6.95,-2.488 13.917,-4.975 20.884,-7.463c71.616,-24.883 144.579,-47.467 218.82,-67.754c5.092,-1.342 10.142,-2.871 15.255,-4.213c258.245,-67.945 523.441,-104.116 789.537,-108.137l0.213,-0c120.845,-1.721 241.883,3.062 362.612,14.546l8.042,-0c19.079,-0.384 37.779,-0.192 56.171,0.191c4.825,0.192 9.629,0.192 14.412,0.384c18.721,0.766 37.038,1.912 54.779,3.446c24.25,2.295 47.559,5.166 69.513,9.379l0.096,-0c9.954,1.912 19.658,3.825 29.033,6.121l0.117,-0c28.229,6.891 53.837,15.887 76.175,27.179l0.112,-0c14.892,7.466 28.292,15.887 40.063,25.646l0.095,-0c11.771,9.57 21.838,20.479 30.105,32.345c8.266,11.867 14.716,25.075 19.062,39.621c2.988,11.1 4.921,22.392 5.838,33.684c0.9,11.291 0.804,22.587 -0.325,33.879c-0.555,5.55 -1.38,11.1 -2.43,16.65c-3.195,16.65 -8.691,33.112 -16.329,48.421l0.117,-0c9.246,-0.38 18.546,-1.146 27.754,-1.913c9.204,-0.958 18.525,-2.104 27.654,-3.446c18.317,-2.679 36.538,-6.508 54.471,-11.291c8.633,-2.296 17.129,-4.784 25.533,-7.655c16.821,-5.358 33.167,-11.675 49.071,-18.566c15.888,-6.892 31.313,-14.738 46.184,-23.159c22.337,-12.633 43.583,-26.795 63.487,-42.3c19.883,-15.5 38.471,-32.154 55.733,-50.333c23.005,-24.117 43.659,-50.337 61.571,-78.092l0,-0.191c22.375,-34.834 40.692,-72.154 54.242,-111.579c5.437,-15.696 10.087,-31.775 13.992,-47.85c3.904,-16.271 7.004,-32.73 9.32,-49.571c1.167,-8.229 2.125,-16.65 2.871,-25.075c5.246,-58.946 0.496,-119.813 -15.696,-180.1c-10.525,-39.429 -25.337,-76.367 -43.75,-110.817c-4.595,-8.612 -9.495,-17.033 -14.529,-25.267c-5.033,-8.229 -10.333,-16.266 -15.787,-24.304c-5.438,-7.85 -11.104,-15.504 -16.942,-23.158l-0.112,-0c-41.113,-53.017 -91.834,-96.846 -148.888,-129.958l-0.096,-0c-16.304,-9.571 -33.071,-18.184 -50.333,-25.838l1.05,-0.575c-16.479,-8.612 -31.6,-18.946 -62.833,-31.196c-11.675,-4.596 -26.434,-9.571 -43.542,-14.546c-26.721,-7.85 -61.208,-16.462 -106.817,-25.266c-55.408,-11.1 -126.187,-22.584 -220.929,-35.025c-20.517,-32.725 -42.45,-63.35 -65.704,-91.675c-7.733,-9.379 -15.696,-18.567 -23.733,-27.563l-0,-0.191c-8.059,-8.805 -16.23,-17.609 -24.575,-26.03c-8.363,-8.612 -16.9,-16.841 -25.55,-24.879c-88.655,-82.875 -192.963,-142.4 -311.742,-185.846c-17.992,-6.7 -36.233,-12.82 -54.892,-18.754c-4.575,-1.341 -9.15,-2.871 -13.783,-4.404c-19.829,-5.933 -40.038,-11.483 -60.596,-16.842c-4.858,-1.15 -9.742,-2.487 -14.621,-3.637c-22.758,-5.55 -45.916,-10.908 -69.512,-15.888c-105.229,-21.433 -219.054,-35.404 -340.896,-45.358c-30.45,-2.487 -61.358,-4.592 -92.825,-6.7c-377.542,-23.925 -826.746,-17.8 -1334.93,-70.242c-42.338,-4.4 -85.059,-9.187 -128.217,-14.354c-129.479,-15.691 -262.629,-35.6 -399.15,-61.054Zm2236.46,588.346l0,0.192l0.113,-0c23.696,-0 46.071,0.191 66.854,0.766c62.433,1.529 112.042,5.934 151.108,13.204c52.117,9.955 85.417,25.075 105.225,46.892c8.729,9.571 19.392,41.15 14.721,43.638c-0.287,0.191 -1.437,-0 -2.012,0.191c-2.296,0.192 -6.105,-0.191 -10.909,-0.958c-1.108,-0.188 -2.029,-0.188 -3.175,-0.571c-0.825,-0.192 -1.629,-0.192 -2.433,-0.383c-4.858,-0.959 -9.704,-1.725 -14.738,-2.109c-1.662,0 -3.729,-0.187 -5.512,-0.187c-20.996,-0.575 -51.083,3.825 -127.163,16.842c-9.529,1.529 -18.429,2.679 -26.695,3.445c-49.555,4.784 -77.805,-6.508 -102.455,-40.766c-4.095,-5.742 -8.116,-12.059 -12.095,-18.95l-0.096,-0.192l-11.121,-19.712l-0.117,-0l-70.05,-9.571l-70.029,-9.379l-0.117,-0c-76.92,-10.334 -139.179,-19.521 -138.912,-20.288c0.671,-0.762 26.392,-1.337 71.429,-1.721l0.096,0c45.262,-0.191 109.937,-0.383 188.083,-0.383Z" style="fill:#b80509;fill-rule:nonzero;"/><path d="M25682.4,71.638l-0,2229.57c-237.329,-313.692 -737.442,-584.9 -1415.75,-584.9c-1348.75,0 -2187.06,914.484 -2320.65,2095c-0.383,2.679 -0.575,5.167 -0.767,7.846c-2.487,21.438 -4.596,43.067 -6.508,64.692c-0.383,4.787 -0.958,9.379 -1.338,13.975c-2.108,26.029 -3.829,52.25 -5.362,78.662c-0.192,2.871 -0.379,5.742 -0.571,8.613c-1.15,21.241 -1.917,42.296 -2.679,63.733c-0.192,8.229 -0.575,16.65 -0.767,25.071c-0.575,25.075 -0.958,50.146 -0.958,75.412c-0,41.913 0.767,83.446 2.487,124.788c2.488,62.012 6.892,123.45 13.209,184.121l-0,0.191c2.104,20.096 4.4,40.192 6.887,60.288c7.467,60.292 16.846,119.812 27.946,178.762c7.463,39.046 15.692,77.9 24.879,116.18c8.996,38.466 18.759,76.554 29.475,114.262c5.359,18.946 10.721,37.513 16.463,56.075l-0,0.192c5.741,18.566 11.866,36.941 17.8,55.312c2.104,6.509 4.4,12.634 6.696,18.95c4.02,12.059 8.041,24.117 12.25,35.984c13.016,36.362 26.795,72.345 41.341,107.754c7.271,17.8 14.929,35.408 22.584,52.825c7.658,17.608 15.504,34.833 23.541,52.058c8.038,17.225 16.271,34.258 24.692,51.292c8.421,17.037 17.033,33.879 25.837,50.529c17.8,33.496 36.175,66.412 55.313,98.758c9.571,16.271 19.329,32.346 29.283,48.234c9.954,15.883 20.096,31.579 30.434,47.083l-0,0.192c10.141,15.691 20.858,31.004 31.579,46.316l-0,0.192c10.525,15.312 21.433,30.429 32.537,45.358c11.1,15.121 22.2,30.05 33.683,44.788c11.484,14.737 23.159,29.283 34.834,43.637c11.867,14.354 23.733,28.709 35.983,42.871c12.059,13.975 24.5,27.946 36.938,41.725c94.933,104.313 200.2,199.242 315.229,283.454c6.504,4.596 12.821,9.571 19.137,14.163l0.192,-0c6.317,4.404 12.633,8.804 18.95,13.208c365.179,254.746 825.671,403.458 1369.42,403.458c361.354,0 692.275,-91.295 949.892,-216.85c7.462,-3.637 15.12,-7.27 22.583,-11.1l0.192,0c14.354,-7.275 28.708,-14.737 42.679,-22.2c139.912,-75.029 254.554,-159.433 336.283,-243.07c16.267,-16.846 31.196,-33.496 44.783,-50.146c6.892,-8.229 13.209,-16.463 19.334,-24.692l-0,466.429l1254.59,0l0,-6409.04l-1254.59,-0Zm-16631.7,1644.67c-1348.74,0 -2187.03,914.292 -2320.71,2095l-0.113,0c-0.329,2.679 -0.537,5.55 -0.846,8.421c-2.333,21.246 -4.475,42.492 -6.354,63.925c-0.421,4.788 -0.879,9.571 -1.279,14.358c-2.013,24.496 -3.754,48.805 -5.188,73.492c-0.5,8.233 -0.862,16.654 -1.262,25.075c-0.842,16.65 -1.571,33.492 -2.125,50.338c-0.308,8.995 -0.517,17.987 -0.746,26.983c-0.612,25.075 -1.054,50.146 -1.054,75.412c-0,62.775 1.837,124.98 5.608,186.417l0,0.192c12.592,205.366 46.05,403.841 99.296,591.983c117.133,414.175 330.288,778.779 629.208,1059.55l0.113,0c40.75,38.279 83.029,75.029 126.933,110.054l0.117,0c29.262,23.35 59.196,46.125 89.858,68.134l0.096,-0c45.992,32.729 93.458,63.929 142.529,93.404l0.096,-0c65.421,39.042 133.538,75.025 204.296,107.562l0.112,0c35.371,16.267 71.392,31.771 108.084,46.317l0.112,0c146.838,58.183 304.146,102.588 471.425,131.104l0.113,0c146.362,25.075 300.375,38.279 461.683,38.279c247.95,0 481.679,-43.062 687.163,-110.625c17.091,-5.55 33.97,-11.291 50.662,-17.225l0.096,0c16.725,-6.125 33.187,-12.058 49.492,-18.375c195.72,-75.216 361.008,-171.87 481.929,-271.779c60.446,-49.954 109.766,-100.866 146.321,-150.054l-0,466.238l1254.74,-0l0,-4662.54l-1254.74,-0l-0,483.271c-237.346,-313.692 -737.496,-584.9 -1415.66,-584.9l0,-0.013Zm21259.4,0c-1348.75,0 -2187.06,914.292 -2320.85,2095c-0.383,2.679 -0.575,5.55 -0.958,8.421c-2.296,21.246 -4.4,42.492 -6.313,63.925c-0.383,4.788 -0.958,9.571 -1.341,14.358c-1.913,24.496 -3.638,48.805 -5.167,73.492c-0.383,8.233 -0.767,16.654 -1.15,25.075c-0.954,16.65 -1.529,33.492 -2.104,50.338c-0.383,8.995 -0.575,17.987 -0.767,26.983c-0.766,25.075 -1.146,50.146 -1.146,75.412c0,20.859 0.192,41.721 0.571,62.584c0.959,40.575 2.492,80.771 4.979,120.962l0,2.871c0.192,0.192 0,0.192 0,0.192c3.825,61.629 9.567,122.491 17.034,182.779c7.462,60.292 16.841,120.004 27.941,178.762c7.467,39.046 15.888,77.9 24.884,116.18c8.037,34.45 16.841,68.325 26.221,102.204c1.145,4.016 2.104,8.037 3.254,12.058c5.358,18.754 10.908,37.513 16.65,56.075c11.483,37.325 23.541,74.071 36.558,110.438c13.013,36.362 26.983,72.345 41.529,107.754c14.546,35.408 29.859,70.433 45.938,104.883c16.075,34.45 32.916,68.517 50.716,101.821c35.217,66.987 73.496,131.679 114.838,194.075c31.004,46.892 63.542,92.633 97.804,136.846c34.258,44.212 70.242,86.891 107.754,128.233c37.704,41.342 76.75,81.15 117.517,119.429c27.175,25.459 55.121,50.338 83.637,74.454c14.355,12.059 28.709,23.925 43.446,35.6c0,0.192 0,0 0,0c29.284,23.35 59.334,46.125 89.954,68.134c30.625,21.821 62.013,43.066 93.975,63.354c16.08,10.142 32.155,20.096 48.617,30.05c0,-0 0,-0.192 0,-0c32.729,19.521 66.221,38.275 100.288,56.267c34.07,17.8 68.712,35.025 104.12,51.295c35.409,16.267 71.388,31.771 108.138,46.317l0.192,0c18.375,7.271 36.745,14.354 55.504,21.246c37.321,13.587 75.408,26.412 114.071,38.279c96.654,29.663 197.325,53.779 301.829,71.579c-0,0.192 -0,0 -0,0c21.054,3.638 42.104,6.892 63.158,10.146c106.225,15.308 216.083,24.496 329.771,27.175l0.192,0c22.779,0.575 45.554,0.958 68.712,0.958c41.342,0 82.108,-1.15 122.683,-3.445c40.384,-2.488 80.384,-5.742 119.813,-10.334c75.792,-8.421 149.287,-20.671 220.679,-36.175c58.946,-12.633 116.367,-27.371 171.871,-44.212c17.608,-5.167 34.833,-10.717 52.058,-16.459c17.034,-5.55 33.875,-11.291 50.721,-17.225c16.842,-6.125 33.108,-12.058 49.571,-18.375c195.604,-75.216 360.967,-171.871 481.929,-271.779c30.242,-25.075 57.608,-50.337 82.108,-75.408c24.309,-25.075 45.934,-50.146 64.117,-74.646l0,466.237l1254.78,0l0,-4662.54l-1254.78,-0l0,483.271c-237.329,-313.692 -737.442,-584.9 -1415.55,-584.9l0,-0.013Zm-14562.6,16.463c-69.092,0.954 -151.775,5.933 -242.879,17.225c-488.438,55.121 -920.413,243.833 -1283.68,521.166l-0,-453.225l-1263.01,0l0,4662.54l1263.01,0l-0,-2059.97c-0,-1415.74 1288.47,-1475.08 1593.74,-1449.62l0,-1237.75c-20.671,-0.379 -43.062,-0.57 -67.179,-0.379l0,0.013Zm811.704,102.204l0,2755.12c0,1203.68 491.692,1992.03 1831.07,1992.03c491.692,-0 940.892,-186.417 1246.17,-500.113l-0,398.484l1271.43,-0.001l-0,-4645.5l-1271.43,0l-0,2466.88c22.012,655.145 -209.767,974.008 -472.55,1117.17c-132.446,63.542 -271.784,100.288 -417.625,103.542c-483.08,-0 -907.017,-220.483 -907.017,-932.471l-0,-2755.12l-1280.04,0l0,-0.016Zm-7321.96,991.804c788.375,-0 1280.05,551.021 1280.05,1322.53c-0,442.5 -145.517,791.988 -404.896,1018.98c-19.617,16.079 -39.425,31.77 -59.446,46.891l-1.054,2.3c-3.633,2.679 -7.138,5.742 -10.813,8.421l0.213,-1.917c-155.013,114.071 -343.975,190.055 -562.029,221.825c-4.463,0.767 -8.884,1.534 -13.363,2.109c-11.712,1.529 -23.596,3.062 -35.483,4.4c-11.367,1.15 -22.717,2.487 -34.242,3.446c-8.954,0.958 -17.95,1.725 -27.004,2.295c-12.671,0.959 -25.437,1.725 -38.258,2.488c-9.4,0.575 -18.796,0.958 -28.288,1.341c-21.533,0.767 -43.275,1.342 -65.287,1.342c-146.225,0 -282.725,-20.292 -407.842,-58.187c-20.862,-6.313 -41.358,-13.013 -61.571,-20.288c-60.65,-21.817 -118.433,-47.846 -173.133,-77.704c-18.242,-10.146 -36.079,-20.479 -53.629,-31.388c-175.45,-108.329 -316.259,-259.341 -415.592,-439.825c-3.387,-6.125 -6.45,-12.633 -9.746,-18.758c-16,-30.237 -31.158,-61.246 -44.821,-93.017c-74.225,-172.637 -113.804,-367.475 -113.804,-574.754c0,-763.091 474.696,-1322.53 1280.04,-1322.53Zm15216,-0c788.35,-0 1280.04,551.021 1280.04,1322.53c0,443.842 -146.608,794.284 -407.666,1021.28c-18.759,15.117 -37.517,30.046 -56.655,44.592l-1.15,2.109c-3.633,2.87 -7.079,5.741 -10.716,8.42l0.191,-1.725c-151.966,111.775 -336.279,186.8 -548.537,219.913c-10.333,1.533 -20.671,3.254 -31.004,4.596c-9.763,1.337 -19.521,2.487 -29.284,3.633c-12.058,1.342 -24.116,2.679 -36.366,3.638c-8.996,0.958 -17.988,1.725 -26.984,2.295c-12.825,0.959 -25.841,1.725 -38.854,2.488c-9.187,0.383 -18.183,0.958 -27.562,1.342c-21.625,0.766 -43.446,1.341 -65.454,1.341c-73.113,0 -143.738,-5.171 -211.684,-14.929l-0.191,0c-22.584,-3.254 -44.98,-7.083 -66.988,-11.292c-22.2,-4.212 -43.829,-9.187 -65.458,-14.358c-64.5,-16.075 -125.938,-36.363 -184.692,-61.054c-19.525,-8.038 -38.854,-16.842 -57.804,-25.838c-18.754,-9.187 -37.321,-18.754 -55.504,-28.708l-0.192,-0c-18.179,-10.146 -36.171,-20.479 -53.587,-31.388l-0.192,0c-17.417,-10.72 -34.642,-22.012 -51.488,-33.687c-16.841,-11.675 -33.3,-23.733 -49.379,-36.363c-16.266,-12.441 -31.962,-25.266 -47.466,-38.662c-15.309,-13.208 -30.43,-26.988 -44.975,-40.958c-58.759,-56.08 -111.392,-118.284 -157.517,-185.463c-11.675,-16.842 -22.779,-33.875 -33.496,-51.292l0,-0.191c-10.717,-17.417 -21.246,-35.025 -31.004,-53.209c-9.954,-17.991 -19.525,-36.366 -28.713,-55.12c-8.991,-18.567 -17.795,-37.513 -26.029,-56.655c-16.458,-38.279 -31.196,-77.895 -44.212,-118.279c-1.529,-4.596 -2.679,-9.379 -4.209,-13.975c-11.1,-36.171 -21.054,-72.729 -29.475,-110.241c-0.958,-4.209 -1.72,-8.613 -2.487,-12.825c-8.229,-38.275 -15.121,-77.13 -20.288,-116.75c-2.87,-21.817 -5.358,-44.021 -7.275,-66.413c-1.912,-22.392 -3.254,-44.979 -4.208,-67.754c-1.15,-22.583 -1.533,-45.55 -1.533,-68.517c-0,-763.091 474.658,-1322.53 1280.05,-1322.53Zm6043.25,-0c788.354,-0 1280.05,551.021 1280.05,1322.53c0,442.884 -146.033,792.563 -405.758,1019.55c-19.521,15.888 -38.85,31.388 -58.567,46.317l-1.145,2.3c-3.638,2.679 -7.084,5.55 -10.721,8.421l0.191,-1.917c-154.837,114.071 -343.741,189.863 -561.55,221.825c-4.783,0.767 -9.379,1.534 -13.97,2.109c-11.675,1.529 -23.542,3.062 -35.409,4.4c-11.291,1.15 -22.583,2.487 -34.258,3.445c-8.804,0.959 -17.8,1.725 -26.988,2.296c-12.633,0.959 -25.645,1.725 -38.662,2.488c-9.188,0.383 -18.371,0.958 -27.75,1.341c-21.629,0.767 -43.254,1.342 -65.267,1.342c-97.612,0 -190.821,-8.996 -279.054,-26.221c-44.208,-8.616 -87.083,-19.333 -128.804,-31.966c-20.863,-6.313 -41.342,-13.013 -61.629,-20.288c-60.675,-21.817 -118.475,-47.846 -173.213,-77.704c-18.183,-10.146 -35.983,-20.479 -53.591,-31.388c-17.609,-10.72 -34.834,-22.012 -51.484,-33.687c-33.687,-23.35 -66.033,-48.421 -96.846,-75.025c-107.945,-92.825 -197.712,-204.792 -267.187,-331.113c-19.904,-36.175 -38.088,-73.304 -54.546,-111.775c-16.462,-38.279 -31.392,-77.895 -44.404,-118.279c-45.554,-141.633 -69.475,-295.133 -69.475,-456.475c-0,-763.091 474.654,-1322.53 1280.04,-1322.53Zm-26761.1,255.508c-582.93,0 -1025.41,762.325 -1025.41,1471.44l1754.34,-0c-223.513,259.916 -519.925,446.525 -850.788,535.904c-565.417,151.204 -1164.79,2.108 -1592.53,-386.996c-1.3,-1.342 -2.6,-2.875 -3.921,-4.212c-25.858,-23.734 -51.2,-48.042 -75.871,-73.113c-10.583,-11.1 -21.246,-22.012 -31.562,-33.304l-0.113,0c-9.187,-10.142 -18.183,-20.287 -27.121,-30.429l-0.116,-0.192c-8.938,-10.146 -17.796,-20.479 -26.488,-31.008l-0.112,-0c-17.4,-21.05 -34.359,-42.296 -50.742,-64.117c-0.058,0 -0.075,-0.192 -0.113,-0.192c-3.791,-4.975 -7.37,-9.949 -11.025,-15.116c-28.883,-39.046 -56.116,-79.429 -81.591,-120.963c-6.067,-9.954 -12.038,-20.096 -17.896,-30.241l-0.113,-0.192c-10.625,-17.992 -20.883,-36.363 -30.837,-54.738l-0.113,-0.191c-9.933,-18.375 -19.562,-37.129 -28.825,-55.888l-0.095,0c-3.309,22.204 -6.296,44.404 -9.109,66.604c-5.646,44.596 -10.258,89.384 -13.879,134.171c-1.817,22.392 -3.367,44.784 -4.667,67.179c-1.129,22.584 -2.029,45.167 -2.641,67.75l-0,0.192c-0.021,0.192 -0,0.575 -0,0.958c-10.396,383.746 52.937,763.088 183.737,1118.32c7.675,20.863 15.675,41.725 23.829,62.392c40.863,103.929 87.446,205.366 139.775,304.316c10.467,19.717 21.188,39.43 32.096,58.95c10.909,19.525 22.05,39.046 33.379,58.375c11.388,19.334 22.95,38.471 34.759,57.613c11.808,19.137 23.883,38.087 36.133,56.842l0,0.191c12.25,18.759 24.729,37.513 37.417,56.079c38.087,55.696 78.033,110.434 120.046,163.834l0.112,-0c113.746,34.833 229.75,63.542 347.667,85.362l0.096,0c28.941,5.55 57.879,10.525 86.895,15.313l0.113,-0c29.017,4.592 58.108,8.804 87.2,12.629l0.117,0c24.995,3.254 50.066,6.125 75.12,8.804c8.155,0.959 16.305,1.725 24.48,2.488c25.15,2.491 50.279,4.787 75.445,6.7l0.117,-0c54.817,4.212 109.746,6.891 164.654,8.037c7.313,0.192 14.625,0.384 21.934,0.384c25.629,0.575 51.316,0.575 76.941,0.383l0.213,-0c29.166,-0.192 58.471,-0.767 87.621,-1.913l0.65,0c233.883,-8.42 466.829,-42.875 694.47,-103.162c48.405,-14.354 96.425,-29.858 144.121,-46.508c-1.721,-0.575 -3.041,-0.959 -4.554,-1.534c25.417,-8.037 50.679,-16.65 75.867,-25.262c9.783,-3.255 19.483,-6.892 29.246,-10.334c15.541,-5.55 31.062,-11.104 46.508,-16.846c10.05,-3.825 20.096,-7.462 30.108,-11.291c19.809,-7.654 39.579,-15.5 59.217,-23.542c5.858,-2.296 11.75,-4.592 17.608,-7.079c22.584,-9.379 45.034,-18.95 67.388,-28.9c13.229,-5.742 26.375,-11.867 39.525,-17.8c9.529,-4.404 19.025,-8.804 28.5,-13.4c15.271,-7.079 30.525,-14.354 45.666,-21.817c7.675,-3.637 15.271,-7.466 22.888,-11.291c279.667,-139.913 538.087,-320.396 766.017,-537.055c1.016,-0.191 2.05,-0.383 3.062,-0.575c347.667,-333.408 607.621,-734.95 771.321,-1170.57c9.204,-24.304 18.258,-48.804 26.812,-73.492c9.359,-26.604 18.413,-53.592 27.025,-80.579c7.792,-24.5 15.234,-49.188 22.45,-73.879c7.196,-24.688 14.125,-49.571 20.671,-74.45c6.584,-24.884 12.9,-49.763 18.854,-74.838c5.988,-25.071 11.692,-50.146 17.071,-75.408c1.017,-3.829 1.646,-7.463 2.429,-11.292l0,-0.191c5.113,-24.117 9.88,-48.421 14.413,-72.73l-0,-0.191c8.996,-48.804 16.825,-97.804 23.525,-146.992c3.442,-24.496 6.429,-49.187 9.225,-73.879c1.012,-9.183 2.046,-18.179 3.062,-27.367c2.43,-23.35 4.65,-46.508 6.584,-70.05c3.829,-46.7 6.641,-93.783 8.362,-140.675c1.017,-23.541 1.379,-47.083 1.588,-70.625c0.175,-14.354 0.421,-28.9 0.421,-43.254c0.02,-22.012 -0.209,-43.829 -0.63,-65.842c-1.033,-43.829 -2.716,-87.85 -5.395,-131.87c-1.438,-22.009 -3.121,-44.021 -4.788,-66.03c-1.625,-20.479 -3.596,-41.15 -5.721,-61.629c-1.437,-12.058 -3.025,-24.116 -4.346,-36.175l-2577.77,0Z" style="fill:#fff;fill-rule:nonzero;"/><path d="M34547.8,495.4l-0,1246.17l-568.054,-0l-0.001,1110.66l568.055,0l-0,2585.54c-0,983.383 601.937,1161.38 1585.13,1161.38c177.996,0 415.516,-17.033 568.058,-33.875l0,-1068.17c-76.366,8.421 -178,17.033 -322.117,17.033c-568.058,0 -576.479,-440.97 -576.479,-695.141l0,-1966.77l911.225,0l0.384,0.958l0.191,0l17.225,33.875l1901.31,3699.08l2500.76,-4848.96l-1415.55,0l-1085.2,2280.46c-0,-0 -38.279,-80.005 -119.238,-197.713c-729.596,-1231.43 -972.475,-2082.75 -2109.93,-2082.75l-262.975,0l2.296,4.404l-340.488,0l0,-1246.17l-1254.59,0l-0,-0.012Z" style="fill:#b80509;fill-rule:nonzero;"/></g></svg>