<?xml version="1.0" encoding="UTF-8"?>
<svg width="700.8" height="228.57" enable-background="new 0 0 1460 476" version="1.1" viewBox="0 0 700.8 228.57" xml:space="preserve" xmlns="http://www.w3.org/2000/svg">
<g transform="matrix(.48 0 0 .48 0 -.00048)"><path d="m1363 1e-3c-2 0-4 0.068-6 0.19h-1254c-2-0.12-4-0.19-6-0.19-54 0-97 43-97 97v282c0 52 40 94 91 97v0.19h1272c54 0 97-43 97-97v-282c0-54-43-97-97-97z" fill="#e4007f"/><g fill="#f9f9f9">
	<path d="m427 156c-4-4.9-9-8.7-15-12-6-2.8-13-4.2-22-4.2-14 0-27 3.5-39 10-12 6.9-23 16-32 27-9.2 11-16 23-22 37-5.4 14-8.2 28-8.2 42 0 7.5 1 15 3.1 21 2 6.6 5.2 12 9.5 17 4.3 4.8 9.6 8.5 16 11 6.3 2.7 14 4.1 22 4.1 16 0 30-4 42-12 12-7.9 23-18 31-29 8.5-12 15-24 19-38 4.3-13 6.5-26 6.5-37 0-7.5-0.97-15-2.9-21-1.9-6.6-4.9-12-8.8-17zm-37 67c-2.5 13-5.8 24-9.9 35s-8.9 20-14 27c-5.6 7.1-11 11-18 11-5.2 0-9.1-2.9-12-8.7-2.6-5.8-3.9-14-3.9-23 0-13 1.5-26 4.4-39s6.7-24 11-34c4.5-10 9.5-18 15-24 5.4-6.1 11-9.2 16-9.2s8.7 2.7 11 8.2c2.4 5.4 3.6 13 3.6 22 1e-3 11-1.2 23-3.7 36z"/>
	<path d="m231 274c-15 11-32 17-51 17-8.6 0-15-1.5-20-4.6-4.6-3.1-6.8-8.2-6.8-16 0-1.8 0.11-3.9 0.34-6.1 0.22-2.3 0.68-4.7 1.4-7.2 5.2-20 11-43 17-68 6.4-25 13-50 20-75 1.6-5.9 3.1-11 4.4-15 1.4-3.8 2.9-6.8 4.6-9 1.7-2.3 3.5-3.8 5.5-4.6 1.9-0.8 4.1-1.2 6.7-1.2h3.4v-9.6h-88v9.6h3.4c3.2 0 5.6 0.74 7.3 2.2 1.7 1.5 2.6 4.2 2.6 8 0 4.1-1 10-3.1 19l-39 154c-3 12-5.9 20-8.9 24-3 3.9-7.1 5.8-12 5.8h-3.4v9.6h175l26-83h-9.6c-10 22-35.84 50.1-35.84 50.1z"/>
	<path d="m589 167c0-8.6-2.8-15-8.3-19-5.6-4-12-5.9-18-5.9-6.6 0-13 1.9-18 5.6-5.4 3.7-8.2 9.1-8.2 16 0 3.4 0.79 6.1 2.4 8.2 1.6 2 3.3 3.9 5.3 5.6 1.9 1.7 3.7 3.6 5.3 5.6s2.4 4.8 2.4 8.2c0 3.9-0.97 8.6-2.9 14-1.9 5.7-4.5 12-7.8 18-3.3 6.6-7.2 13-12 21-4.5 7.3-9.5 14-15 22-0.68-8.8-1.8-19-3.2-29-1.5-11-3.1-21-4.8-32s-3.5-21-5.4-31-3.9-19-5.9-28h-48l-1.7 9.5c3.4 0 5.9 0.8 7.6 2.4s3.2 4.9 4.6 9.9c2.9 9.7 6.5 27 11 51 4.1 24 8 54 12 89h16c12-15 25-32 39-49 13-17 27-36 40-55 5.2-7.7 8.9-15 11-21 2.3-6.1 3.4-12 3.4-16z"/>
	<path d="m629 218c2 0.23 4.1 0.34 6.1 0.34h6.1c17 0 30-1.6 40-5 10-3.3 18-7.5 24-12 5.6-5 9.3-10 11-16 1.8-5.8 2.7-11 2.7-16 0-7.3-2.6-14-7.9-19-5.2-5.3-13-8-23-8-16 0-30 3.7-43 11-13 7.4-24 17-33 28-9.2 11-16 24-21 38s-7.5 27-7.5 39c0 7.5 0.96 15 2.9 21 1.9 6.6 5 12 9 17 4.1 4.8 9.3 8.6 16 11 6.3 2.8 14 4.3 22 4.3 6.1 0 12-1 19-3.1 6.3-2 12-5.1 18-9.2 5.7-4.1 11-9.2 16-15 4.8-6.1 8.6-13 12-22l-6.5-4.4c-3.2 7.1-8.3 13-15 17-6.9 4.3-14 6.5-21 6.5-3.6 0-7.1-0.62-10-1.9-3.2-1.2-6-3.3-8.5-6.1s-4.5-6.5-6-11c-1.5-4.4-2.2-9.8-2.2-16 0-5.2 0.17-10 0.51-15 0.34-4.5 0.97-9.2 1.9-14zm19-48c6.4-8.5 14-13 23-13 3.9 0 6.8 1.3 8.7 3.9s2.9 5.9 2.9 9.7c0 3.9-1 8-3.1 12-2 4.3-5.2 8.4-9.4 12-4.2 3.8-9.6 6.9-16 9.4-6.5 2.5-14 3.8-23 3.8 4.8-17 10-30 17-38z"/>
	<path d="m1310 258c-7.7 0-14 2.7-19 7.9-5.1 5.3-7.6 12-7.6 19 0 7.4 2.5 14 7.6 19 5.1 5.1 11 7.6 19 7.6 7.2 0 13-2.5 19-7.4 5.2-5 7.8-11 7.8-19 0-7.2-2.6-13-7.8-19-5.2-5.3-11-7.9-19-7.9z"/>
	<path d="m1375 77c-4.1-2.9-9.6-4.4-17-4.4-8.8 0-16 2.3-23 6.8-6.3 4.5-11 12-14 23-1.4 5.2-2.2 10-2.5 15-0.34 5-0.51 10-0.51 16v13c0 5-0.059 10-0.17 16-0.12 6-0.46 13-1 20-0.57 7.6-1.4 16-2.4 25-1 9.4-2.4 20-4.2 31h10c7.7-22 15-41 21-55 6.3-14 12-27 17-36 4.8-9.8 8.9-18 12-25 3.3-6.9 5.8-14 7.6-21 1.1-4.5 1.7-8.2 1.7-11 1e-3 -6.5-2-11-6.1-14z"/>
	<path d="m860 274c-15 11-32 17-51 17-8.6 0-15-1.5-20-4.6-4.6-3.1-6.8-8.2-6.8-16 0-1.8 0.11-3.9 0.34-6.1 0.22-2.3 0.68-4.7 1.4-7.2 5.2-20 11-43 17-68 6.4-25 13-50 20-75 1.6-5.9 3.1-11 4.4-15 1.4-3.8 2.9-6.8 4.6-9 1.7-2.3 3.5-3.8 5.5-4.6 1.9-0.8 4.1-1.2 6.7-1.2h3.4v-9.6h-88v9.6h3.4c3.2 0 5.6 0.74 7.3 2.2 1.7 1.5 2.6 4.2 2.6 8 0 4.1-1 10-3.1 19l-39 154c-3 12-5.9 20-8.9 24-3 3.9-7.1 5.8-12 5.8h-3.4v9.6h175l26-83h-9.6c-10 22-35.84 50.1-35.84 50.1z"/>
	<path d="m966 231c2.2-8.4 4.8-17 7.6-27 2.8-9.3 5.6-18 8.3-27 2.7-8.6 5.3-16 7.6-24 2.4-7.1 4.3-13 5.7-17l-2.8-2.5-63 11-1.8 10c5 0 8.7 0.89 11 2.7 2.6 1.8 3.2 5.6 1.8 12l-18 74c-1.4 5.9-2.7 11-3.9 16-1.2 4.5-2.2 8.5-3 12-0.83 3.5-1.4 6.7-1.8 9.6-0.36 2.8-0.53 5.8-0.53 8.9 0 6.9 1.6 12 5 15 3.3 3.1 8.4 4.6 15 4.6 8.3 0 16-1.7 23-5.1 6.9-3.4 13-7.5 18-12 5.2-4.7 9.3-9.6 12-15 3.1-5.1 5-9.4 5.7-13l-7.8-4.3c-1.4 4.7-4 8.8-7.8 12-3.8 3.4-7.7 5.1-12 5.1-4 0-6-3-6-8.9 0-3.5 0.71-8.6 2.1-15 1.4-6.6 3.2-14 5.5-23z"/>
	<circle cx="978" cy="98" r="26"/>
	<path d="m1150 167c0-8.6-2.8-15-8.3-19-5.6-4-12-5.9-18-5.9-6.6 0-13 1.9-18 5.6-5.4 3.7-8.2 9.1-8.2 16 0 3.4 0.79 6.1 2.4 8.2 1.6 2 3.3 3.9 5.3 5.6 1.9 1.7 3.7 3.6 5.3 5.6s2.4 4.8 2.4 8.2c0 3.9-0.97 8.6-2.9 14-1.9 5.7-4.5 12-7.8 18-3.3 6.6-7.2 13-12 21-4.5 7.3-9.5 14-15 22-0.68-8.8-1.8-19-3.2-29-1.5-11-3.1-21-4.8-32s-3.5-21-5.4-31-3.9-19-5.9-28h-48l-1.7 9.5c3.4 0 5.9 0.8 7.6 2.4s3.2 4.9 4.6 9.9c2.9 9.7 6.5 27 11 51s8 54 12 89h16c12-15 25-32 39-49 13-17 27-36 40-55 5.2-7.7 8.9-15 11-21 2.3-6.1 3.4-12 3.4-16z"/>
	<path d="m1250 141c-16 0-30 3.7-43 11-13 7.4-24 17-33 28-9.2 11-16 24-21 38s-7.5 27-7.5 39c0 7.5 0.96 15 2.9 21 1.9 6.6 4.9 12 9 17 4.1 4.8 9.3 8.6 16 11 6.3 2.8 14 4.3 22 4.3 6.1 0 12-1 19-3.1 6.3-2 12-5.1 18-9.2 5.7-4.1 11-9.2 16-15 4.8-6.1 8.6-13 12-22l-6.5-4.4c-3.2 7.1-8.2 13-15 17-6.9 4.3-14 6.5-21 6.5-3.6 0-7.1-0.62-10-1.9-3.2-1.2-6-3.3-8.5-6.1s-4.5-6.5-6-11c-1.5-4.4-2.2-9.8-2.2-16 0-5.2 0.17-10 0.51-15 0.34-4.6 0.96-9.2 1.9-14 2 0.23 4.1 0.34 6.1 0.34h6.1c17 0 30-1.6 40-5 10-3.3 18-7.5 24-12 5.6-5 9.3-10 11-16 1.8-5.8 2.7-11 2.7-16 0-7.3-2.6-14-7.9-19-5.2-5.3-13-8-23-8zm-8.2 41c-2 4.3-5.2 8.4-9.4 12-4.2 3.8-9.6 6.9-16 9.4-6.5 2.5-14 3.8-23 3.8 4.8-17 10-30 17-38 6.4-8.5 14-13 23-13 3.9 0 6.8 1.3 8.7 3.9s2.9 5.9 2.9 9.7c1e-3 3.9-1 8-3.1 12z"/>

	<path d="m94 334c6.4-0.89 13-0.69 19-0.037 2.2 0.44 4.4 1.5 6.1 3.1 1.7 2.1 2.9 4.6 3.7 7.2 0.23 2.6-1.8 5.5-4.6 5.5-2.6-1.6-3.5-4.5-4.9-6.9-1.5-1.3-3.7-1.3-5.6-1.3-4.3 0.16-8.5-0.39-13 0.26-1.5 0.79-2.9 2-3.7 3.5-0.6 3.6-0.95 7.3-0.17 11 0.17 2.1 2.1 3.8 4.1 4.2 2.9 0.94 6 0.38 8.9 0.5 2.6 0.12 5.2-0.24 7.8 0.18 5.3 1.3 9.9 5.8 11 11 0.55 4.6 0.33 9.3-0.33 14-1.1 1.9-2 4-3.6 5.5-2.3 2-5.2 3.4-8.2 3.9-2.6 0.17-5.2 0.031-7.8 0.073-4.4-0.052-9.1 0.47-13-1.6-3.4-1.3-5.4-4.8-6.1-8.3-0.67-1.7-0.26-3.8 0.91-5.2 1.1-1.2 2.9-0.55 4.3-0.68 2.1 1.4 2.3 4.1 3.4 6.1 2.5 2.7 6.5 1.7 9.8 1.8 3.3-0.26 6.9 0.63 10-0.98 1.6-0.85 3.2-2.4 3.1-4.4 0.18-3.4 0.39-6.8-0.18-10-1.3-1.6-2.8-3.7-5.1-3.7-4-0.03-8 0.01-12 0.01-2.2 0.058-4.3-0.8-6.4-1.2-1.3-0.88-2.7-1.6-3.8-2.6-2.3-2.1-3.6-5.1-4.3-8.1-0.21-2.4 0.038-4.9-0.073-7.3-0.16-3.1 0.23-6.4 2-9 2.1-3 5-5.8 8.8-6.4z"/>
	<path d="m354 335c3-1.5 6.5-0.71 9.7-1 2.2-0.19 4.4 0.19 6.6 0.59 1.3 0.62 2.2 2 2.1 3.5 0.038 16-0.02 32 0.017 48 0.046 1.1-0.23 2.8 1.3 2.9 3.1 0.25 6.4-0.41 9.5 0.45 2.5 2 1.2 7.5-2.4 7.3-8.1 0.029-16 0.056-24-0.018-1.5 0.1-3-0.89-3.5-2.4-0.65-1.7 0.12-3.5 0.95-5 3.1-1.4 6.4 0.18 9.7-0.3 1.1-0.17 1-1.5 1-2.4 0.042-14 0.021-29 0.016-43-0.16-1.5-2-1.2-3-1.2-3 0.042-6.9 0.94-8.8-2.1-0.12-1.6-0.82-4.1 1.1-4.9z"/>
	<path d="m450 334c1.9-0.42 4.3-0.61 5.8 0.83 1.5 1.2 2 3.2 2.3 5 0.061 2.6-1.8 5.2-4.2 6.2-2 0.19-4-0.5-5.9-0.89-1.2-0.13-1.6-1.5-2-2.4-0.92-2.4-0.18-5.1 0.78-7.3 0.73-1 2.1-1.2 3.2-1.4z"/>
	<path d="m593 335c3.2-2.4 7.3-1.2 11-1.6 2.2-0.28 4.4 0.23 6.5 0.68 1.2 0.72 2.4 1.8 2.2 3.3 0.035 17-0.053 34 0.041 50 2.8 0.95 5.9-0.25 8.8 0.35 1.6-0.1 2.6 1.3 3 2.6 0.49 2.3-1.5 5.2-4 5-7.9-0.029-16 0.032-24-0.035-1.5 0.057-2.7-0.8-3.7-1.8-0.012-1.5-0.026-2.9 9e-3 -4.4 0.39-0.44 0.79-0.88 1.2-1.3 2.2-0.51 4.4-0.63 6.6-0.24 1.3-0.021 3.2 0.49 3.9-0.86 0.12-12 0.069-23 0.069-35-0.079-3.3 0.27-6.5-0.063-9.8-0.53-1.3-2.2-1.3-3.4-1.3-2.7 0.18-6.1 0.88-8.1-1.5-0.52-1.5-0.24-3.2-0.22-4.8z"/>
	<path d="m858 334c1.6-0.37 3.4-0.43 4.8 0.36 2.4 1.2 3.4 4.2 3.2 6.7-0.51 2.3-2.3 4.4-4.6 5-1.9 0.16-3.6-0.49-5.4-0.92-1.2-0.16-1.7-1.5-2-2.5-0.8-2.2-0.3-4.5 0.37-6.7 0.57-1.4 2.2-1.8 3.6-2z"/>
	<path d="m1247 334c2.6-0.072 5.4-1.2 7.8 0.23 2.9 3 3.3 9.1-0.88 11-2.7 0.52-5.5-0.17-8.1-0.76-1.6-2.7-1.3-6-0.5-8.9 0.52-0.57 1.1-1.2 1.6-1.7z"/>
	<path d="m192 336c1-1.6 3.1-2.2 4.9-1.6 0.78 0.79 1.8 1.5 2.1 2.6 0.54 2 0.2 4.1 0.21 6.2 0.067 3.4-0.19 6.8 5e-3 10 2.3 0.34 4.3-1.1 6.6-0.98 5.5-0.011 11-0.18 17 0.068 3.7 0.88 6.5 4 8.1 7.3 0.9 2.3 0.66 4.7 0.68 7.1 5e-3 7.9-0.017 16 0 24 9e-3 1.6-0.34 3.2-1.2 4.4-1.3 1.3-3.2 0.76-4.8 0.77-2.1-2.2-1.9-5.5-1.9-8.3 0.17-7.1-0.065-14 6e-3 -21-0.067-1.6-0.41-3.1-0.48-4.6-0.78-0.54-1.4-1.6-2.4-1.6-5-0.01-10-0.072-15 0.033-3.4 1.1-6.1 4.6-6.1 8.2-0.078 6.1 5e-3 12-6e-3 18-0.036 2.8 0.41 5.8-1.1 8.3-1.2 1.6-3.3 1.1-5 1-0.4-0.45-0.79-0.89-1.2-1.3-0.28-1.8-0.69-3.6-0.62-5.4 0.057-16 4e-3 -31 0.02-47-0.065-2.2-0.23-4.6 0.64-6.7z"/>
	
		<path d="m516 336c1.1-1.8 3.9-2.5 5.5-1.1 1.4 1.1 2 2.9 2 4.6-0.22 16-0.1 31-0.13 47 0.32 2.9-0.093 5.9-0.9 8.7-1.5 1.9-4.1 1.2-6.1 0.73-1.8-0.56-3.5 0.78-5.3 0.68-5.7-0.072-11 0.067-17-0.077-2 0.11-3.7-1.2-5.4-2-3.4-1.9-4.9-5.8-5.5-9.5-0.037-6.6 0.016-13-0.01-20 0.036-4 1.6-8.3 5.1-10 2.1-1.6 4.7-2.3 7.3-2.1 6.2 0.088 12 0.12 19 0.042 2.6-0.77 1.2-4.1 1.1-6 0.042-3.5-0.38-7 0.57-10zm-24 26c-1.3 5.9-0.48 12-0.75 18-0.063 2.3 0.015 4.7 1 6.7 0.91 1.3 2.6 2 4.2 1.9 3.3-0.13 6.5-0.12 9.8-0.17 2.6-0.041 5.6 0.48 7.9-1.1 1.6-1.2 1.4-3.5 1.6-5.2-0.14-4.8-0.28-9.7 0.011-15 0.1-2-0.43-4-0.71-5.9-0.57-0.41-1.1-0.84-1.7-1.3-6.3-0.11-13-0.052-19-0.038-1.1-0.097-1.8 0.95-2.3 1.8z" fill="#f9f9f9"/>
	
	<path d="m1e3 336c1.1-1.2 2.3-2.6 4.1-2.5 1.8 0.13 3 1.7 3.6 3.3 0.61 2.3 0.025 4.6 0.19 6.9 0.19 2.4-0.28 4.8-0.015 7.2 0.35 0.7 1.1 1.1 1.9 1 5.2 0.068 10-0.14 16 0.011 0.97 1.1 2.7 1.9 2.5 3.6-0.037 1.9-1.7 3.2-3.2 4.1-5.3 0.23-11 0.018-16 0.1-0.67 0.75-1.8 1.4-1.4 2.6 0.57 4.3 0.093 8.6 0.31 13 0.099 3.7-0.68 7.8 1 11 2.8 2.3 7.6 2.3 10-0.48 1.5-1.4 2-4 4.3-4.4 2.9-0.17 5.3 3.2 4.3 5.9-1.2 2.2-2.3 4.5-4.3 6-4 2.6-8.9 2.3-13 2.1-3.7-0.98-7.3-3.3-8.8-7-0.34-1.2-1.1-2.2-1.1-3.4-0.025-8.1-0.079-16 0.015-24-0.42-0.37-0.83-0.74-1.2-1.1-2.4 0.33-4.9-0.29-6.5-2.3-0.4-1.2-0.41-2.7 0.014-3.9 1.9-2.5 5.5-0.92 7.7-2.9 0.026-4.9-0.24-9.8-0.011-15z"/>
	<path d="m141 355c1.3-1.1 2.6-2.2 4.2-2.9 3.8-0.31 7.7-0.089 11-0.15 4.2 0.051 8.3-0.15 12 0.16 1.6 0.63 3.1 1.5 4.5 2.6 2.2 1.8 2.7 4.7 3.6 7.3-0.86 1.8-2.6 4-4.8 3.8-2.6-1.1-3-4.3-5.1-6-6.6 0.014-13-0.032-20 0.02-2.3 1.4-2.5 4.3-2.7 6.7 0.14 4.7 0.16 9.3 0.047 14 0.077 1.5-0.047 3.1 0.49 4.5 0.69 1.9 2.8 2.7 4.6 2.8 4.8 0.29 9.6-0.17 14 0.17 1.9 0.14 3.7-0.84 4.5-2.5 1.2-1.6 2.1-3.8 4.3-4.1 1.8 0.86 3.4 2.4 4 4.2-0.33 2.7-1.9 5.1-3.7 7.1-2 2-4.9 2.6-7.6 2.9-5.4 0.14-11 0.015-16 0.065-4.7 0.24-9.6-2.4-12-6.7-1.4-2.6-1.4-5.7-1.4-8.6 0.073-5.3-0.03-11 0.021-16 0.3-3.4 1.2-7.2 4-9.5z"/>
	
		<path d="m246 360c1-3.8 4.4-6.9 8.3-7.7 6.1-0.28 12 6e-3 18-0.15 1.8 0.13 3.9-0.33 5.5 0.74 1.8 1.1 3.8 2 4.9 3.9 1.2 1.9 2 4.1 2.3 6.3 0.1 6.6-0.068 13 0.062 20 0.056 2.2-0.67 4.3-1.1 6.4-2.3 3.4-5.8 6.5-10 6.7-5.7 0.016-11-6e-3 -17 4e-3 -4.2-0.25-8.6-2.5-10-6.5-2.5-4.9-1.1-11-1.5-16 0.28-4.5-0.5-9.2 0.92-14zm7.3 3.6c-0.077 6.1 0.021 12-0.057 18 0.067 1.8-0.11 3.8 0.91 5.4 1.2 0.47 2.5 1 3.8 1 4.9 0.23 9.7-0.045 15 0.15 1.5 0.15 2.8-0.57 3.9-1.5 0.52-1.6 1.3-3.2 1.2-5-0.14-5.7 0.11-11-0.083-17-0.22-1.8-0.6-4.1-2.5-4.8-6.2-0.11-12-0.011-19-0.045-1.9-0.18-3.2 2-3.1 3.7z"/>
	
	
		<path d="m304 355c2.1-1.5 4.6-2.8 7.3-2.6 6.7 0.16 13-0.18 20 0.16 2.4 1.1 5 2.5 6.4 5 1.2 1.9 2 4.1 2 6.4 0.083 6.7 5e-3 13-0.036 20 0.36 6.4-5.6 12-12 12-5.5-0.042-11 0.031-16-0.042-2.6 0.062-4.9-1.2-7-2.6-1.5-0.97-2.3-2.6-3.3-4-0.32-1.7-1.3-3.2-1.2-4.9 0.062-7.4-0.087-15 0.077-22 0.74-2.6 1.7-5.5 4-7.2zm6 5.3c-2 1.1-2.2 3.6-2.3 5.6-0.03 5.7-0.021 11-0.01 17-6e-3 2.4 1.4 5.4 4.2 5.5 4.5-0.021 9-0.17 13-0.092 1.3-0.032 2.7 0.046 3.9-0.4 1.7-0.42 2.5-2.3 2.8-3.9 0.047-6.2 0.015-12 5e-3 -19 0.072-1.6-0.61-3.1-1.3-4.4-0.57-1-1.9-0.75-2.8-0.79-6 0.1-12-0.16-18 0.13z"/>
	
	<path d="m440 352c1.3 0 2.6-0.39 3.9-0.41 3.9 0.53 7.9 0.28 12 0.35 1.3 0.78 1.8 2.2 1.8 3.7-0.14 7.4 0.24 15 0.14 22 0.25 2.9-0.6 5.8-0.34 8.7 0.78 0.55 1.5 1.4 2.6 1.3 2.4 0.045 4.9-0.17 7.3 0.3 1.4 0.47 2.2 1.8 2.5 3.2-0.014 1.7-1.1 3-2.2 4.1-2.7 0.32-5.4 0.16-8.1 0.19-5.9-0.021-12 0.047-18-0.026-2.8 0.23-5.4-3.4-3.6-5.8 0.35-0.63 0.81-1.3 1.5-1.6 2.9-1.1 6.1 0.17 9.1-0.64 1.2-0.96 1.3-2.7 1.1-4.1-0.46-4.8 0.2-9.6-0.22-14-0.23-2.3 0.31-4.5 0.43-6.7 0.17-1.1-0.73-1.8-1.3-2.6-2.4-5e-3 -4.8 0.029-7.2-5e-3 -1.2 0.13-2-0.73-3-1.2-0.51-1.3-1.6-2.7-0.88-4.1 0.37-1 1.2-1.7 2-2.3z"/>
	
		<path d="m545 352c4.1-0.4 8.2-0.1 12-0.19 3.8 0.081 7.6-0.24 11 0.17 1.7 0.8 3.2 1.8 4.7 2.9 2 1.9 2.8 4.7 3.5 7.3 0.097 7.3 0.036 15 0.042 22-0.038 6.6-6.4 12-13 12-4.8-0.015-9.7-9e-3 -15 0-4.7 0.15-9.5-2.5-11-6.9-1.3-2.4-1-5.2-1.1-7.8 0.066-5.7 0.025-11 0.01-17-0.021-2.9 0.95-5.9 2.8-8.1 1.5-1.5 3.2-2.8 5.1-3.7zm2.2 7.6c-1.3 1-2.3 2.4-2.3 4.1-0.11 5.9 0.042 12-0.048 18 0.022 1.7-0.19 3.8 1.2 5.1 1.1 0.8 2.6 1.2 3.9 1.2 4.5 0.26 9-0.14 14 0.13 1.7 0.14 3.5-0.45 4.6-1.8 1.6-2.7 0.84-5.9 0.95-8.8-0.093-5.1 0.52-10-0.51-15-0.2-0.98-1.2-1.5-1.8-2.1-6.5 9e-3 -13-0.021-20 0.015z"/>
	
	
		<path d="m677 352c2.1-0.16 4.1 0.44 6.1 0.47 2.9-0.71 5.8-0.44 8.7-0.48 4 0.046 8-0.021 12-7e-3 1.8 0.1 3.8-0.26 5.3 0.97 3.6 1.7 6.1 5.5 6.5 9.4 0.22 6.1-0.058 12 0.057 18-0.057 1.9 0.025 3.8-0.21 5.7-1.2 5.3-6.2 9.6-12 9.5-6.1-0.088-12 0.19-18-0.24-1-0.26-1.9 0.51-1.9 1.5-0.23 3.5 0.2 7-0.084 10-4e-3 1.5-0.79 3.2-2.1 4-1.3 0.21-2.7 0.19-4 0-1.4-1-1.6-3-1.6-4.6-0.011-17 0-34 0-50-0.071-1.6 0.34-3.2 1.1-4.7zm8.9 7.8c-0.6 0.67-1.6 1.1-1.7 2.1-0.32 1.9-0.7 3.7-0.62 5.7 0.11 4 0.011 7.9 0.037 12 0.03 2-0.25 4.2 0.6 6.1 0.32 1.4 1.6 2.4 3 2.3 4.1 0.26 8.3-0.081 12 0 1.7-0.015 3.5 0.11 5.2-0.25 2.2-0.5 3.1-3 3.1-5.1-0.042-4.7-0.064-9.3-0.026-14 0.014-3 0.21-6.4-2-8.8-6.7 8e-3 -13-0.027-20 0.019z"/>
	
	<path d="m732 352c2.7-0.57 5.5-0.28 8.3-0.15 2.2 1.6 5.3 1.9 7.6 0.51 1-0.72 2.4-0.55 3.6-0.61 3.3 0.034 6.6-0.3 9.9 0.19 3.1 1.2 6.3 3.2 7.3 6.6 1.6 3.3 1.8 7.2 0.78 11-0.81 2.3-3.4 2.4-5.4 2.2-0.4-0.32-0.79-0.64-1.2-0.96-0.31-2.8-1.2-5.5-1.2-8.3-0.45-1.1-1.1-2.6-2.4-2.6-3.1-0.063-6.1-6e-3 -9.2-0.016-2.3 1.7-2.2 4.7-2.5 7.2 0.24 5 0.16 10 0.1 15 0 1.9-0.84 4.6 1 5.8 2.6 0.65 5.3-0.28 8 0.27 2.3 0.19 4.2 3 2.9 5.1-0.82 1.4-2.2 2.6-3.9 2.5-6.2 0.056-12 0.015-19 0.021-1.7-0.038-4-0.4-4.6-2.3-1-1.7-0.17-3.8 1.2-5.1 1.6-0.38 3.4-0.21 5-0.54 0.75-0.15 1.3-0.89 1.3-1.6-0.31-7.9-0.34-16 0.037-24 0.035-1.3-0.93-2.8-2.4-2.5-2.7 0.12-6.3-9e-3 -7.5-2.9-1-1.7 0.4-3.8 1.9-4.6z"/>
	
		<path d="m786 359c1.5-3.1 4.2-5.7 7.5-6.8 6.6-0.35 13 0 20-0.21 4.1-0.27 8.1 2 10 5.5 0.64 1.9 1.7 3.8 1.7 5.9-0.073 5.7-0.094 11-0.16 17 0.39 3.5-0.063 7.3-2 10-2.4 3-6.3 5.1-10 5-5.8-0.056-12 0.1-18-0.072-2-0.73-4.2-1.3-5.7-2.8-1.4-1.3-2.7-2.8-3.5-4.6-1.2-4.7-0.48-9.7-0.7-14 0.19-4.9-0.57-10 0.8-15zm9.3 0.85c-2.2 1.3-2 3.9-2.2 6.2-0.043 5.2 0.016 10-0.021 16-0.021 1.7 0.1 3.6 1.1 5.1 1.4 1.3 3.4 1.3 5.1 1.4 4.1 0.016 8.3-0.17 12 0 1.8 0.036 3.9-0.41 4.9-2.1 1.1-3.1 0.59-6.4 0.66-9.6-0.062-5 0.25-10-0.46-15-0.76-0.6-1.4-1.7-2.4-1.6-6.3-0.041-13-0.052-19 0.017z" fill="#f9f9f9"/>
	
	<path d="m848 352c1.2-0.069 2.3-0.3 3.5-0.39 4.1 0.44 8.2 0.27 12 0.29 2.6 1.9 2.1 5.5 2.1 8.3 0.22 6.9-0.094 14 0.058 21-0.12 6.8 0.077 14-0.073 20 0.031 4.7-3.4 9.4-8.1 10-5.4 0.18-11 0.14-16 0.015-3.1-0.61-5.6-2.9-7.1-5.5-0.8-2.9-1.2-5.9-0.021-8.8 0.43-0.42 0.88-0.83 1.3-1.2 1.3 0.073 2.8-0.28 4.1 0.22 2.3 1.2 0.66 4.3 2.1 6.1 1.5 1.9 4.2 1.5 6.4 1.5 2.6-0.17 5.2 0.36 7.8-0.18 1.8-0.7 1.8-3 1.9-4.6-0.084-11 0.094-21-0.077-32 0.13-2 0.32-4 0.28-6-0.65-0.48-1.1-1.4-2-1.3-2.5-0.17-5.2 0.25-7.6-0.2-2.6-0.94-3.1-4-2.2-6.3 0.5-0.38 1-0.76 1.5-1.1z"/>
	
		<path d="m884 360c1.5-3.7 4.6-7 8.6-7.9 7.6-0.062 15-0.11 23 0.031 2.3 1.5 5 2.9 6.3 5.5 2.6 4.3 1.8 9.4 1.9 14-0.046 1.7 0.41 3.8-1.2 4.9-2.1 0.61-4.3 1.3-6.5 1.2-7.1-0.1-14 0.084-21-0.17-1.2-0.056-2.6 0.016-3.1 1.3-0.31 1.8-0.2 3.7 0.02 5.5 0.38 2 2.1 3.4 4.1 3.4 4.8 0.089 9.6-0.057 14 0.031 2.2 0.084 4.4-1 5.5-3 0.93-1.5 1.8-3.6 3.8-3.7 1.9 0.63 3.9 2.2 4.1 4.3-0.42 3.6-2.9 6.7-5.9 8.7-3.8 1.8-8.1 1.4-12 1.4-4-0.042-8 0.098-12-0.073-2.8-0.64-5.5-2-7.3-4.2-0.72-1.6-2.3-2.8-2.4-4.6-0.49-4.8-0.12-9.7-0.28-15-0.048-4.1-0.16-8.2 0.35-12zm8.9 0.49c-1.8 1.9-1.3 4.8-1.6 7.2-0.37 1.9 2 2.7 3.5 2.5 4.5-0.27 9 0.053 13-0.21 2.1-0.14 4.4 0.89 6.4-0.041 0.72-1.7 0.72-3.6 1.1-5.4 0.34-1.9-1.2-3.4-2.3-4.7-6.1-0.048-12 0-18-0.027-0.82 0.02-1.9-0.11-2.4 0.7z" fill="#f9f9f9"/>
	
	<path d="m944 354c1.2-0.84 2.6-1.5 4.2-1.4 6.9-0.048 14-0.097 21-0.01 1.4-0.16 2.5 0.8 3.9 1.2 2.6 1.7 4.2 4.3 5.4 7 0.47 2-0.4 4.2-2.4 5-1.6 1-3.7 0.043-4.5-1.6-0.73-1.5-1.9-2.7-3.2-3.9-6.6-0.034-13-5e-3 -20-0.014-2 1.6-2.2 4.4-2.1 6.8 0.018 5.2-0.031 10-0.015 16 0.13 2 0.35 4.8 2.6 5.5 2.5 0.77 5.1 0.26 7.7 0.34 2.3 0.088 4.5-0.11 6.8 0.058 1.6 0.071 3.3 0.23 4.7-0.64 2.7-1 2.8-4.9 5.7-5.7 3-0.49 5.3 3.1 4.5 5.8-1.2 2.3-2.4 4.8-4.7 6.3-2.3 1.3-5 2.1-7.7 2-5.9-0.065-12 0.1-18-0.088-1.7-0.48-3.2-1.3-4.8-2.1-2.6-2.2-5-5.2-4.9-8.8-0.12-7.3-0.032-15-0.079-22-0.072-3.9 2.5-7.2 5.5-9.4z"/>
	<path d="m1077 356c2.1-2.3 4.9-4.6 8.3-4.3 6.9 0.11 14-0.16 21 0.11 4.4 0.97 7.5 5.1 8.7 9.3-0.7 2-2.2 4.6-4.6 4.3-2.8-1.1-3.4-4.5-5.9-5.9-6.5-9e-3 -13-0.046-19 0.022-0.48 0.44-0.96 0.87-1.4 1.3-0.49 1.4-1.5 2.9-1.1 4.5 0.31 1.1 0.76 2.1 1.5 3 1.3 1 3 1.5 4.6 1.5 4.8-0.15 9.6-6e-3 14-0.077 3.7-0.11 7.5 1.6 9.3 4.9 2.7 3.4 2.6 7.9 1.9 12-1 3.1-3 6.3-6.2 7.6-1.6 0.68-3.3 1.5-5 1.4-5.7-0.048-11 0.031-17-0.042-2.4 0.18-4.4-1.2-6.5-2-2.4-1.7-3.7-4.4-4.8-7-0.35-1.9 0.92-3.5 2.1-4.7 0.96-0.1 2-0.3 2.9-0.025 1.3 0.16 1.6 1.5 2.3 2.4 1.1 1.9 3 3.8 5.5 3.6 4.8-0.035 9.7-0.21 15 0.02 1.8-0.34 3.6-1.4 4.5-3.1 0.72-2.5 0.13-5.9-2.5-7-3.4-0.5-6.9-0.017-10-0.19-4.3-0.11-9 0.72-13-1.9-0.24-0.041-0.72-0.12-0.96-0.17-2.7-2-4.5-5-5.4-8.2-0.42-3.9 0.14-8.1 2.6-11z"/>
	
		<path d="m1133 357c1.7-2 3.8-3.7 6.3-4.5 4-0.39 8-0.031 12-0.15 3.6 0.038 7.2-0.13 11 0.11 5.9 1.7 9.6 8 8.6 14-0.89 3.1 1.2 6.6-0.72 9.4-1.2 2-3.7 2.3-5.8 2.4-7.6 0.016-15 0.042-23-0.046-1.2-0.11-2.8 0.32-3 1.7 0.23 1.9 0.45 3.8 0.87 5.7 0.25 1.9 2.4 2.9 4.2 2.9 4.5 0 9-0.19 13 0 2.2 0.078 4.5-0.93 5.9-2.7 1.2-1.5 2.3-3 3.9-4.1 2.4 0.68 3.9 3 4.2 5.4-0.44 2.2-2.1 3.8-3.3 5.5-1.7 2.4-4.8 3-7.5 3.5-6.6-0.051-13 0.17-20-0.13-3.2-1.1-6.5-2.8-8-6-2.3-4-1.5-8.8-1.7-13-0.076-3.4 0.039-6.9 0.044-10-0.29-3.3 0.69-6.6 2.2-9.4zm6.3 4.7c-0.44 2.3-0.34 4.7-0.86 7 0.44 0.74 0.83 1.9 1.9 1.7 7.1 0.083 14-0.063 21 0.056 1 0.12 1.4-1.1 1.4-1.9-0.083-2.2-0.17-4.5-0.46-6.7-0.78-0.83-1.7-1.8-3-1.7-6.2 4e-3 -12-0.012-19 0.016-0.52 0.53-1 1.1-1.5 1.6z" fill="#f9f9f9"/>
	
	<path d="m1184 356c0.011-1.3-0.34-3.2 1-4 2.9-0.4 5.9-0.1 8.9-0.1 2-0.26 3.4 2.8 5.4 1.4 0.96-0.4 1.8-0.99 2.8-1.4 4.5-0.36 9-0.21 13 0 1.5 0.78 3 1.8 4.3 2.9 1.3 1 1.9 2.7 2.8 4.1 0.95 3 1.4 6.2 0.86 9.3-0.55 2.1-2.8 3.7-4.9 3.3-1.1-0.085-1.7-1.1-2.5-1.7-0.069-2.9-0.71-5.7-1.2-8.5-0.49-0.56-0.94-1.1-1.4-1.7-3.2-0.01-6.5-0.067-9.7 0.036l-1.8 1.5c-0.8 3.1-0.32 6.3-0.44 9.4-0.17 4.7 0.31 9.3-0.31 14-0.22 1.4 0.46 3.1 2 3.3 2.7 0.21 5.4-0.21 8 0.37 1.7 0.77 3.1 3.2 1.8 4.9-0.68 1.2-1.7 2.7-3.3 2.6-6.9-0.01-14 0.017-21-0.015-1.4 0.087-2.2-1.2-3-2-0.2-1.4-0.64-2.9 0.073-4.2 2-2.3 5.7-0.7 7.6-3 0.53-1.9-0.12-4-0.018-5.9 0.068-5.7-0.092-11 0.094-17 0.032-1.3-0.55-2.8-1.6-3.5-2.6-0.16-5.4 0.19-7.7-1.2-0.79-0.58-0.5-1.7-0.64-2.5z"/>
	<path d="m1239 352c4.6-0.45 9.2 0.082 14-0.073 1.1 0.079 2.9-0.41 3.2 1.1 1 5.4 0.34 11 0.58 17-0.11 5.2 0.3 10-0.33 16-0.22 1.2 0.6 2.6 1.9 2.7 2.8 0.19 5.8-0.17 8.6 0.41 1.1 0.88 2 2.1 2.2 3.6-0.52 1.9-1.9 4.1-4.2 3.8-7.9 0.1-16 0.061-24 0.02-2.3 0.25-3.7-2-4.7-3.8 0.41-0.82 0.82-1.7 1.2-2.5 2.5-2.5 6.1-1.2 9.2-1.3 1.7-0.017 2.1-2.1 2.1-3.4-0.11-7.4-0.088-15 0.058-22-0.011-0.88 0.032-1.9-0.76-2.5-2.8-0.16-5.6-0.042-8.5-0.066-1.3-1.2-2.6-2.4-3.4-4 0.41-0.84 0.8-1.7 1.2-2.6 0.49-0.39 1-0.77 1.5-1.2z"/>
	
		<path d="m1281 357c1.5-2 3.7-3.2 5.9-4.2 3.3-0.46 6.6-0.098 9.9-0.17 4.5 0.032 9-0.14 14 0.1 3.9 1.4 7.1 4.7 8.1 8.7 0.61 3.3-0.14 6.6 0.23 9.9 0.045 1.7 0.2 3.6-0.65 5.2-1.7 1.4-4 2-6.2 2-7.4-0.092-15 0.073-22-0.12-0.81 0.063-1.8-0.2-2.4 0.33-1.1 1.1-0.36 2.7-0.42 4 0.15 2.1 0.24 5.1 2.8 5.6 3.6 0.67 7.3 0.1 11 0.29 3.1-0.021 6.5 0.66 9.1-1.4 1.8-1.4 2.4-3.9 4.3-5.1 3.4-0.25 6.2 4.4 4.1 7.3-1.7 2.3-3.2 4.9-6 6-1.9 0.49-3.9 1.1-5.9 1-5.7-0.072-11 0.082-17-0.084-1.6 0.11-2.9-0.95-4.2-1.6-3.8-1.7-5.8-5.9-6-9.9 0.01-5.5 0.017-11 0.047-17-0.032-2.5-0.35-5.1 0.38-7.5 0.78-1.1 0.84-2.6 1.8-3.7zm7 4c-1.1 1.4-1.3 3.4-1.4 5.1-0.016 1.3-0.38 2.6 0.16 3.8 2.6 1.2 5.6 0.69 8.4 0.65 4.9 0.19 9.8-0.098 15 0.25 1.4-1.6 0.86-3.8 0.92-5.8-0.12-1.8-0.6-4-2.5-4.6-5.9-0.12-12 0-18-0.061-0.88 0.032-1.9-0.12-2.5 0.64z" fill="#f9f9f9"/>
	
	<path d="m1334 358c1.6-2.7 4.1-4.9 7.1-5.9 7.1-0.16 14-0.038 21-0.063 2.5-0.33 4.7 1.3 6.8 2.5 0.66 1.3 2.1 2.2 2.3 3.8 0.3 1.5 1.8 2.8 1 4.4-0.96 1.3-2.3 2.4-3.7 3.1-1 0.45-2-0.34-2.4-1.2-0.99-1.7-2.5-3.1-3.5-4.8-6.6-4e-3 -13-0.014-20 0-1.1 1-2.4 2-2.5 3.6-0.44 2.6 0.86 6.1 3.8 6.4 3.7 0.5 7.5-0.012 11 0.24 3.7 0.22 7.9-0.83 11 1.4 2 1.3 3.5 3.2 4.8 5.1 0.23 2.4 1.5 4.6 1.2 7.1 0.063 2-0.86 3.7-1.2 5.6-2.2 3.2-5.3 6-9.2 6.5-3.6 0.084-7.2 0-11 0.03-4.4-0.1-9.2 0.63-13-1.6-2.7-1.1-3.9-3.9-5.4-6.2-0.14-1.2-0.15-2.3-0.061-3.5 1-1.3 2.2-2.8 4.1-2.7 1.6 0.21 2.6 1.6 3.2 3 0.9 2 3.1 3.1 5.2 3.2 4.5 0.44 9-0.24 13 0.15 1.7 0.11 3.8-0.1 4.8-1.6 0.67-1.4 1.6-2.8 1.4-4.4-0.29-1.6-1.2-3.1-2.5-4.1-5.9-0.046-12 4e-3 -18-0.042-1.6 0.083-3-0.88-4.6-1.1-0.99-0.76-2.3-0.98-3.2-1.8-1.2-0.96-1.9-2.4-3-3.5-0.097-1-0.43-2-1.1-2.8-0.15-2.1-0.39-4.1-0.12-6.2-0.019-1.6 0.96-2.9 1.2-4.4z"/>
</g></g>
</svg>
