<?xml version="1.0" encoding="utf-8"?>
<!-- Generator: Adobe Illustrator 24.3.0, SVG Export Plug-In . SVG Version: 6.00 Build 0)  -->
<svg version="1.1" id="Layer_1" xmlns:svg="http://www.w3.org/2000/svg"
	 xmlns="http://www.w3.org/2000/svg" xmlns:xlink="http://www.w3.org/1999/xlink" x="0px" y="0px" viewBox="0 0 567 162.3"
	 style="enable-background:new 0 0 567 162.3;" xml:space="preserve">
<style type="text/css">
	.st0{fill:url(#SVGID_1_);}
	.st1{fill:url(#path6_2_);}
	.st2{fill:#FFFFFF;}
</style>
<g id="path4_1_">
	<linearGradient id="SVGID_1_" gradientUnits="userSpaceOnUse" x1="163.8022" y1="-29.0792" x2="222.8013" y2="191.1087">
		<stop  offset="0.2791" style="stop-color:#2E6589"/>
		<stop  offset="0.5055" style="stop-color:#13305C"/>
		<stop  offset="0.7832" style="stop-color:#122956"/>
		<stop  offset="0.8719" style="stop-color:#1E3C68"/>
		<stop  offset="0.9461" style="stop-color:#254672"/>
	</linearGradient>
	<path class="st0" d="M400.8,81.1L400.8,81.1c0,44.8-36.3,81.1-81.1,81.1H213c-12.1,0-22-9.8-22-22V63.9c0-11.8-9.5-21.3-21.3-21.3
		h-32.6v98.8c0,11.5-9.4,20.9-20.9,20.9c-5.8,0-11-2.3-14.8-6.1c-3.8-3.8-6.1-9-6.1-14.8V42.6H63.1c-11.8,0-21.3,9.5-21.3,21.3V142
		c0,11.2-9.1,20.3-20.3,20.3h-1.2C9.1,162.3,0,153.2,0,142V63.7C0,28.5,28.5,0,63.7,0h104.9c35.2,0,63.7,28.5,63.7,63.7v56.9h86.8
		c21.8,0,39.5-17.7,39.5-39.5v0c0-21.8-17.7-39.5-39.5-39.5h-66c-11.5,0-20.8-9.3-20.8-20.8S241.7,0,253.2,0h66.5
		C364.5,0,400.8,36.3,400.8,81.1z"/>
</g>
<linearGradient id="path6_2_" gradientUnits="userSpaceOnUse" x1="421.202" y1="-19.8586" x2="471.9962" y2="169.7077">
	<stop  offset="0" style="stop-color:#224E75"/>
	<stop  offset="7.527001e-02" style="stop-color:#1E466F"/>
	<stop  offset="0.1887" style="stop-color:#14325D"/>
	<stop  offset="0.1969" style="stop-color:#13305C"/>
	<stop  offset="0.5098" style="stop-color:#122956"/>
	<stop  offset="0.5231" style="stop-color:#142C59"/>
	<stop  offset="0.6401" style="stop-color:#203F6B"/>
	<stop  offset="0.7207" style="stop-color:#254672"/>
</linearGradient>
<path id="path6_1_" class="st1" d="M567,75.7v9.1c0,42.8-34.7,77.5-77.5,77.5H347.1c33.2-11.1,58.2-43,58.2-81.1
	c0-38.5-25.1-70-58.2-81.1h144.3C533.1,0,567,33.9,567,75.7z"/>
<path id="path8_1_" class="st2" d="M533.5,67.6L515,99.8l-1.6,2.6c-0.5,0.6-1,1.1-1.8,1.6c-1,0.5-2,0.8-3,0.8c-2.1,0-4.1-1.1-5.2-3
	l-0.9-1.6l-15.8-27.4h-19.7v25.4c0,3.4-2.8,6.4-6.3,6.3c-1.6,0-3-0.7-4.1-1.8c-1.1-1.1-1.8-2.6-1.8-4.3V72.7h-18.2
	c-3.3,0-6.1-2.7-6.1-6.1c0-1.7,0.7-3.2,1.8-4.3c1.1-1.1,2.6-1.8,4.3-1.8h51.8c3.2,0,6.2,1.7,7.9,4.5l4.2,7.3l9,15.6l14.9-25.8
	c1-1.7,2.8-2.7,4.6-2.7c0.9,0,1.8,0.2,2.6,0.7C534.1,61.8,535,65,533.5,67.6z"/>
</svg>
