<?xml version="1.0" encoding="UTF-8" standalone="no"?>
<!-- Created with Inkscape (http://www.inkscape.org/) -->

<svg
   xmlns:dc="http://purl.org/dc/elements/1.1/"
   xmlns:cc="http://creativecommons.org/ns#"
   xmlns:rdf="http://www.w3.org/1999/02/22-rdf-syntax-ns#"
   xmlns:svg="http://www.w3.org/2000/svg"
   xmlns="http://www.w3.org/2000/svg"
   xmlns:sodipodi="http://sodipodi.sourceforge.net/DTD/sodipodi-0.dtd"
   xmlns:inkscape="http://www.inkscape.org/namespaces/inkscape"
   width="207.7632mm"
   height="98.104362mm"
   viewBox="0 0 207.7632 98.104362"
   version="1.1"
   id="svg8"
   inkscape:version="0.92.3 (2405546, 2018-03-11)"
   sodipodi:docname="MyTV_Logo.svg">
  <defs
     id="defs2" />
  <sodipodi:namedview
     id="base"
     pagecolor="#ffffff"
     bordercolor="#666666"
     borderopacity="1.0"
     inkscape:pageopacity="0.0"
     inkscape:pageshadow="2"
     inkscape:zoom="0.35"
     inkscape:cx="595.48406"
     inkscape:cy="269.72598"
     inkscape:document-units="mm"
     inkscape:current-layer="layer1"
     showgrid="false"
     showguides="true"
     inkscape:guide-bbox="true"
     fit-margin-top="0"
     fit-margin-left="0"
     fit-margin-right="0"
     fit-margin-bottom="0"
     inkscape:window-width="1366"
     inkscape:window-height="745"
     inkscape:window-x="-8"
     inkscape:window-y="-8"
     inkscape:window-maximized="1" />
  <metadata
     id="metadata5">
    <rdf:RDF>
      <cc:Work
         rdf:about="">
        <dc:format>image/svg+xml</dc:format>
        <dc:type
           rdf:resource="http://purl.org/dc/dcmitype/StillImage" />
        <dc:title></dc:title>
      </cc:Work>
    </rdf:RDF>
  </metadata>
  <g
     inkscape:label="Layer 1"
     inkscape:groupmode="layer"
     id="layer1"
     transform="translate(94.588596,-128.74956)">
    <path
       style="fill:#47c2d1;fill-opacity:1;stroke-width:0.43348932"
       d="m -2.6046873,185.71556 c 0.5653509,5.1575 0.4008898,12.90251 -0.3259632,15.35415 -1.5858991,5.34917 -4.5951073,9.0695 -8.9534175,11.06752 -2.452354,1.12426 -3.233917,1.25337 -8.441186,1.39869 l -5.738652,0.16007 c -1.091826,3.33928 -3.342501,9.57783 -4.103757,12.52632 1.100283,1.06336 12.251587,0.59957 16.160178,-0.0457 6.6984937,-1.10589 12.5371252,-3.2247 17.2743787,-6.99425 4.2479351,-3.38018 9.9585713,-10.56611 12.7125813,-15.99678 0.537865,-1.06062 1.119472,-2.02615 1.292002,-2.14543 0.172519,-0.11927 1.149124,-1.67977 2.170832,-3.46792 3.516418,-6.15425 4.612443,-8.02463 5.772521,-9.85341 0.63976,-1.00854 1.163307,-1.93682 1.163307,-2.0633 0,-0.12648 0.97535,-1.78677 2.167447,-3.6889 1.192096,-1.90214 2.167446,-3.57162 2.167446,-3.71006 0,-0.13844 0.557134,-1.06752 1.238661,-2.06415 0.681527,-0.99663 2.030608,-3.27487 2.998022,-5.06302 0.967413,-1.78813 2.937396,-5.20187 4.377221,-7.58607 l 2.617869,-4.33488 -5.412686,-0.12108 c -10.281118,-0.23064 -10.541273,-0.003 -18.82038,16.51323 -3.368619,6.72003 -6.307981,12.40313 -6.531973,12.62962 -0.254818,0.25767 -0.415464,-0.22911 -0.428409,-1.30047 -0.01131,-0.94176 -0.371258,-7.15746 -0.8000907,-13.81324 -0.3567419,-5.53687 -0.540803,-8.64995 -0.7359543,-10.46385 -0.075349,-4.02379 -4.4097404,-3.61025 -7.1978371,-3.64385 -2.88219397,-0.0236 -6.0890716,0.33294 -11.0192433,0.34211 5.5758935,5.40149 5.153051,16.6601 6.3970831,26.36471 z"
       id="path1007"
       inkscape:connector-curvature="0"
       sodipodi:nodetypes="csscccsscccsscscccccsccsccccc" />
    <path
       style="fill:#a92e96;fill-opacity:1;stroke-width:0.43348932"
       d="m 38.709448,214.18885 c -1.787813,-0.38933 -2.920941,-1.24802 -3.723947,-2.82205 -0.746941,-1.46413 -0.791711,-2.64352 -0.82769,-12.08787 l -0.0387,-10.15979 c -1.908001,-0.01 -3.956643,0.0115 -5.635362,0 0,-0.0772 0.567017,-1.27476 1.212734,-2.59135 1.115974,-2.27542 1.255303,-2.3938 2.817679,-2.3938 h 1.643654 v -2.96007 c 0,-2.52239 0.183549,-3.24352 1.241244,-4.87676 0.682685,-1.05416 2.434758,-3.96488 3.893493,-6.46828 l 2.652249,-4.55163 0.0079,9.42838 0.0079,9.4284 h 5.57387 5.57387 l 2.044271,10.29133 c 1.124345,5.66023 2.109558,10.35661 2.189354,10.43641 0.242139,0.24214 0.540823,-1.07127 2.397046,-10.54074 0.981445,-5.00681 1.93495,-9.76977 2.054869,-10.187 2.660514,-0.0197 5.068083,0.0228 7.51896,0 0,0.55149 -4.279838,17.73123 -6.61663,26.55128 l -0.89008,3.35954 H 57.374393 52.94265 l -0.672203,-2.7093 c -2.046315,-8.24766 -4.418949,-17.21134 -5.44698,-20.66824 -0.239113,-1.12303 -0.633211,-1.64731 -1.759644,-1.54811 l -2.886476,-1e-5 -0.117357,9.0592 c -0.131792,10.1728 -0.0033,10.66456 2.785484,10.66456 h 1.450027 v 2.81769 2.81768 l -3.359542,-0.0503 c -1.847747,-0.0277 -3.749683,-0.13517 -4.22652,-0.2391 z"
       id="path945"
       inkscape:connector-curvature="0"
       sodipodi:nodetypes="ccsccsscscccccccscsccscccccccsscccccc" />
    <path
       style="fill:#a92e96;fill-opacity:1;stroke-width:0.43348932"
       d="m -94.588509,207.12931 c 0,-0.22719 0.189414,-0.86118 0.420917,-1.40884 0.231504,-0.54767 2.972309,-8.11581 6.090679,-16.81811 3.118371,-8.70229 6.05008,-16.77496 6.514906,-17.93924 1.347948,-3.37626 1.431588,-3.30174 -3.706485,-3.30174 -2.503403,0 -4.551646,-0.0809 -4.551646,-0.1797 0,-0.0988 0.604105,-1.76171 1.34246,-3.69525 1.87423,-4.90809 1.550338,-4.79483 13.711691,-4.79483 10.977243,0 11.359331,0.0868 12.51046,2.84183 0.512061,1.22556 0.505573,1.68627 -0.04588,3.24902 -0.353366,1.00152 -0.642476,1.91035 -0.642476,2.01963 0,0.10928 0.731506,-0.37329 1.625589,-1.07235 2.993526,-2.34058 7.54604,-4.82224 10.887788,-5.93515 4.663449,-1.55307 10.227158,-1.567 13.304913,-0.0333 2.417232,1.20456 4.525962,3.97811 4.525962,5.95289 0,1.36451 0.860426,1.61602 1.771789,0.51789 0.882324,-1.06314 5.098722,-3.79902 7.764977,-5.03844 5.706774,-2.65282 10.444426,-3.4054 15.9940985,-2.54063 5.1463255,0.80193 7.8542281,3.54183 7.84312313,7.93585 -1.747878,9.60179 -5.78363083,17.67665 -8.64501083,25.28678 -3.1668058,8.42002 -4.6255848,11.01044 -7.1421628,12.92992 -2.813333,2.14584 -4.083612,2.43685 -10.637061,2.43685 -3.345528,0 -6.082774,-0.17239 -6.082774,-0.3831 0,-0.21072 2.268342,-6.50123 5.040761,-13.97891 2.772421,-7.47771 5.129852,-14.27907 5.238736,-15.11414 0.781049,-5.99026 -6.67209,-6.997 -11.240552,-1.51834 -1.602532,1.92183 -2.091919,3.02151 -5.985485,13.44998 -3.812554,10.21151 -4.880109,12.40292 -6.933218,14.23225 -3.002815,2.67552 -4.437663,3.08374 -11.370996,3.23513 -3.516678,0.0768 -6.393961,0.0354 -6.393961,-0.0919 0,-0.1273 2.361339,-6.52991 5.247403,-14.22801 5.904607,-15.74945 6.265707,-17.4204 4.156811,-19.23537 -2.025928,-1.74356 -5.456837,-1.2068 -8.855387,1.38541 -1.865203,1.42265 -3.203157,3.56832 -4.573814,7.33505 -2.968114,8.15675 -6.540317,17.07998 -7.485435,18.69833 -1.393447,2.38605 -4.160646,4.70625 -6.607147,5.53986 -2.2429,0.76422 -13.09366,0.98024 -13.09366,0.26066 z"
       id="path925"
       inkscape:connector-curvature="0"
       sodipodi:nodetypes="csscsscsccssscscsscccsssccsccscccscccc" />
    <path
       style="fill:#a92e96;fill-opacity:1;stroke-width:0.43348932"
       d="m 107.4175,191.04716 c -6.32608,-1.19088 -18.127205,-9.25655 -29.225889,-19.97489 l -5.669998,-5.4757 c 5.537215,0.69122 10.674477,-1.82113 9.88432,-7.0316 -0.790927,-4.5832 -4.673786,-10.028 -6.961701,-12.19013 -2.605629,-2.8144 -11.545787,-9.40416 -17.976554,-13.25045 -2.210777,-1.32229 -4.117129,-2.5054 -4.236338,-2.62915 10.828228,-0.2492 31.056068,12.6115 37.66537,18.7397 9.94872,9.43531 15.73022,16.76883 19.77521,25.0838 2.632,5.52506 5.11288,18.22741 -3.25442,16.72848 z"
       id="path881"
       inkscape:connector-curvature="0"
       sodipodi:nodetypes="csccccccccc" />
    <path
       style="fill:#a92e96;fill-opacity:1;stroke-width:0.43348932"
       d="m 54.311027,166.30552 c -9.70605,-9.99926 -15.92139,-20.34416 -17.273786,-28.54989 -0.77543,-4.33427 0.554549,-9.28057 4.908022,-8.99419 6.066314,0.55007 17.25805,8.10181 28.6159,19.31551 4.49721,4.44012 5.552953,5.77955 5.955699,6.23965 -6.08011,-0.56999 -9.152785,2.65004 -8.759916,7.57786 0.387622,2.38064 1.491694,5.2902 2.764088,7.28419 3.129369,4.90408 13.228807,13.49028 22.233997,18.90256 1.856841,1.116 2.931423,1.71758 2.695957,1.70057 -15.855276,-2.15706 -32.140578,-14.3288 -41.139961,-23.47626 z"
       id="path873"
       inkscape:connector-curvature="0"
       sodipodi:nodetypes="cccscccccc" />
  </g>
</svg>
