<svg xmlns="http://www.w3.org/2000/svg" width="316.187" height="131.646" viewBox="0 0 316.187 131.646">
  <path id="パス_645" data-name="パス 645" d="M526.938,285.942h13.518V293.7H521.92l-6.913,10.684h25.449v7.754H509.989l-11.836,18.29-6.51-4.213,9.11-14.077H488.08V304.38h17.691l6.913-10.684h-24.6v-7.754H517.7l13.052-20.169,6.51,4.213Zm124.977,55.063L606.736,229.118l-28.62,129.253h7.5L608.857,254.4h.326L651.915,360.25,694.81,254.4h.327l23.238,103.972h7.5L697.257,229.118ZM804.267,236.358V228.6H742.245v129.9h62.022v-7.753H750.515V291.317H802.89v-7.754H750.515v-47.2Z" transform="translate(-488.08 -228.604)"/>
</svg>
