<?xml version="1.0" encoding="utf-8"?>
<!-- Generator: Adobe Illustrator 24.3.0, SVG Export Plug-In . SVG Version: 6.00 Build 0)  -->
<svg version="1.1" id="Layer_1" xmlns="http://www.w3.org/2000/svg" xmlns:xlink="http://www.w3.org/1999/xlink" x="0px" y="0px"
	 viewBox="0 0 1813 223" style="enable-background:new 0 0 1813 223;" xml:space="preserve">
<style type="text/css">
	.st0{fill:#F58220;}
	.st1{fill:#687057;}
</style>
<g>
	<g>
		<path id="path823" d="M112.4,128.2l68.3,89h-70.3L57,133.7h-0.6v83.6H0V0h84.4c21.5,0.2,39.5,5.7,53.9,16.4
			c14.4,10.6,21.6,27.5,21.6,50.7c0,15-4.1,28.3-12.4,40c-8.1,11.5-19.8,18.6-35.1,21.3V128.2z M56.5,43.2v54.2h5.5
			c1,0.2,1.9,0.3,2.9,0.3c1,0,1.8,0,2.6,0c8.5-0.4,16.1-2.3,23-5.8c7.1-3.6,10.7-10.8,10.7-21.3c0-10.6-3.6-17.6-10.7-21
			c-6.9-3.6-14.6-5.7-23-6.1c-0.8,0-1.6,0-2.6,0c-1,0-1.9,0-2.9,0L56.5,43.2z"/>
		<path id="path825" d="M309.6,47.6h-67.1v36.1h63.7v47.6h-63.7v37.2h67.1V216H186V0h123.6V47.6z"/>
		<path id="path827" d="M327.6,217.2V0h86.4c23.4,0.2,42.4,6,57,17.3C485.7,28.6,493,46.8,493,71.7c0,25.5-6.7,44.3-20.2,56.2
			c-13.3,11.7-32.2,17.6-56.8,17.6l-32-0.3v72H327.6z M384.1,45.5v54.2h9.5c10.2,0.2,19.5-0.8,27.9-2.9c8.5-2.3,12.7-10.1,12.7-23.3
			c0-13.6-4-21.6-12.1-23.9c-8.1-2.5-17.6-3.7-28.5-3.7L384.1,45.5z"/>
		<path id="path829" d="M633.3,0h56.3v122.2c0,14.2-1.1,27.9-3.4,41.2c-2.1,13.3-8.5,25.2-19.2,35.7c-6.9,6.9-15.1,12.2-24.7,15.8
			c-9.4,3.5-19.1,5.8-29,6.9c-3.1,0.4-6.1,0.7-9.2,0.9c-3.1,0.2-6,0.3-8.9,0.3s-5.8-0.1-8.9-0.3c-3.1-0.2-6.1-0.5-9.2-0.9
			c-10-1.2-19.7-3.5-29.3-6.9c-9.4-3.6-17.5-8.9-24.4-15.8c-10.7-10.6-17.2-22.5-19.5-35.7c-2.1-13.3-3.2-26.9-3.2-40.9V0h56.3
			v114.4c0,1.3,0,2.6,0,3.7c0,1,0,2,0,3.2c0.2,13.1,2.4,25.1,6.6,36c4.4,10.9,14.9,16.4,31.6,16.4c16.7,0,27.1-5.5,31.3-16.4
			c4.4-10.9,6.7-23,6.9-36c0-1.2,0-2.2,0-3.2c0-1.2,0-2.3,0-3.5V0z"/>
		<path id="path831" d="M790.7,217.2H704V0h80.4c19.3,0.2,34.8,4.5,46.5,13c11.9,8.5,17.8,23,17.8,43.8c0,9.8-1.8,18.5-5.5,26.2
			c-3.4,7.7-9.6,13.7-18.4,18.2v0.3c15.5,2.1,26.7,8.2,33.6,18.2c7.1,9.8,10.6,22.3,10.6,37.5c0,22.7-8.1,38.4-24.4,47.3
			C828.6,212.9,810.6,217.2,790.7,217.2L790.7,217.2z M760.3,127.3V174h7.2c0.2,0.2,0.4,0.3,0.6,0.3c0.4,0,0.8,0,1.1,0
			c2.3,0,4.7,0,7.2,0s5-0.1,7.5-0.3c7.1-0.6,13.6-2.4,19.5-5.5c5.9-3.1,8.9-8.8,8.9-17.3c0-9.8-3.3-16.1-9.8-19
			c-6.5-2.9-13.6-4.4-21.2-4.6c-1.7,0-3.5,0-5.5,0c-1.7,0-3.4,0-5.2,0c-0.8,0-1.5,0-2.3,0c-0.8,0-1.5,0-2.3,0L760.3,127.3z
			 M760.3,43.2v42.1h6.3c0.2,0.2,0.4,0.3,0.6,0.3c0.4,0,0.8,0,1.1,0c7.1-0.2,13.6-1.5,19.5-4c6.1-2.5,9.2-8.2,9.2-17
			c0-8.8-2.9-14.5-8.6-17c-5.7-2.5-12-3.8-18.7-4c-1,0-1.9,0-2.9,0c-0.8,0-1.6,0-2.6,0L760.3,43.2L760.3,43.2z"/>
		<path id="path833" d="M939,0v169.2h67.7v47.8H882.6V0H939z"/>
		<path id="path835" d="M1078.1,0v217H1022V0H1078.1z"/>
		<path id="path837" d="M1149.4,91.2l68-89.4h69.8L1201,104.4l93.9,114.2H1222l-72.6-94h-0.6v94h-56.3V1.8h56.3v89.4H1149.4z"/>
		<path id="path839" d="M1446.2,180.9h-77.8l-15,37.7h-59.9L1377,1.8h61.7l81.8,216.8h-60.2L1446.2,180.9z M1430.9,137.8l-23-69
			h-0.6l-23.3,69H1430.9z"/>
	</g>
	<g>
		<path class="st0" d="M1752.9,154h-40.5c-8.6,0-16.3-5.2-19.5-13.2L1655.4,46H1608v85.3c0,12.6-10.2,22.7-22.7,22.7H1556V46h-24.3
			c-12,0-21.8-9.8-21.8-21.8V4h183.5L1752.9,154z"/>
		<path class="st1" d="M1812.6,4l-53.3,135.3L1731.8,70l20.2-51.2c3.5-8.9,12.1-14.8,21.7-14.8H1812.6z"/>
	</g>
</g>
</svg>
