<svg xmlns="http://www.w3.org/2000/svg" xmlns:xlink="http://www.w3.org/1999/xlink" version="1.1" width="204.28965759277344" height="301.1202697753906" viewBox="-0.2896541357040405 -0.7714982032775879 204.28965759277344 301.1202697753906">
  
  <g id="ID0.9517909814603627">
    <g id="ID0.9255830170586705">
      <path id="ID0.08649248676374555" fill="#E49586" stroke="#9D583F" stroke-width="1.000000011580477" d="M 51.2175 219.2982 C 50.4422 219.0075 49.3661 219.7413 48.254 221.1602 C 47.1417 222.58 45.9932 224.6858 45.0729 227.14 C 44.1526 229.5941 43.6333 231.9358 43.5378 233.737 C 43.4426 235.5372 43.7709 236.7977 44.5462 237.0885 C 45.3215 237.3792 46.3977 236.6453 47.5097 235.2264 C 48.622 233.8066 49.7705 231.7008 50.6908 229.2467 C 51.6111 226.7926 52.1304 224.4508 52.226 222.6497 C 52.3211 220.8495 51.9928 219.5889 51.2175 219.2982 Z "/>
      <path id="ID0.44577134121209383" fill="#FBCAA2" stroke="#9D583F" stroke-width="1" stroke-linecap="round" d="M 44.7 178 L 44.7 211.25 L 41.95 213.5 L 40.7 217 L 39.95 223.5 L 38.45 228 L 36.45 232 L 36.45 234.75 L 38.45 235.75 L 40.45 236 L 43.45 234.75 L 45.95 231.75 L 48.45 227.25 L 49.2 223.5 L 52.2 224 L 55.45 224.75 L 58.45 226.75 L 62.7 228 L 65.7 228 L 67.45 226 L 67.2 223.75 L 65.2 223 L 61.95 221.25 L 59.95 218.25 L 58.7 214.5 L 56.95 212.5 L 55.95 207.5 L 56.45 179 L 45.2 179 Z "/>
      <path id="ID0.6523044565692544" fill="#FDB723" stroke="#FC7C35" stroke-width="1" d="M 60.2 170.25 L 40.2 170.25 L 40.2 182.25 L 60.2 182.25 L 60.2 170.25 Z "/>
      <path id="ID0.3490174412727356" fill="#FDB723" stroke="#FC7C35" stroke-width="1" d="M 50.825 145.75 C 46.376 145.75 42.345 147.585 39.426 150.549 C 36.507 153.514 34.7 157.607 34.7 162.125 C 34.7 166.643 36.507 170.736 39.426 173.701 C 42.345 176.665 46.376 178.5 50.825 178.5 C 55.274 178.5 59.305 176.665 62.224 173.701 C 65.143 170.736 66.95 166.643 66.95 162.125 C 66.95 157.607 65.143 153.514 62.224 150.549 C 59.305 147.585 55.274 145.75 50.825 145.75 Z "/>
      <path id="ID0.3188586854375899" fill="#FFFFFF" stroke="none" d="M 59.95 180 L 40.7 180 L 40.7 181.75 L 59.95 181.75 L 59.95 180 Z " stroke-width="1"/>
      <path id="ID0.8641150775365531" fill="#F46E86" stroke="#DD3556" stroke-width="1" d="M 58.45 204.5 L 42.95 204.5 L 42.95 212.75 L 58.45 212.75 L 58.45 204.5 Z "/>
      <path id="ID0.5594642525538802" fill="#DD3556" stroke="none" d="M 58.2 204.5 L 53.45 204.5 L 53.45 212.75 L 58.2 212.75 L 58.2 204.5 Z " stroke-width="1"/>
      <path id="ID0.2013889760710299" fill="#FFFFFF" stroke="none" d="M 57.2 206.5 L 44.2 206.5 L 44.2 208.25 L 57.2 208.25 L 57.2 206.5 Z " stroke-width="1"/>
    </g>
    <g id="ID0.5333876092918217">
      <path id="ID0.7994856317527592" fill="#FBCAA2" stroke="#9D583F" stroke-width="1" d="M 66.35 206.4 L 49.1 206.4 L 49.1 259.65 L 66.35 259.65 L 66.35 206.4 Z "/>
      <path id="ID0.7385164448060095" fill="#790C07" stroke="#2A0904" stroke-width="1" stroke-linecap="round" d="M 20.6 269.15 C 15.573 271.892 11.443 276.47 7.714 280.538 C 6.119 282.276 4.6 284.417 4.6 286.9 C 4.6 289.383 5.791 291.633 7.714 293.262 C 9.637 294.892 12.582 295.689 15.225 295.9 C 24.134 296.612 33.474 297.264 42.6 296.15 C 53.23 294.747 63.778 292.1 74.1 288.4 C 77.381 287.223 80.528 284.842 82.1 281.65 C 83.072 279.666 80.92 277.46 79.85 275.4 C 78.5 272.822 75.128 271.124 74.6 268.4 C 74.087 265.672 76.93 262.977 76.1 260.15 C 75.196 257.103 72.441 254.532 69.6 253.15 C 64.857 250.849 59.285 250.281 54.1 249.9 C 50.635 249.644 46.415 249.671 43.85 251.9 C 40.309 254.977 41.002 261.741 37.35 264.4 C 32.658 267.802 25.553 266.448 20.6 269.15 Z "/>
      <path id="ID0.14433618588373065" fill="none" stroke="#A4434E" stroke-width="1" stroke-linecap="round" d="M 18.6 270.65 C 18.6 270.65 27.098 271.795 31.35 272.9 C 34.293 273.719 37.16 274.803 40.1 276.4 C 42.599 277.764 45.276 279.392 46.85 281.65 C 49.484 285.441 52.85 294.15 52.85 294.15 "/>
      <path id="ID0.6218143552541733" fill="none" stroke="#A4434E" stroke-width="1" stroke-linecap="round" d="M 73.1 267.15 C 73.1 267.15 67.746 266.836 65.1 266.15 C 62.633 265.663 60.389 264.563 57.85 263.65 C 54.53 262.457 51.245 261.484 47.85 260.15 C 45.734 259.319 41.6 257.4 41.6 257.4 "/>
      <g id="ID0.3121734503656626">
        <path id="ID0.7387895779684186" fill="#FF4964" stroke="#AB101E" stroke-width="1" d="M 43.1 256.15 C 41.858 256.15 40.733 256.836 39.919 257.945 C 39.104 259.054 38.6 260.585 38.6 262.275 C 38.6 263.965 39.104 265.496 39.919 266.605 C 40.733 267.714 41.858 268.4 43.1 268.4 C 44.342 268.4 45.467 267.714 46.281 266.605 C 47.096 265.496 47.6 263.965 47.6 262.275 C 47.6 260.585 47.096 259.054 46.281 257.945 C 45.467 256.836 44.342 256.15 43.1 256.15 Z "/>
        <path id="ID0.8842101274058223" fill="#FF4964" stroke="#AB101E" stroke-width="1" d="M 49.1 257.15 C 47.721 257.15 46.471 257.668 45.565 258.505 C 44.66 259.343 44.1 260.499 44.1 261.775 C 44.1 263.051 44.66 264.207 45.565 265.045 C 46.471 265.882 47.721 266.4 49.1 266.4 C 50.479 266.4 51.729 265.882 52.635 265.045 C 53.54 264.207 54.1 263.051 54.1 261.775 C 54.1 260.499 53.54 259.343 52.635 258.505 C 51.729 257.668 50.479 257.15 49.1 257.15 Z "/>
        <path id="ID0.8021985436789691" fill="#FF4964" stroke="#AB101E" stroke-width="1" d="M 38.6 260.4 C 37.083 260.4 35.708 260.904 34.712 261.719 C 33.716 262.533 33.1 263.658 33.1 264.9 C 33.1 266.142 33.716 267.267 34.712 268.081 C 35.708 268.896 37.083 269.4 38.6 269.4 C 40.117 269.4 41.492 268.896 42.488 268.081 C 43.484 267.267 44.1 266.142 44.1 264.9 C 44.1 263.658 43.484 262.533 42.488 261.719 C 41.492 260.904 40.117 260.4 38.6 260.4 Z "/>
        <path id="ID0.6284423666074872" fill="#FF4964" stroke="#AB101E" stroke-width="1" d="M 48.725 262.9 C 47.38 262.9 46.161 263.432 45.279 264.292 C 44.396 265.152 43.85 266.34 43.85 267.65 C 43.85 268.96 44.396 270.148 45.279 271.008 C 46.161 271.868 47.38 272.4 48.725 272.4 C 50.07 272.4 51.289 271.868 52.171 271.008 C 53.054 270.148 53.6 268.96 53.6 267.65 C 53.6 266.34 53.054 265.152 52.171 264.292 C 51.289 263.432 50.07 262.9 48.725 262.9 Z "/>
        <path id="ID0.9421502817422152" fill="#FF4964" stroke="#AB101E" stroke-width="1" d="M 40.6 263.15 C 39.221 263.15 37.971 263.738 37.065 264.689 C 36.16 265.639 35.6 266.952 35.6 268.4 C 35.6 269.848 36.16 271.161 37.065 272.111 C 37.971 273.062 39.221 273.65 40.6 273.65 C 41.979 273.65 43.229 273.062 44.135 272.111 C 45.04 271.161 45.6 269.848 45.6 268.4 C 45.6 266.952 45.04 265.639 44.135 264.689 C 43.229 263.738 41.979 263.15 40.6 263.15 Z "/>
        <path id="ID0.6622267691418529" fill="#FF9318" stroke="none" d="M 43.85 261.15 C 42.608 261.15 41.483 261.584 40.669 262.286 C 39.854 262.987 39.35 263.956 39.35 265.025 C 39.35 266.094 39.854 267.063 40.669 267.764 C 41.483 268.466 42.608 268.9 43.85 268.9 C 45.092 268.9 46.217 268.466 47.031 267.764 C 47.846 267.063 48.35 266.094 48.35 265.025 C 48.35 263.956 47.846 262.987 47.031 262.286 C 46.217 261.584 45.092 261.15 43.85 261.15 Z " stroke-width="1"/>
      </g>
    </g>
    <g id="ID0.5333876092918217">
      <path id="ID0.7994856317527592" fill="#FBCAA2" stroke="#9D583F" stroke-width="1" d="M 73.75 208.5 L 91 208.5 L 91 261.75 L 73.75 261.75 L 73.75 208.5 Z "/>
      <path id="ID0.7385164448060095" fill="#790C07" stroke="#2A0904" stroke-width="1" stroke-linecap="round" d="M 119.5 271.25 C 124.527 273.992 128.657 278.57 132.386 282.638 C 133.981 284.376 135.5 286.517 135.5 289 C 135.5 291.483 134.309 293.733 132.386 295.362 C 130.463 296.992 127.518 297.789 124.875 298 C 115.966 298.712 106.626 299.364 97.5 298.25 C 86.87 296.847 76.322 294.2 66 290.5 C 62.719 289.323 59.572 286.942 58 283.75 C 57.028 281.766 59.18 279.56 60.25 277.5 C 61.6 274.922 64.972 273.224 65.5 270.5 C 66.013 267.772 63.17 265.077 64 262.25 C 64.904 259.203 67.659 256.632 70.5 255.25 C 75.243 252.949 80.815 252.381 86 252 C 89.465 251.744 93.685 251.771 96.25 254 C 99.791 257.077 99.098 263.841 102.75 266.5 C 107.442 269.902 114.547 268.548 119.5 271.25 Z "/>
      <path id="ID0.14433618588373065" fill="none" stroke="#A4434E" stroke-width="1" stroke-linecap="round" d="M 121.5 272.75 C 121.5 272.75 113.002 273.895 108.75 275 C 105.807 275.819 102.94 276.903 100 278.5 C 97.501 279.864 94.824 281.492 93.25 283.75 C 90.616 287.541 87.25 296.25 87.25 296.25 "/>
      <path id="ID0.6218143552541733" fill="none" stroke="#A4434E" stroke-width="1" stroke-linecap="round" d="M 67 269.25 C 67 269.25 72.354 268.936 75 268.25 C 77.467 267.763 79.711 266.663 82.25 265.75 C 85.57 264.557 88.855 263.584 92.25 262.25 C 94.366 261.419 98.5 259.5 98.5 259.5 "/>
      <g id="ID0.3121734503656626">
        <path id="ID0.7387895779684186" fill="#FF4964" stroke="#AB101E" stroke-width="1" d="M 97 258.25 C 98.242 258.25 99.367 258.936 100.181 260.045 C 100.996 261.154 101.5 262.685 101.5 264.375 C 101.5 266.065 100.996 267.596 100.181 268.705 C 99.367 269.814 98.242 270.5 97 270.5 C 95.758 270.5 94.633 269.814 93.819 268.705 C 93.004 267.596 92.5 266.065 92.5 264.375 C 92.5 262.685 93.004 261.154 93.819 260.045 C 94.633 258.936 95.758 258.25 97 258.25 Z "/>
        <path id="ID0.8842101274058223" fill="#FF4964" stroke="#AB101E" stroke-width="1" d="M 91 259.25 C 92.379 259.25 93.629 259.768 94.535 260.605 C 95.44 261.443 96 262.599 96 263.875 C 96 265.151 95.44 266.307 94.535 267.145 C 93.629 267.982 92.379 268.5 91 268.5 C 89.621 268.5 88.371 267.982 87.465 267.145 C 86.56 266.307 86 265.151 86 263.875 C 86 262.599 86.56 261.443 87.465 260.605 C 88.371 259.768 89.621 259.25 91 259.25 Z "/>
        <path id="ID0.8021985436789691" fill="#FF4964" stroke="#AB101E" stroke-width="1" d="M 101.5 262.5 C 103.017 262.5 104.392 263.004 105.388 263.819 C 106.384 264.633 107 265.758 107 267 C 107 268.242 106.384 269.367 105.388 270.181 C 104.392 270.996 103.017 271.5 101.5 271.5 C 99.983 271.5 98.608 270.996 97.612 270.181 C 96.616 269.367 96 268.242 96 267 C 96 265.758 96.616 264.633 97.612 263.819 C 98.608 263.004 99.983 262.5 101.5 262.5 Z "/>
        <path id="ID0.6284423666074872" fill="#FF4964" stroke="#AB101E" stroke-width="1" d="M 91.375 265 C 92.72 265 93.939 265.532 94.821 266.392 C 95.704 267.252 96.25 268.44 96.25 269.75 C 96.25 271.06 95.704 272.248 94.821 273.108 C 93.939 273.968 92.72 274.5 91.375 274.5 C 90.03 274.5 88.811 273.968 87.929 273.108 C 87.046 272.248 86.5 271.06 86.5 269.75 C 86.5 268.44 87.046 267.252 87.929 266.392 C 88.811 265.532 90.03 265 91.375 265 Z "/>
        <path id="ID0.9421502817422152" fill="#FF4964" stroke="#AB101E" stroke-width="1" d="M 99.5 265.25 C 100.879 265.25 102.129 265.838 103.035 266.789 C 103.94 267.739 104.5 269.052 104.5 270.5 C 104.5 271.948 103.94 273.261 103.035 274.211 C 102.129 275.162 100.879 275.75 99.5 275.75 C 98.121 275.75 96.871 275.162 95.965 274.211 C 95.06 273.261 94.5 271.948 94.5 270.5 C 94.5 269.052 95.06 267.739 95.965 266.789 C 96.871 265.838 98.121 265.25 99.5 265.25 Z "/>
        <path id="ID0.6622267691418529" fill="#FF9318" stroke="none" d="M 96.25 263.25 C 97.492 263.25 98.617 263.684 99.431 264.386 C 100.246 265.087 100.75 266.056 100.75 267.125 C 100.75 268.194 100.246 269.163 99.431 269.864 C 98.617 270.566 97.492 271 96.25 271 C 95.008 271 93.883 270.566 93.069 269.864 C 92.254 269.163 91.75 268.194 91.75 267.125 C 91.75 266.056 92.254 265.087 93.069 264.386 C 93.883 263.684 95.008 263.25 96.25 263.25 Z " stroke-width="1"/>
      </g>
    </g>
    <g id="ID0.3584084934554994">
      <g id="ID0.8251467607915401">
        <path id="ID0.9955217884853482" fill="#65000A" stroke="#301215" stroke-width="1" stroke-linecap="round" d="M 189.25 92 C 193.614 91.51 195.378 99.058 196.5 103.25 C 198.445 110.502 198.675 118.457 198 125.75 C 197.636 129.678 196.277 133.901 193.494 136.707 C 190.711 139.513 186.867 141.25 182.625 141.25 C 178.383 141.25 175.311 138.36 171.756 136.707 C 168.901 135.384 166.772 132.642 163.75 132 C 160.206 131.265 156.274 133.197 152.5 132.5 C 150.369 132.155 148.232 130.961 146.75 129 C 144.439 125.886 142.4 122.166 142.25 118.25 C 142.123 114.865 144.747 112.091 146.5 109 C 146.938 108.227 147.358 107.054 148.25 107.25 C 150.496 107.792 151.795 110.702 154 111.25 C 157.557 112.132 161.35 112.668 165 111.75 C 168.558 110.851 171.517 108.048 174.25 105.75 C 179.431 101.386 182.747 92.734 189.25 92 Z "/>
        <path id="ID0.943336945027113" fill="#301215" stroke="#301215" stroke-width="1" stroke-linecap="round" d="M 163.75 132 L 175.5 117.75 L 177.75 111.25 L 178.5 101.5 L 169 110.5 L 165.5 112.5 L 161.25 112.5 L 156.5 112.5 L 152.75 110.25 L 147.5 105.75 L 142.75 116 L 142.5 118.25 L 143.75 122 L 147.5 128.75 L 149.75 131 L 153.5 132.25 L 156.5 132.25 L 159.75 131 L 163.5 131.25 Z "/>
        <path id="ID0.8958823587745428" fill="none" stroke="#D22239" stroke-width="3" stroke-linecap="round" d="M 191.5 94 C 191.5 94 193.837 99.311 194.5 102.25 C 195.427 106.763 196.389 111.362 196.25 116.25 C 196.106 121.244 195.151 126.208 193.5 131 C 192.609 133.581 190.724 135.941 188.5 137.5 C 186.067 138.925 180.25 139.5 180.25 139.5 "/>
      </g>
      <path id="ID0.38672532979398966" fill="#D22239" stroke="#301317" stroke-width="1" stroke-linecap="round" d="M 180.75 85 L 192 80.25 C 193.124 79.646 196.05 68.15 195.25 62.25 C 193.9 49.75 192.95 36.1 186 25.75 C 179.15 15.55 167.95 7.8 156.5 3.75 C 145.3 -0.2 132.45 0 121.25 2.75 C 110.4 5.35 100.35 11.95 92 19 C 87.65 22.6 84.6 28.2 83.75 33.75 C 82 44.75 75.8 62.25 84.75 67.25 C 95.65 73 110.35 57.8 123.5 55.25 C 132.4 53.5 141.75 53.3 150.75 54 C 154.85 54.3 158.85 55.6 162.5 58.25 C 168.8 62.95 174.02 69.127 178.5 75.75 C 180.268 78.373 179.257 84.752 180.75 85.25 Z "/>
      <g id="ID0.6069751917384565">
        <path id="ID0.4469928075559437" fill="#4086A8" stroke="#305B88" stroke-width="1" d="M 193.625 78.25 C 196.074 78.25 198.292 79.286 199.899 80.961 C 201.506 82.635 202.5 84.948 202.5 87.5 C 202.5 90.052 201.506 92.365 199.899 94.039 C 198.292 95.714 196.074 96.75 193.625 96.75 C 191.176 96.75 188.958 95.714 187.351 94.039 C 185.744 92.365 184.75 90.052 184.75 87.5 C 184.75 84.948 185.744 82.635 187.351 80.961 C 188.958 79.286 191.176 78.25 193.625 78.25 Z "/>
        <path id="ID0.85837960569188" fill="#305B88" stroke="none" d="M 193.75 81.5 C 195.336 81.5 196.774 82.144 197.815 83.185 C 198.856 84.226 199.5 85.664 199.5 87.25 C 199.5 88.836 198.856 90.274 197.815 91.315 C 196.774 92.356 195.336 93 193.75 93 C 192.164 93 190.726 92.356 189.685 91.315 C 188.644 90.274 188 88.836 188 87.25 C 188 85.664 188.644 84.226 189.685 83.185 C 190.726 82.144 192.164 81.5 193.75 81.5 Z " stroke-width="1"/>
        <path id="ID0.7206327202729881" fill="#4086A8" stroke="none" d="M 192 80.25 C 192.966 80.25 193.841 80.698 194.474 81.422 C 195.108 82.146 195.5 83.146 195.5 84.25 C 195.5 85.354 195.108 86.354 194.474 87.078 C 193.841 87.802 192.966 88.25 192 88.25 C 191.034 88.25 190.159 87.802 189.526 87.078 C 188.892 86.354 188.5 85.354 188.5 84.25 C 188.5 83.146 188.892 82.146 189.526 81.422 C 190.159 80.698 191.034 80.25 192 80.25 Z " stroke-width="1"/>
        <path id="ID0.7856395929120481" fill="#FFFFFF" stroke="none" d="M 191.75 81.25 C 192.302 81.25 192.802 81.502 193.164 81.909 C 193.526 82.317 193.75 82.879 193.75 83.5 C 193.75 84.121 193.526 84.683 193.164 85.091 C 192.802 85.498 192.302 85.75 191.75 85.75 C 191.198 85.75 190.698 85.498 190.336 85.091 C 189.974 84.683 189.75 84.121 189.75 83.5 C 189.75 82.879 189.974 82.317 190.336 81.909 C 190.698 81.502 191.198 81.25 191.75 81.25 Z " stroke-width="1"/>
      </g>
      <path id="ID0.7973425956442952" fill="#65000A" stroke="#65000A" stroke-width="2" stroke-linecap="round" d="M 80.25 68.75 C 79.294 64.53 79.462 56.451 82.25 50.75 C 87.174 40.682 93.232 30.884 103 24.25 C 113.811 17.03 127.7 13.021 140.5 13.25 C 150.414 13.428 160.619 18.458 167.75 25.25 C 176.629 33.856 182.72 45.62 186.25 57.25 C 188.811 65.696 186.594 74.782 185.75 83.75 C 185.539 85.992 183.825 90.502 183 89.25 C 180.952 86.116 181.4 79.992 180 75.5 C 178.371 70.274 177.462 64.521 174.5 60 C 169.992 53.147 165.866 43.723 158 42 C 143.042 38.764 126.819 41.802 112.25 46.5 C 102.119 49.767 94.542 58.841 85.75 65.25 C 83.705 66.84 81.312 71.715 80.75 69.75 Z "/>
      <g id="ID0.6069751917384565">
        <path id="ID0.4469928075559437" fill="#4086A8" stroke="#305B88" stroke-width="1" d="M 179.375 80.25 C 181.824 80.25 184.042 81.286 185.649 82.961 C 187.256 84.635 188.25 86.948 188.25 89.5 C 188.25 92.052 187.256 94.365 185.649 96.039 C 184.042 97.714 181.824 98.75 179.375 98.75 C 176.926 98.75 174.708 97.714 173.101 96.039 C 171.494 94.365 170.5 92.052 170.5 89.5 C 170.5 86.948 171.494 84.635 173.101 82.961 C 174.708 81.286 176.926 80.25 179.375 80.25 Z "/>
        <path id="ID0.85837960569188" fill="#305B88" stroke="none" d="M 179.5 83.5 C 181.086 83.5 182.524 84.144 183.565 85.185 C 184.606 86.226 185.25 87.664 185.25 89.25 C 185.25 90.836 184.606 92.274 183.565 93.315 C 182.524 94.356 181.086 95 179.5 95 C 177.914 95 176.476 94.356 175.435 93.315 C 174.394 92.274 173.75 90.836 173.75 89.25 C 173.75 87.664 174.394 86.226 175.435 85.185 C 176.476 84.144 177.914 83.5 179.5 83.5 Z " stroke-width="1"/>
        <path id="ID0.7206327202729881" fill="#4086A8" stroke="none" d="M 177.75 82.25 C 178.716 82.25 179.591 82.698 180.224 83.422 C 180.858 84.146 181.25 85.146 181.25 86.25 C 181.25 87.354 180.858 88.354 180.224 89.078 C 179.591 89.802 178.716 90.25 177.75 90.25 C 176.784 90.25 175.909 89.802 175.276 89.078 C 174.642 88.354 174.25 87.354 174.25 86.25 C 174.25 85.146 174.642 84.146 175.276 83.422 C 175.909 82.698 176.784 82.25 177.75 82.25 Z " stroke-width="1"/>
        <path id="ID0.7856395929120481" fill="#FFFFFF" stroke="none" d="M 177.5 83.25 C 178.052 83.25 178.552 83.502 178.914 83.909 C 179.276 84.317 179.5 84.879 179.5 85.5 C 179.5 86.121 179.276 86.683 178.914 87.091 C 178.552 87.498 178.052 87.75 177.5 87.75 C 176.948 87.75 176.448 87.498 176.086 87.091 C 175.724 86.683 175.5 86.121 175.5 85.5 C 175.5 84.879 175.724 84.317 176.086 83.909 C 176.448 83.502 176.948 83.25 177.5 83.25 Z " stroke-width="1"/>
      </g>
      <path id="ID0.20332626905292273" fill="#351312" stroke="#351312" stroke-width="1" stroke-linecap="round" d="M 83 66.25 C 80.14 69.916 89.431 73.661 94 73.5 C 98.25 73.35 100.046 66.965 103.75 65.25 C 114.45 60.291 125.589 54.323 137.25 53.75 C 147.563 53.242 157.827 57.784 167 62.5 C 172.449 65.3 178.327 78.844 179.5 76 C 180.965 72.445 177.427 56.108 172.5 48 C 168.514 41.441 161.483 36.153 154 34.25 C 142.218 31.259 128.609 29.567 117.5 34.5 C 103.169 40.864 90.593 52.57 82.5 66 Z "/>
    </g>
    <g id="ID0.4587913369759917">
      <path id="ID0.6089262585155666" fill="#FDB723" stroke="#FC7C35" stroke-width="1" stroke-linecap="round" d="M 90.1 144.25 L 94.6 144.75 L 99.5 147 L 102.5 150.85 L 103.6 154.15 L 105.1 174.5 L 104.75 184.35 L 103 190.65 L 99 194.15 L 66.4 195.35 L 54.9 193.75 L 48.25 189.75 L 45.4 185 L 44.6 156.15 L 45.25 153 L 46.4 151.15 L 51.75 148.25 L 56.1 147.35 L 90.1 144.25 Z "/>
      <path id="ID0.15962815703824162" fill="#FDB723" stroke="#FC7C35" stroke-width="1" stroke-linecap="round" d="M 89.5 138.25 L 91 145 L 84.75 148.75 L 80 150.25 L 73 151.25 L 65.25 151.5 L 57.75 151.75 L 54 150.5 L 52 149.25 L 52.25 142 L 89.75 139 Z "/>
      <path id="ID0.842451489996165" fill="none" stroke="#FC7C35" stroke-width="1" stroke-linecap="round" d="M 83.5 140.5 L 85 148 "/>
      <path id="ID0.4332328415475786" fill="none" stroke="#FC7C35" stroke-width="1" stroke-linecap="round" d="M 79.5 150 L 78.25 142.5 "/>
      <path id="ID0.3628336042165756" fill="none" stroke="#FC7C35" stroke-width="1" stroke-linecap="round" d="M 73.25 142 L 73.25 150.75 "/>
      <path id="ID0.8734371089376509" fill="none" stroke="#FC7C35" stroke-width="1" stroke-linecap="round" d="M 64.5 152 L 63.75 144.25 "/>
      <path id="ID0.0006021992303431034" fill="none" stroke="#FC7C35" stroke-width="1" stroke-linecap="round" d="M 59 144 L 58.75 151.75 "/>
      <path id="ID0.8699927581474185" fill="#FFFFFF" stroke="#F76788" stroke-width="1" stroke-linecap="round" d="M 87 202.65 L 134.3 194.8 L 141.5 198.5 L 131.2 210.2 L 128 212.4 L 124.7 214.3 L 121.4 215.4 L 118.5 215.4 L 116.7 215.4 L 113.7 216 L 103.3 222.3 L 100.4 222.9 L 94.5 223.9 L 90.7 223.7 L 86.2 222.3 L 77.3 219.3 L 73.9 219.2 L 66.3 221.4 L 61.2 222.2 L 56 222 L 50.3 221.3 L 41.7 217.8 L 35 214.2 L 31.3 214.7 L 28.9 214.5 L 25.9 213 L 12.5 197.5 L 11.4 195.4 L 14.2 194.2 L 39.9 202.5 L 87 202.7 Z "/>
      <path id="ID0.3130426621064544" fill="#FF629A" stroke="#FF3474" stroke-width="1" stroke-linecap="round" d="M 47.2 188.8 L 40.9 187.9 L 36.3 187.9 L 28.7 188.4 L 14.5 194 L 26.9 209.4 L 30.8 211.8 L 35.9 211.3 L 41.9 213 L 48 216.8 L 55.5 218 L 62 218 L 68.4 216.9 L 73.5 215.5 L 77.5 215.5 L 82.4 217.2 L 88.4 219 L 95 220.2 L 100.9 219.4 L 105.9 217.4 L 113.4 213.3 L 115.7 211.8 L 122.8 212.9 L 128.2 209.2 L 133.9 202.5 L 137 195.9 L 128.2 189.3 L 117.3 185 L 106.2 184.9 L 91.2 190.5 L 58.9 191.9 L 51.8 191 L 47.5 188.9 Z "/>
      <path id="ID0.9541488024406135" fill="none" stroke="#FF3474" stroke-width="1" stroke-linecap="round" d="M 105.3 186.2 L 109.3 189.4 L 114.5 194.8 L 117.9 198.9 L 121.4 205.2 L 123.9 211.65 "/>
      <path id="ID0.5550926318392158" fill="none" stroke="#FF3474" stroke-width="1" stroke-linecap="round" d="M 45.2 214 L 50.3 204.5 L 54 199.7 L 59.9 192.8 "/>
      <path id="ID0.24926480324938893" fill="none" stroke="#FF3474" stroke-width="1" stroke-linecap="round" d="M 47.9 190.3 L 35.8 193.7 L 28.9 197.5 L 22.4 202.65 "/>
      <path id="ID0.9830417018383741" fill="#FF629A" stroke="#FF3474" stroke-width="1" stroke-linecap="round" d="M 104.9 183.75 L 72.2 185.75 L 64.7 187.15 L 48 189.75 L 48.8 191.15 L 53.2 193.5 L 58.9 195.15 L 66.3 195.35 L 99 195 L 103.5 191.15 L 105.4 184.15 Z "/>
      <path id="ID0.007824687287211418" fill="#FFADC6" stroke="#F07CB9" stroke-width="1" d="M 69.45 154.45 C 70.774 154.45 71.974 155.075 72.843 156.084 C 73.712 157.093 74.25 158.487 74.25 160.025 C 74.25 161.563 73.712 162.957 72.843 163.966 C 71.974 164.975 70.774 165.6 69.45 165.6 C 68.126 165.6 66.926 164.975 66.057 163.966 C 65.188 162.957 64.65 161.563 64.65 160.025 C 64.65 158.487 65.188 157.093 66.057 156.084 C 66.926 155.075 68.126 154.45 69.45 154.45 Z "/>
      <path id="ID0.8971972321160138" fill="#FFADC6" stroke="#F07CB9" stroke-width="1" d="M 63.875 162.95 C 65.441 162.95 66.859 163.53 67.887 164.467 C 68.914 165.404 69.55 166.697 69.55 168.125 C 69.55 169.553 68.914 170.846 67.887 171.783 C 66.859 172.72 65.441 173.3 63.875 173.3 C 62.309 173.3 60.891 172.72 59.863 171.783 C 58.836 170.846 58.2 169.553 58.2 168.125 C 58.2 166.697 58.836 165.404 59.863 164.467 C 60.891 163.53 62.309 162.95 63.875 162.95 Z "/>
      <path id="ID0.6443851958028972" fill="#FFADC6" stroke="#F07CB9" stroke-width="1" d="M 70.95 168.85 C 72.274 168.85 73.474 169.433 74.343 170.374 C 75.212 171.315 75.75 172.615 75.75 174.05 C 75.75 175.485 75.212 176.785 74.343 177.726 C 73.474 178.667 72.274 179.25 70.95 179.25 C 69.626 179.25 68.426 178.667 67.557 177.726 C 66.688 176.785 66.15 175.485 66.15 174.05 C 66.15 172.615 66.688 171.315 67.557 170.374 C 68.426 169.433 69.626 168.85 70.95 168.85 Z "/>
      <path id="ID0.2692980607971549" fill="#FFADC6" stroke="#F07CB9" stroke-width="1" d="M 78.95 165.95 C 80.274 165.95 81.474 166.519 82.343 167.437 C 83.212 168.356 83.75 169.625 83.75 171.025 C 83.75 172.425 83.212 173.694 82.343 174.613 C 81.474 175.531 80.274 176.1 78.95 176.1 C 77.626 176.1 76.426 175.531 75.557 174.613 C 74.688 173.694 74.15 172.425 74.15 171.025 C 74.15 169.625 74.688 168.356 75.557 167.437 C 76.426 166.519 77.626 165.95 78.95 165.95 Z "/>
      <path id="ID0.08290469134226441" fill="#FFADC6" stroke="#F07CB9" stroke-width="1" d="M 79.2 156.1 C 80.593 156.1 81.856 156.688 82.77 157.639 C 83.684 158.589 84.25 159.902 84.25 161.35 C 84.25 162.798 83.684 164.111 82.77 165.061 C 81.856 166.012 80.593 166.6 79.2 166.6 C 77.807 166.6 76.544 166.012 75.63 165.061 C 74.716 164.111 74.15 162.798 74.15 161.35 C 74.15 159.902 74.716 158.589 75.63 157.639 C 76.544 156.688 77.807 156.1 79.2 156.1 Z "/>
      <path id="ID0.42613535607233644" fill="#FF8841" stroke="#FFFF99" stroke-width="1" d="M 72.175 162.1 C 73.368 162.1 74.449 162.604 75.232 163.419 C 76.015 164.233 76.5 165.358 76.5 166.6 C 76.5 167.842 76.015 168.967 75.232 169.781 C 74.449 170.596 73.368 171.1 72.175 171.1 C 70.982 171.1 69.901 170.596 69.118 169.781 C 68.335 168.967 67.85 167.842 67.85 166.6 C 67.85 165.358 68.335 164.233 69.118 163.419 C 69.901 162.604 70.982 162.1 72.175 162.1 Z "/>
    </g>
    <g id="ID0.9255830170586705">
      <path id="ID0.08649248676374555" fill="#E49586" stroke="#9D583F" stroke-width="1.000000011580477" d="M 98.4825 216.7982 C 99.2578 216.5075 100.3339 217.2413 101.446 218.6602 C 102.5583 220.08 103.7068 222.1858 104.6271 224.64 C 105.5474 227.0941 106.0667 229.4358 106.1622 231.237 C 106.2574 233.0372 105.9291 234.2977 105.1538 234.5885 C 104.3785 234.8792 103.3023 234.1453 102.1903 232.7264 C 101.078 231.3066 99.9295 229.2008 99.0092 226.7467 C 98.0889 224.2926 97.5696 221.9508 97.474 220.1497 C 97.3789 218.3495 97.7072 217.0889 98.4825 216.7982 Z "/>
      <path id="ID0.44577134121209383" fill="#FBCAA2" stroke="#9D583F" stroke-width="1" stroke-linecap="round" d="M 105 175.5 L 105 208.75 L 107.75 211 L 109 214.5 L 109.75 221 L 111.25 225.5 L 113.25 229.5 L 113.25 232.25 L 111.25 233.25 L 109.25 233.5 L 106.25 232.25 L 103.75 229.25 L 101.25 224.75 L 100.5 221 L 97.5 221.5 L 94.25 222.25 L 91.25 224.25 L 87 225.5 L 84 225.5 L 82.25 223.5 L 82.5 221.25 L 84.5 220.5 L 87.75 218.75 L 89.75 215.75 L 91 212 L 92.75 210 L 93.75 205 L 93.25 176.5 L 104.5 176.5 Z "/>
      <path id="ID0.6523044565692544" fill="#FDB723" stroke="#FC7C35" stroke-width="1" d="M 89.5 167.75 L 109.5 167.75 L 109.5 179.75 L 89.5 179.75 L 89.5 167.75 Z "/>
      <path id="ID0.3490174412727356" fill="#FDB723" stroke="#FC7C35" stroke-width="1" d="M 98.875 143.25 C 103.324 143.25 107.355 145.085 110.274 148.049 C 113.193 151.014 115 155.107 115 159.625 C 115 164.143 113.193 168.236 110.274 171.201 C 107.355 174.165 103.324 176 98.875 176 C 94.426 176 90.395 174.165 87.476 171.201 C 84.557 168.236 82.75 164.143 82.75 159.625 C 82.75 155.107 84.557 151.014 87.476 148.049 C 90.395 145.085 94.426 143.25 98.875 143.25 Z "/>
      <path id="ID0.3188586854375899" fill="#FFFFFF" stroke="none" d="M 89.75 177.5 L 109 177.5 L 109 179.25 L 89.75 179.25 L 89.75 177.5 Z " stroke-width="1"/>
      <path id="ID0.8641150775365531" fill="#F46E86" stroke="#DD3556" stroke-width="1" d="M 91.25 202 L 106.75 202 L 106.75 210.25 L 91.25 210.25 L 91.25 202 Z "/>
      <path id="ID0.5594642525538802" fill="#DD3556" stroke="none" d="M 91.5 202 L 96.25 202 L 96.25 210.25 L 91.5 210.25 L 91.5 202 Z " stroke-width="1"/>
      <path id="ID0.2013889760710299" fill="#FFFFFF" stroke="none" d="M 92.5 204 L 105.5 204 L 105.5 205.75 L 92.5 205.75 L 92.5 204 Z " stroke-width="1"/>
    </g>
    <g id="ID0.14726050244644284">
      <path id="ID0.40556395845487714" fill="#FF5A94" stroke="#FF1B49" stroke-width="0.9999999789189167" stroke-linecap="round" d="M 79.7178 62.3049 L 51.5137 78.2964 L 45.9245 78.9893 L 42.8664 78.4809 L 37.7363 76.4117 L 36.3535 71.9242 L 37.4313 55.0728 L 41.8973 41.6231 L 42.9132 33.6822 L 41.9244 28.0437 L 42.8919 22.2236 L 44.5665 17.0279 L 48.1652 13.0643 L 51.8958 10.1364 L 54.888 10.4311 L 56.9596 10.7754 L 59.4262 12.402 L 83.3098 42.5261 L 87.2421 49.9718 L 87.9838 54.6568 L 87.0971 56.9423 L 80.1452 62.1732 Z "/>
      <path id="ID0.7104580006562173" fill="#FF5A94" stroke="#FF1B49" stroke-width="1" d="M 82.25 40.95 C 84.043 40.95 85.668 41.748 86.845 43.038 C 88.022 44.328 88.75 46.109 88.75 48.075 C 88.75 50.041 88.022 51.822 86.845 53.112 C 85.668 54.402 84.043 55.2 82.25 55.2 C 80.457 55.2 78.832 54.402 77.655 53.112 C 76.478 51.822 75.75 50.041 75.75 48.075 C 75.75 46.109 76.478 44.328 77.655 43.038 C 78.832 41.748 80.457 40.95 82.25 40.95 Z "/>
      <path id="ID0.40556395845487714" fill="#FF5A94" stroke="#FF1B49" stroke-width="1" stroke-linecap="round" d="M 90.8 58.2 L 116 78.6 L 121.4 80.2 L 124.5 80.2 L 129.9 79 L 132 74.8 L 133.7 58 L 131.5 44 L 131.8 36 L 133.7 30.6 L 133.7 24.7 L 132.9 19.3 L 130 14.8 L 126.8 11.3 L 123.8 11.1 L 121.7 11.1 L 119 12.3 L 90.5 38.1 L 85.4 44.8 L 83.9 49.3 L 84.4 51.7 L 90.4 58 Z "/>
      <path id="ID0.2199686667881906" fill="#FBCAA2" stroke="#9E583F" stroke-width="1" stroke-linecap="round" d="M 60.75 146.5 C 69.079 147.439 77.93 144.995 86 142.25 C 91.561 140.326 95.356 136.574 99.75 133.5 C 103.854 130.742 108.026 128.603 111.5 124.75 C 114.008 121.899 116.75 118.208 116.5 114.5 C 116.038 107.667 114.026 100.03 109.25 95.25 C 96.021 82.011 82.049 64.215 63.75 62.25 C 48.799 60.646 33.811 74.095 25.5 86.25 C 20.68 93.3 27.2 103.644 30 111.5 C 31.439 115.529 36.173 117.726 37.75 121.75 C 38.438 123.796 36.078 125.965 36.25 128.25 C 36.475 131.329 36 135.437 38.5 137.25 C 45.217 142.111 52.777 145.6 60.75 146.5 Z "/>
      <path id="ID0.8426695661619306" fill="#3B1115" stroke="#321519" stroke-width="1" stroke-linecap="round" d="M 60.25 66.5 C 60.044 65.679 49.818 65.683 45 67 C 36.153 69.418 27.194 72.217 19.75 78 C 16.197 80.765 15.902 86.149 15.25 90.75 C 14.846 93.628 15.431 96.383 17.25 99.25 C 20.201 103.586 24.861 107.655 29 109.75 C 30.343 110.431 28.631 106.256 28.75 104.75 C 28.963 102.146 29.445 99.474 30 97 C 30.363 95.218 30.935 93.48 31.5 92 C 32.246 90.05 32.706 88.019 34 86.25 C 37.138 81.976 40.488 77.656 44.75 74.5 C 49.298 71.133 59.956 68.321 60 67 Z "/>
      <path id="ID0.30268902238458395" fill="#65000A" stroke="#321519" stroke-width="1" stroke-linecap="round" d="M 39.5 56.1 C 30.489 61.162 21.338 66.479 12.75 72.4 C 10.603 73.88 12.073 74.175 11.9 75.1 C 11.629 76.519 11.262 78 11.25 79.5 C 11.296 80.998 11.549 82.523 12 84 C 13.549 89.079 16.344 98.999 17.4 99 C 18.456 99.001 17.817 88.765 18.75 83.75 C 19.051 82.121 19.777 80.212 21.25 79.25 C 25.701 76.291 30.768 74.25 35.9 72.4 C 39.458 71.118 43.231 70.997 47 70 C 49.723 69.279 52.617 65.873 55 67.25 C 58.378 69.204 58.223 74.453 60.5 77.6 C 64.228 82.751 67.208 88.974 72.75 92.25 C 79.534 96.259 88.114 96.319 95.6 98.4 C 97.472 98.92 98.478 98.527 99.25 99.6 C 101.304 102.464 102.395 105.981 103.25 109.4 C 103.574 110.691 102.068 111.971 102.6 113.1 C 103.075 114.092 104.687 114.212 105.9 114.4 C 109.053 114.934 112.405 115.792 115.6 115.25 C 116.764 115.045 117.203 113.601 117.6 112.6 C 118.937 109.275 119.916 105.79 120.75 102.4 C 121.723 98.446 123.276 94.577 123.1 90.4 C 122.844 84.325 123.337 77.316 119.5 72.5 C 111.183 62.063 100.639 52.515 88.5 47.1 C 79.797 43.217 69.274 44.385 59.9 46.1 C 52.39 47.474 46.096 52.394 39.5 56.1 Z "/>
      <path id="ID0.5773593545891345" fill="none" stroke="#D22239" stroke-width="2" stroke-linecap="round" d="M 87.1 80.1 C 87.1 80.1 90.535 78.686 92.4 78.25 C 93.44 77.981 94.719 77.566 95.75 78 C 96.733 78.411 97.5 80.5 97.5 80.5 "/>
      <path id="ID0.33778681932017207" fill="none" stroke="#D22239" stroke-width="3" stroke-linecap="round" d="M 97.65 81.25 C 97.65 81.25 97.726 83.432 97.55 84.5 C 97.439 85.171 97.157 85.821 96.8 86.4 C 96.447 86.972 96.167 87.951 95.45 87.9 C 92.588 87.695 89.146 87.64 86.9 85.75 C 83.691 83.049 81.334 79.253 80.4 75.25 C 79.938 73.257 81.448 70.69 83.25 69.6 C 86.137 67.857 89.768 66.417 93 67.25 C 98.279 68.63 104.021 71.111 106.75 75.75 C 109.144 79.821 108.273 85.48 106.4 89.75 C 104.868 93.239 101.109 95.264 97.75 96.9 C 95.656 97.917 92.94 97.556 90.5 97.25 C 85.945 96.717 81.145 96.242 76.9 94.4 C 73.304 92.84 70.067 90.088 67.25 87.25 C 63.942 83.916 60.005 80.569 58.4 76.1 C 56.794 71.215 55.664 65.15 58.1 60.6 C 60.277 56.538 70.4 54.25 70.4 54.25 "/>
      <path id="ID0.6104870270937681" fill="#D22239" stroke="#D22239" stroke-width="2" stroke-linecap="round" d="M 55.9 67.9 C 55.653 66.783 40.816 59.495 32.75 57.5 C 24.604 55.485 15.746 53.886 7.6 55.9 C 3.979 56.797 1.803 61.35 1.25 65 C 0.886 67.427 3.105 69.523 4.75 71.25 C 6.454 73.038 8.739 74.238 10.95 75.35 C 11.503 75.628 11.051 75.009 11.5 74.55 C 13.196 72.753 14.461 70.298 16.75 69.25 C 21.366 67.138 26.427 65.596 31.5 65.4 C 39.524 65.089 55.347 68.717 55.5 67.75 Z "/>
      <path id="ID0.4829377238638699" fill="#FBCAA2" stroke="#FBCAA2" stroke-width="1" stroke-linecap="round" d="M 108.7 130.6 L 101.6 131.8 L 109 115.5 L 121.1 116.6 L 124.2 117.7 L 127.1 119 L 127.5 121.1 L 121.7 124.5 L 108.6 130.35 Z "/>
      <path id="ID0.03992908541113138" fill="none" stroke="#9E583F" stroke-width="1" stroke-linecap="round" d="M 102.7 114 L 121.6 116.7 L 127.5 119 L 128 121.1 L 125.7 122.8 L 116.5 127.6 L 107.5 131.3 L 102 132.3 L 99.1 132.35 "/>
      <path id="ID0.6333809779025614" fill="none" stroke="#9E583F" stroke-width="1" stroke-linecap="round" d="M 102.5 125 L 105.2 123.2 L 110.5 121.1 L 113.5 120.8 L 121.85 121.15 "/>
      <path id="ID0.8432183759287" fill="none" stroke="#3B1115" stroke-width="1" stroke-linecap="round" d="M 91 104.6 C 93.025 103.853 93.769 103.696 94.65 103 C 95.086 102.618 95.35 101.35 95.35 101.35 "/>
      <path id="ID0.7750081950798631" fill="#3B1115" stroke="none" stroke-linecap="round" d="M 78.75 98.5 C 81.264 98.411 83.962 98.755 86.25 99.85 C 88.629 100.988 91.153 102.544 92.5 104.85 C 93.525 106.794 94.713 110.527 92.75 111.5 C 88.567 113.55 83.403 111.985 78.75 111.6 C 77.259 111.477 75.697 110.803 74.685 109.68 C 73.533 108.404 72.556 106.613 72.5 104.85 C 72.556 103.212 73.571 101.594 74.685 100.42 C 75.725 99.323 77.254 98.553 78.75 98.5 Z " stroke-width="1"/>
      <path id="ID0.8497758684679866" fill="#FFFFFF" stroke="none" stroke-linecap="round" d="M 81.9 100.15 C 84.73 100.614 87.823 101.759 90 103.75 C 91.562 105.182 92.148 107.372 92.4 109.4 C 92.623 111.213 92.321 113.035 91.6 114.65 C 90.643 116.793 89.527 119.057 87.6 120.25 C 85.49 121.629 82.728 122.144 80.3 121.85 C 78.014 121.573 75.14 120.82 74.114 118.758 C 72.37 115.248 72.617 110.805 72.9 106.75 C 73.059 104.839 73.776 102.653 75.4 101.4 C 77.147 100.057 79.725 99.793 81.9 100.15 Z " stroke-width="1"/>
      <path id="ID0.8432183759287" fill="none" stroke="#3B1115" stroke-width="1" stroke-linecap="round" d="M 40.3 110.95 C 38.275 110.203 37.531 110.046 36.65 109.35 C 36.214 108.968 35.95 107.7 35.95 107.7 "/>
      <path id="ID0.20769095420837402" fill="#3B1115" stroke="none" d="M 41.451 104.8557 C 42.8704 104.3862 44.4499 104.8465 45.8546 105.9692 C 47.2592 107.0919 48.4889 108.877 49.2103 111.0578 C 49.9316 113.2386 50.0089 115.4049 49.5508 117.1437 C 49.0926 118.8826 48.0991 120.1939 46.6797 120.6634 C 45.2603 121.1329 43.6808 120.6726 42.2762 119.5499 C 40.8715 118.4273 39.6418 116.6421 38.9205 114.4613 C 38.1991 112.2805 38.1218 110.1142 38.58 108.3754 C 39.0381 106.6365 40.0316 105.3252 41.451 104.8557 Z " stroke-width="1.1256598195206582"/>
      <path id="ID0.7250664751045406" fill="#FFFFFF" stroke="none" d="M 42.1661 106.3941 C 43.495 106.0498 44.9913 106.8661 46.3347 108.463 C 47.6791 110.0597 48.8705 112.4361 49.5902 115.2142 C 50.3098 117.9922 50.4221 120.6483 50.022 122.6968 C 49.6228 124.7452 48.711 126.1852 47.3822 126.5295 C 46.0533 126.8737 44.557 126.0575 43.2135 124.4606 C 41.8692 122.8639 40.6778 120.4874 39.9581 117.7094 C 39.2385 114.9313 39.1262 112.2753 39.5263 110.2267 C 39.9255 108.1784 40.8373 106.7383 42.1661 106.3941 Z " stroke-width="0.9302164727625849"/>
      <path id="ID0.19097231468185782" fill="none" stroke="#9D583F" stroke-width="1" stroke-linecap="round" d="M 54.9 125.2 C 54.9 125.2 54.157 125.79 53.8 126.1 C 53.524 126.339 52.754 126.594 53 126.85 C 53.639 127.493 55.8 128 55.8 128 "/>
      <path id="ID0.7790570529177785" fill="none" stroke="#9D583F" stroke-width="1" stroke-linecap="round" d="M 61.3 133 C 62.582 133.033 63.868 133.09 65.15 133.1 C 65.731 133.104 67.15 133 67.15 133 "/>
      <path id="ID0.9502524938434362" fill="#9BE1FF" stroke="#25698E" stroke-width="1" d="M 99.525 126.6 C 100.746 126.6 101.852 127.099 102.653 127.904 C 103.454 128.71 103.95 129.822 103.95 131.05 C 103.95 132.278 103.454 133.39 102.653 134.196 C 101.852 135.001 100.746 135.5 99.525 135.5 C 98.304 135.5 97.198 135.001 96.397 134.196 C 95.596 133.39 95.1 132.278 95.1 131.05 C 95.1 129.822 95.596 128.71 96.397 127.904 C 97.198 127.099 98.304 126.6 99.525 126.6 Z "/>
      <path id="ID0.6334538646042347" fill="#FFFFFF" stroke="none" stroke-linecap="round" d="M 98.275 127.35 C 98.93 127.35 99.524 127.616 99.954 128.046 C 100.384 128.476 100.65 129.07 100.65 129.725 C 100.65 130.38 100.384 130.974 99.954 131.404 C 99.524 131.834 98.93 132.1 98.275 132.1 C 97.62 132.1 97.026 131.834 96.596 131.404 C 96.166 130.974 95.9 130.38 95.9 129.725 C 95.9 129.07 96.166 128.476 96.596 128.046 C 97.026 127.616 97.62 127.35 98.275 127.35 Z " stroke-width="1"/>
    </g>
    <g id="ID0.6826177025213838">
      <path id="ID0.3883198988623917" fill="#9BE1FF" stroke="#4086A8" stroke-width="1.1839056658445215" d="M 78.4107 103.75 C 79.8462 103.75 81.1475 104.604 82.0888 105.985 C 83.0315 107.365 83.6143 109.271 83.6143 111.375 C 83.6143 113.479 83.0315 115.385 82.0888 116.765 C 81.1475 118.146 79.8462 119 78.4107 119 C 76.9752 119 75.674 118.146 74.7326 116.765 C 73.7899 115.385 73.2071 113.479 73.2071 111.375 C 73.2071 109.271 73.7899 107.365 74.7326 105.985 C 75.674 104.604 76.9752 103.75 78.4107 103.75 Z "/>
      <path id="ID0.2013350110501051" fill="#4086A8" stroke="none" d="M 77.375 104 C 78.444 104 79.413 104.658 80.114 105.722 C 80.816 106.785 81.25 108.254 81.25 109.875 C 81.25 111.496 80.816 112.965 80.114 114.028 C 79.413 115.092 78.444 115.75 77.375 115.75 C 76.306 115.75 75.337 115.092 74.636 114.028 C 73.934 112.965 73.5 111.496 73.5 109.875 C 73.5 108.254 73.934 106.785 74.636 105.722 C 75.337 104.658 76.306 104 77.375 104 Z " stroke-width="1"/>
      <path id="ID0.712022521533072" fill="#2C6A9B" stroke="none" d="M 78.875 110.6176 C 79.392 110.6176 79.861 110.7996 80.2 111.0941 C 80.54 111.3877 80.75 111.7945 80.75 112.2426 C 80.75 112.6908 80.54 113.0976 80.2 113.3912 C 79.861 113.6856 79.392 113.8676 78.875 113.8676 C 78.358 113.8676 77.889 113.6856 77.55 113.3912 C 77.21 113.0976 77 112.6908 77 112.2426 C 77 111.7945 77.21 111.3877 77.55 111.0941 C 77.889 110.7996 78.358 110.6176 78.875 110.6176 Z " stroke-width="0.890161532519411"/>
      <path id="ID0.10306525649502873" fill="#FFFFFF" stroke="none" d="M 76.25 106 C 76.802 106 77.302 106.406 77.664 107.062 C 78.026 107.719 78.25 108.625 78.25 109.625 C 78.25 110.625 78.026 111.531 77.664 112.188 C 77.302 112.844 76.802 113.25 76.25 113.25 C 75.698 113.25 75.198 112.844 74.836 112.188 C 74.474 111.531 74.25 110.625 74.25 109.625 C 74.25 108.625 74.474 107.719 74.836 107.062 C 75.198 106.406 75.698 106 76.25 106 Z " stroke-width="1"/>
    </g>
    <g id="ID0.6826177025213838">
      <path id="ID0.3883198988623917" fill="#9BE1FF" stroke="#4086A8" stroke-width="0.9093100078603363" d="M 42.9695 109.3642 C 44.0326 109.2515 45.069 109.836 45.8838 110.8724 C 46.6995 111.9079 47.2936 113.3946 47.4729 115.0862 C 47.6523 116.7778 47.3832 118.356 46.8028 119.5396 C 46.2234 120.7238 45.3326 121.5126 44.2696 121.6253 C 43.2065 121.738 42.1701 121.1536 41.3553 120.1171 C 40.5396 119.0816 39.9455 117.595 39.7661 115.9033 C 39.5868 114.2117 39.8559 112.6335 40.4363 111.45 C 41.0157 110.2657 41.9065 109.477 42.9695 109.3642 Z "/>
      <path id="ID0.2013350110501051" fill="#4086A8" stroke="none" d="M 42.1933 109.6876 C 42.985 109.6037 43.7586 110.0566 44.3685 110.857 C 44.9789 111.6566 45.4255 112.8036 45.5637 114.1069 C 45.7019 115.4102 45.5058 116.6253 45.0765 117.5351 C 44.6481 118.4456 43.9866 119.0507 43.195 119.1347 C 42.4034 119.2186 41.6297 118.7656 41.0199 117.9652 C 40.4094 117.1657 39.9628 116.0187 39.8246 114.7154 C 39.6864 113.4121 39.8826 112.1969 40.3118 111.2872 C 40.7402 110.3767 41.4017 109.7715 42.1933 109.6876 Z " stroke-width="0.7772512498141078"/>
      <path id="ID0.712022521533072" fill="#2C6A9B" stroke="none" d="M 43.9149 114.8853 C 44.2978 114.8447 44.6606 114.9542 44.9367 115.1643 C 45.2136 115.3737 45.4037 115.6843 45.4419 116.0446 C 45.4801 116.4049 45.3593 116.7484 45.1326 117.0112 C 44.9066 117.2746 44.5748 117.4577 44.192 117.4983 C 43.8091 117.5389 43.4463 117.4294 43.1702 117.2193 C 42.8934 117.0099 42.7032 116.6993 42.665 116.339 C 42.6268 115.9787 42.7476 115.6352 42.9743 115.3724 C 43.2003 115.109 43.5321 114.9259 43.9149 114.8853 Z " stroke-width="0.6844015106674137"/>
      <path id="ID0.10306525649502873" fill="#FFFFFF" stroke="none" d="M 41.5307 111.384 C 41.9395 111.3406 42.3444 111.6278 42.6684 112.1268 C 42.9925 112.6266 43.2356 113.3374 43.3208 114.1414 C 43.4061 114.9454 43.3174 115.6914 43.1054 116.2481 C 42.8932 116.804 42.5576 117.1696 42.1488 117.213 C 41.74 117.2563 41.3351 116.9692 41.0111 116.4702 C 40.6871 115.9703 40.444 115.2595 40.3587 114.4555 C 40.2735 113.6515 40.3621 112.9055 40.5742 112.3488 C 40.7863 111.793 41.122 111.4273 41.5307 111.384 Z " stroke-width="0.7772512498141078"/>
    </g>
  </g>
</svg>