<?xml version="1.0" encoding="utf-8"?>
<!-- Svg Vector Icons : http://www.onlinewebfonts.com/icon -->
<!DOCTYPE svg PUBLIC "-//W3C//DTD SVG 1.1//EN" "http://www.w3.org/Graphics/SVG/1.1/DTD/svg11.dtd">
<svg version="1.1" xmlns="http://www.w3.org/2000/svg" xmlns:xlink="http://www.w3.org/1999/xlink" x="0px" y="0px" viewBox="0 0 256 256" enable-background="new 0 0 256 256" xml:space="preserve">
<metadata> Svg Vector Icons : http://www.onlinewebfonts.com/icon </metadata>
<g><g><path fill="#000000" d="M128.5,5.5c3.3,0.7,14,8.2,32.3,22.5C194,56,220.1,73.3,239,79.8c5.2,2,7.5,5.2,6.9,9.8c-1.3,3.9-4.6,4.6-9.8,2c-26.8-13-57.1-33.6-91-61.6c-10.5-8.5-16-12.7-16.6-12.7c-2,0-9.8,5.6-23.5,16.6C68.5,63.2,39.8,82.4,18.9,91.6c-3.9,2-6.9,1.3-8.8-2c-0.6-3.9,1-6.9,4.9-8.8C36.6,72.3,63.6,54.4,96.2,27C113.2,12.6,123.9,5.5,128.5,5.5z M22.8,136.5h215.2c3.9,0.7,5.5,2.6,4.9,5.9c-0.7,2.6-2.9,3.9-6.9,3.9H108c-15.7,32-34.9,60.7-57.7,86.1c57.4-2,109.2-5.9,155.5-11.7c-15-20.2-27.7-37.2-38.2-50.9c-2.6-3.3-2.6-5.9,0-7.8c2.6-1.9,5.5-1.6,8.8,1c18.3,22.8,35.9,48.9,52.8,78.3c2,3.9,1.3,6.9-2,8.8c-2.6,1.3-4.9,0-6.9-3.9c-1.3-2-2.6-4.3-3.9-6.9c-2.6-4.6-4.3-7.5-4.9-8.8c-49.6,5.9-105.6,10.1-168.3,12.7c-5.9-0.6-9.5-2-10.8-3.9c-1.3-2.6,0-5.6,3.9-8.8c24.8-23.5,45-51.5,60.7-84.1H22.8c-3.9,0-5.9-1.6-5.9-4.9C17,138.8,18.9,137.2,22.8,136.5z M58.1,81.8h140.9c3.9,0.6,5.9,2.3,5.9,4.9c0,3.3-1.6,4.9-4.9,4.9H58.1c-3.9,0-5.9-1.6-5.9-4.9C52.2,84.1,54.1,82.4,58.1,81.8z"/></g></g>
</svg>