<?xml version="1.0" encoding="utf-8"?>
<!-- Generator: Adobe Illustrator 13.0.0, SVG Export Plug-In . SVG Version: 6.00 Build 14948)  -->
<!DOCTYPE svg PUBLIC "-//W3C//DTD SVG 1.0//EN" "http://www.w3.org/TR/2001/REC-SVG-20010904/DTD/svg10.dtd" [
	<!ENTITY ns_flows "http://ns.adobe.com/Flows/1.0/">
	<!ENTITY ns_extend "http://ns.adobe.com/Extensibility/1.0/">
	<!ENTITY ns_ai "http://ns.adobe.com/AdobeIllustrator/10.0/">
	<!ENTITY ns_graphs "http://ns.adobe.com/Graphs/1.0/">
]>
<svg version="1.0" id="Layer_1" xmlns:x="&ns_extend;" xmlns:i="&ns_ai;" xmlns:graph="&ns_graphs;"
	 xmlns="http://www.w3.org/2000/svg" xmlns:xlink="http://www.w3.org/1999/xlink" xmlns:a="http://ns.adobe.com/AdobeSVGViewerExtensions/3.0/"
	 x="0px" y="0px" width="246.459px" height="53.5px" viewBox="0 0 246.459 53.5" enable-background="new 0 0 246.459 53.5"
	 xml:space="preserve">
<rect x="0.625" y="17.125" fill="#ED1C24" width="13" height="34"/>
<circle fill="#ED1C24" cx="7.125" cy="7.125" r="7.125"/>
<polygon points="57.5,2.625 57.5,33.875 35.375,2.625 22.625,2.625 22.625,51.125 35.375,51.125 35.375,19.875 57.5,51.125 
	70.25,51.125 70.25,2.625 "/>
<path d="M104.949,41.051c-2.137,3.512-5.143,3.959-8.324,3.959c-4.221,0-7.354-2.51-7.354-7.885h26.271
	c0.053-0.688,0.084-1.395,0.084-2.125c0-10.286-7.62-18.625-18.563-18.625s-19.438,8.964-19.438,19.25S86.12,53.5,97.063,53.5
	c7.467,0,13.382-2.916,16.389-8.657L104.949,41.051z M96.625,24c3.214,0,5.993,2.443,7.354,6H89.271
	C90.632,26.443,93.411,24,96.625,24z"/>
<polygon points="160.958,17.375 154.916,38.499 148.125,17.375 141.292,17.375 134.501,38.499 128.459,17.375 115.625,17.375 
	130.268,51.667 138.268,51.667 144.709,32.218 151.149,51.667 159.149,51.667 173.792,17.375 "/>
<path d="M173.625,48.708c0,0,4.834,4,14.334,4c11.333,0,15.166-6.666,15.166-10.333c0-14.333-17.166-10-17.166-15.167
	c0-3.667,7.707-4.042,14.541,1.125c-0.206-2.521,0.523-7.7,1-9.021c-4.742-2.054-6.77-3.271-12.041-3.271
	c-11.709,0-14.667,7.271-14.667,11.333c0,10.5,17.5,10.333,17.5,13.667c0,4.333-6.667,3.999-16.167-1.334
	C173.625,49.208,173.625,48.708,173.625,48.708z"/>
<circle fill="#ED1C24" cx="225.875" cy="23.292" r="20.583"/>
<polygon fill="#FFFFFF" points="235.959,14.042 232.343,26.583 229.292,14.042 211.125,14.042 211.125,18.208 215.792,18.208 
	215.792,32.542 220.625,32.542 220.625,18.208 225.306,18.208 228.792,32.542 235.625,32.542 240.959,14.042 "/>
</svg>
