<?xml version="1.0" encoding="UTF-8"?>
<svg id="parts__logo--official" data-name="parts__logo--official" xmlns="http://www.w3.org/2000/svg" viewBox="0 0 502.85 279">
<g id="parts__logo--official--details">
	<rect id="item__e--parts2" x="421.85" y="88.33" width="81" height="29.26" transform="translate(924.7 205.92) rotate(-180)" stroke-width="0"/>
	<path id="item__e--parts1" d="m452.37,31.41h-50.16V.57h79.09v278.02h-78.45v-30h49.52s0-217.18,0-217.18Z" stroke-width="0"/>
	<path id="item__u" d="m350.58,279v-17.29c-3.5,4.67-12.46,17.13-30.76,17.13-3.11,0-12.07-.39-19.47-6.23-11.68-9.34-12.07-23.75-12.07-36.99V.45h32.32v229.33c0,6.62-.39,10.12,1.17,13.24,2.34,4.67,7.4,7.01,12.46,7.01,1.95,0,6.23,0,10.12-3.11,6.62-5.45,6.23-15.19,6.23-22.59V.45h31.15v278.55h-31.15Z" stroke-width="0"/>
	<path id="item__s2" d="m260.19,39.45c-9.53-6.38-18.1-9.57-25.7-9.57-7.6,0-14.1,3.4-19.49,10.21-5.39,6.81-8.08,15.03-8.08,24.67,0,6.81,1.6,14.07,4.81,21.8,3.21,7.73,10.44,20.09,21.7,37.08,11.26,16.99,19.86,31.73,25.82,44.23,5.96,12.49,8.94,26.82,8.94,43,0,20.16-4.85,36.51-14.55,49.07-9.7,12.56-22.38,18.84-38.04,18.84-8.62,0-19.17-3.19-31.65-9.57v-32.55c.34.14.68.36,1.02.64,1.7,1.56,5.28,3.94,10.72,7.13,5.45,3.19,10.78,4.79,16,4.79,8.51,0,15.51-3.54,21.02-10.64,5.5-7.09,8.25-16.17,8.25-27.23,0-7.66-1.4-14.75-4.2-21.27-2.8-6.53-7.88-15.4-15.25-26.62l-19.54-30.05c-7.59-11.65-13.2-22.3-16.83-31.95-3.63-9.65-5.45-21.15-5.45-34.49,0-19.73,4.59-35.77,13.78-48.11C202.67,6.49,214.58.31,229.22.31c10.21,0,20.53,3.19,30.97,9.57v29.57Z" stroke-width="0"/>
	<path id="item__sqare--parts2" d="m173.78,193.88h-34.26v-34.26h34.26v34.26Zm-29.26-5h24.26v-24.26h-24.26v24.26Z" stroke-width="0"/>
	<path id="item__sqare--parts1" d="m173.78,119.47h-34.26v-34.26h34.26v34.26Zm-29.26-5h24.26v-24.26h-24.26v24.26Z" stroke-width="0"/>
	<path id="item__s1" d="m127.36,39.45c-9.53-6.38-18.1-9.57-25.7-9.57s-14.1,3.4-19.49,10.21c-5.39,6.81-8.08,15.03-8.08,24.67,0,6.81,1.6,14.07,4.81,21.8,3.21,7.73,10.44,20.09,21.7,37.08,11.26,16.99,19.86,31.73,25.82,44.23,5.96,12.49,8.94,26.82,8.94,43,0,20.16-4.85,36.51-14.55,49.07-9.7,12.56-22.38,18.84-38.04,18.84-8.62,0-19.17-3.19-31.65-9.57v-32.55c.34.14.68.36,1.02.64,1.7,1.56,5.28,3.94,10.72,7.13,5.45,3.19,10.78,4.79,16,4.79,8.51,0,15.51-3.54,21.02-10.64,5.5-7.09,8.25-16.17,8.25-27.23,0-7.66-1.4-14.75-4.2-21.27-2.8-6.53-7.88-15.4-15.25-26.62l-19.54-30.05c-7.59-11.65-13.2-22.3-16.83-31.95-3.63-9.65-5.45-21.15-5.45-34.49,0-19.73,4.59-35.77,13.78-48.11C69.84,6.49,81.75.31,96.39.31c10.21,0,20.53,3.19,30.97,9.57v29.57Z" stroke-width="0"/>
	<path id="item__i" d="m0,0h29.27v279H0V0Z" stroke-width="0"/>
</g>
</svg>